<svg id="Layer_1" data-name="Layer 1" xmlns="http://www.w3.org/2000/svg" viewBox="0 0 243.5 30"><defs><style>.cls-1{fill:#99A2BF;}</style></defs><title>marketing-week-logo</title><path class="cls-1" d="M65.5,0,58.2,20.2,51.4,1.8a2.52,2.52,0,0,0-4.8,0L39.9,20.2,33.2,1.8a2.53,2.53,0,0,0-4.8,0L21.7,20.2,15.1,1.8a2.51,2.51,0,0,0-4.8,0L0,30H5.3L12.6,9.9l6.7,18.5a2.5,2.5,0,0,0,4.7,0L30.7,9.9l6.7,18.4a2.53,2.53,0,0,0,4.8,0L49,9.9l6.7,18.5a2.48,2.48,0,0,0,4.7,0L70.8,0Z"/><path class="cls-1" d="M81.8,8h3l3.1,7.7a21.89,21.89,0,0,1,.8,2.3h0a21.89,21.89,0,0,1,.8-2.3l3-7.7h3l1.3,15.6H94l-.7-8.7a17.35,17.35,0,0,1,0-2.4h0l-.8,2.4L90,21H87.5L85,14.9c-.4-.9-.9-2.4-.9-2.4h0v2.4l-.7,8.7H80.6Z"/><path class="cls-1" d="M105.3,16.6h.4v-.2c0-1.5-.9-2-2.2-2a6.07,6.07,0,0,0-3.1,1.1l-1.1-2a7.38,7.38,0,0,1,4.4-1.4c2.9,0,4.7,1.6,4.7,4.5v7h-2.6V21.9h0a3.73,3.73,0,0,1-3.4,2,3.55,3.55,0,0,1-3.8-3.5C98.7,16.8,103.5,16.6,105.3,16.6Zm-2.1,5.1c1.5,0,2.5-1.6,2.5-2.9v-.3h-.5c-1.4,0-3.7.2-3.7,1.8A1.52,1.52,0,0,0,103.2,21.7Z"/><path class="cls-1" d="M111.2,12.4h2.7v2.7h0a3.84,3.84,0,0,1,3.6-2.9h.5V15h-.7a3.29,3.29,0,0,0-3.1,2.4,5.24,5.24,0,0,0-.2,1.8v4.4h-2.8Z"/><path class="cls-1" d="M119.6,8h2.8v8.4h1.4l2.7-4h3.1l-3.5,5h0l4,6.2h-3.2l-3-4.9h-1.5v4.9h-2.8Z"/><path class="cls-1" d="M136.2,12.1c3.2,0,5,2.4,5,5.3,0,.3-.1,1.1-.1,1.1h-7.7a3.22,3.22,0,0,0,3.4,3,5.47,5.47,0,0,0,3.2-1.2l1.1,2a7,7,0,0,1-4.5,1.6,5.75,5.75,0,0,1-6-5.9A5.49,5.49,0,0,1,136.2,12.1Zm2.2,4.5a2.13,2.13,0,0,0-2.2-2.3,2.69,2.69,0,0,0-2.7,2.3Z"/><path class="cls-1" d="M143.8,14.8h-1.5V12.6h1.5V9.3h2.7v3.2h2.6v2.2h-2.6v4.4a2,2,0,0,0,2.2,2.1h.5v2.4a3.14,3.14,0,0,1-.9.1c-1.6,0-4.7-.5-4.7-4.2V14.8Z"/><path class="cls-1" d="M151.4,8h2.8v2.5h-2.8Zm0,4.4h2.8V23.6h-2.8Z"/><path class="cls-1" d="M157,12.4h2.7v2.1h0a4.43,4.43,0,0,1,4-2.3c2.5,0,3.9,1.3,3.9,4.3v7.2h-2.8V17c0-1.4-.4-2.3-1.8-2.3a3,3,0,0,0-3,2.3,3.89,3.89,0,0,0-.2,1.5v5.1H157Z"/><path class="cls-1" d="M174.5,25.9c1.7,0,3.2-.7,3.2-2.7V21.9h0a3.39,3.39,0,0,1-3.1,1.5c-3.2,0-5-2.6-5-5.7s1.7-5.6,5-5.6a3.86,3.86,0,0,1,3.3,1.4h.1V12.3h2.6V22.8c0,3.9-3,5.3-5.9,5.3a8.77,8.77,0,0,1-4-1l.8-2.1A4.92,4.92,0,0,0,174.5,25.9Zm3.3-8.2c0-2.6-1.3-3.2-2.8-3.2-1.7,0-2.6,1.2-2.6,3.1s1,3.4,2.8,3.4C176.5,21,177.8,20.3,177.8,17.7Z"/><path class="cls-1" d="M201.6,18.8c.2.9.3,1.7.3,1.7h0s.1-.8.3-1.7L204.7,8h2.9l-4,15.6h-3.3l-2.4-9.2a12.1,12.1,0,0,1-.4-2h0a12.1,12.1,0,0,1-.4,2l-2.4,9.2h-3.3L187.5,8h2.9l2.5,10.8c.2.9.3,1.7.3,1.7h0a6.54,6.54,0,0,1,.3-1.7L196.3,8h2.5Z"/><path class="cls-1" d="M214,12.1c3.2,0,5,2.4,5,5.3,0,.3-.1,1.1-.1,1.1h-7.7a3.22,3.22,0,0,0,3.4,3,5.47,5.47,0,0,0,3.2-1.2l1.1,2a7,7,0,0,1-4.5,1.6,5.75,5.75,0,0,1-6-5.9A5.49,5.49,0,0,1,214,12.1Zm2.2,4.5a2.13,2.13,0,0,0-2.2-2.3,2.69,2.69,0,0,0-2.7,2.3Z"/><path class="cls-1" d="M226,12.1c3.2,0,5,2.4,5,5.3,0,.3-.1,1.1-.1,1.1h-7.7a3.22,3.22,0,0,0,3.4,3,5.47,5.47,0,0,0,3.2-1.2l1.1,2a7,7,0,0,1-4.5,1.6,5.75,5.75,0,0,1-6-5.9A5.49,5.49,0,0,1,226,12.1Zm2.2,4.5a2.13,2.13,0,0,0-2.2-2.3,2.69,2.69,0,0,0-2.7,2.3Z"/><path class="cls-1" d="M233.1,8h2.8v8.4h1.4l2.7-4h3.1l-3.5,5h0l4,6.2h-3.2l-3-4.9h-1.5v4.9h-2.8Z"/></svg>