<svg id="Layer_1" data-name="Layer 1" xmlns="http://www.w3.org/2000/svg" viewBox="0 0 161 22.7"><defs><style>.cls-1{fill:#99A2BF;}</style></defs><title>Artboard 1</title><g id="Page-1"><g id="Home"><g id="Press"><g id="tc-techcrunch"><path id="Fill-1" class="cls-1" d="M60.5,8.9v10H56.8V8.9H53.1V5.7H64.2V8.9Z"/><path id="Fill-2" class="cls-1" d="M68.3,11.3c-.8,0-1.2.5-1.3,1.5h2.8c-.2-1-.5-1.5-1.5-1.5m4.5,3.6H67a1.6,1.6,0,0,0,1.7,1.6,5.36,5.36,0,0,0,2.6-.7L72.6,18a7.74,7.74,0,0,1-4,1.1c-3,0-4.6-2.1-4.6-5.2,0-3.4,1.9-5.2,4.5-5.2s4.4,1.8,4.4,5.5a2,2,0,0,0-.1.7"/><path id="Fill-4" class="cls-1" d="M79.1,19.1c-2.9,0-4.7-1.9-4.7-5.2,0-3,1.6-5.1,4.7-5.1a4,4,0,0,1,3.8,2.3l-2.3,1.8c-.5-.9-.8-1.3-1.5-1.3-.9,0-1.3.9-1.3,2.4s.5,2.4,1.4,2.4c.6,0,1.1-.4,1.7-1.3l2.2,1.7a4.41,4.41,0,0,1-4,2.3"/><path id="Fill-6" class="cls-1" d="M90.8,18.9V13.3c0-1.3-.4-1.6-1.1-1.6s-1.2.3-1.2,1.6V19H85.1V6.5l3.4-1.4V9.6A3.58,3.58,0,0,1,91,8.7c2.2,0,3.2,1.5,3.2,4.1v6.1Z"/><path id="Fill-8" class="cls-1" d="M102.3,19.1c-3.9,0-6-2.9-6-6.8,0-4.3,2.5-6.8,6.1-6.8,3.3,0,4.5,1.4,5.4,3.9l-3.3,1.3c-.5-1.2-.9-2-2.1-2-1.5,0-2.2,1.5-2.2,3.6s.6,3.6,2.2,3.6c1.2,0,1.6-.6,2.4-1.9l3.1,1.6a5.86,5.86,0,0,1-5.6,3.5"/><path id="Fill-10" class="cls-1" d="M116.2,12.7a1.94,1.94,0,0,0-1.6-.8c-.8,0-1.3.4-1.3,1.6v5.4h-3.4V9h3.4v.7a2.72,2.72,0,0,1,2.1-.9,3.41,3.41,0,0,1,1.6.4Z"/><path id="Fill-12" class="cls-1" d="M124.3,18.9v-.7a3.58,3.58,0,0,1-2.5.9c-2.2,0-3.2-1.5-3.2-4.1V9H122v5.6c0,1.3.4,1.6,1.1,1.6s1.1-.3,1.1-1.6V9h3.4v9.9Z"/><path id="Fill-14" class="cls-1" d="M135.9,18.9V13.3c0-1.3-.4-1.6-1.1-1.6s-1.2.3-1.2,1.6V19h-3.4V9h3.4v.7a3.58,3.58,0,0,1,2.5-.9c2.2,0,3.2,1.5,3.2,4.1V19h-3.4Z"/><path id="Fill-16" class="cls-1" d="M146,19.1c-2.9,0-4.7-1.9-4.7-5.2,0-3,1.6-5.1,4.7-5.1a4,4,0,0,1,3.8,2.3l-2.3,1.8c-.5-.9-.8-1.3-1.5-1.3-.9,0-1.3.9-1.3,2.4s.5,2.4,1.4,2.4c.6,0,1.1-.4,1.7-1.3l2.2,1.7c-1.2,1.6-2.3,2.3-4,2.3"/><path id="Fill-18" class="cls-1" d="M157.6,18.9V13.3c0-1.3-.4-1.6-1.1-1.6s-1.2.3-1.2,1.6V19h-3.4V6.5l3.4-1.4V9.6a3.58,3.58,0,0,1,2.5-.9c2.2,0,3.2,1.5,3.2,4.1v6.1Z"/><path id="Fill-20" class="cls-1" d="M0,0V7.6H7.6V22.7h7.6V7.6h7.6V0Z"/><path id="Fill-22" class="cls-1" d="M30.3,15.1V7.5H22.7V22.6H45.4V15H30.3Z"/><path id="Fill-24" class="cls-1" d="M30.3,7.6H45.4V0H30.3Z"/></g></g></g></g></svg>