<svg id="svg27454" xmlns="http://www.w3.org/2000/svg" viewBox="0 0 250 40.93"><defs><style>.cls-1,.cls-3,.cls-4{fill:none;}.cls-2{fill:#99A2BF;}.cls-3{stroke:#99A2BF;}.cls-3,.cls-4{stroke-linecap:round;stroke-linejoin:round;stroke-width:0;}.cls-4{stroke:#fff;}</style></defs><title>daily-mail-logo</title><path class="cls-1" d="M19.39,6.09H14.83v5.59a3.48,3.48,0,0,0,2.52,2A3.74,3.74,0,0,0,20,12.3V6.64C20,6.13,20,6.09,19.39,6.09Z"/><path class="cls-1" d="M14.83,12.7v3.66a3.62,3.62,0,0,1,2.63-1.24A3.89,3.89,0,0,1,20,16.3V13.14a3.85,3.85,0,0,1-2.71,1.1A3.51,3.51,0,0,1,14.83,12.7Z"/><path class="cls-1" d="M124,26.85l.24,0a1.46,1.46,0,0,1-.29-.38.77.77,0,0,0-.29-.52v.26l0,.35.1.12v.26Z"/><path class="cls-1" d="M142.4,23.16l-.25.38h-.76a17,17,0,0,1-2-.52l.05,0,.16.29.07,0a.32.32,0,0,1,.29.35.4.4,0,0,1,0,.14l.64.28a.32.32,0,0,1,.28-.23.36.36,0,0,1,.31.39.46.46,0,0,1,0,.09l.51.1h0A.38.38,0,0,1,142,24a.35.35,0,0,1,.31.31l.45-.22a.49.49,0,0,1,0-.11.37.37,0,0,1,.33-.41.31.31,0,0,1,.27.19l.2-.31A3.19,3.19,0,0,1,142.4,23.16Z"/><path class="cls-1" d="M127.45,24.35a.5.5,0,0,1,.23-.09,14,14,0,0,1-1.37-.39,2.58,2.58,0,0,1-1-.51l-.3.11-.27.09,0,.12a2.31,2.31,0,0,1,1,.38l0-.14a1.2,1.2,0,0,1,.84.69h.65a.45.45,0,0,1,.16-.25Z"/><path class="cls-1" d="M38.64,12a.62.62,0,0,0-.55,0,5.69,5.69,0,0,0-2.88,3.61A7.79,7.79,0,0,0,36,20.9a9.9,9.9,0,0,0,4.56,4.2,1.46,1.46,0,0,0,1.75-.2.29.29,0,0,0,.08-.2V14.87a.68.68,0,0,0-.3-.54C41.88,14.21,39.44,12.58,38.64,12Z"/><polygon class="cls-1" points="132.78 27.52 132.78 27.52 132.78 28.09 132.78 28.09 132.78 27.52"/><polygon class="cls-1" points="132.78 26.75 132.78 26.75 132.78 27.11 132.78 27.11 132.78 26.75"/><path class="cls-1" d="M126.95,21.31l-.61.06.54.41.54.4a9.48,9.48,0,0,1,0-1.68A1.4,1.4,0,0,0,126.95,21.31Z"/><path class="cls-1" d="M116,27.15a3.26,3.26,0,0,0,1.3,0s-.34-.09-.68-.21a2.24,2.24,0,0,1-.71-.36,1.76,1.76,0,0,1,.12-1,2.06,2.06,0,0,0,.68-.35,3.08,3.08,0,0,0,.32-.28,12.53,12.53,0,0,1-1.94-.33,1.39,1.39,0,0,1-.44-.2l-.09.2a3,3,0,0,1-.43.64l-.07.41s1.37.12,1.5,1l-.17.35a4,4,0,0,0,.61.14l0,.33h0Z"/><path class="cls-1" d="M142.6,27.07l-.22-.32a1.13,1.13,0,0,0,.71-.32s.42-.55,1.62-.26a1.46,1.46,0,0,0,.91.09,2.79,2.79,0,0,0,1-.41l-.39-.35a1.84,1.84,0,0,1-.42-.32,1.28,1.28,0,0,1-.19-.56h0a.9.9,0,0,1,.36-.8,4.63,4.63,0,0,1,.5-.55,5.16,5.16,0,0,1,.73-.58s-.76.29-1.72.75a9.09,9.09,0,0,1-1.75,0l-.33.5h0a.38.38,0,0,1-.33.41.31.31,0,0,1-.25-.15l-.51.23a.36.36,0,0,1-.32.35.34.34,0,0,1-.31-.28l-.59-.08a.29.29,0,0,1-.24.15.36.36,0,0,1-.31-.39l-.72-.29a.26.26,0,0,1-.16.06.33.33,0,0,1-.29-.35.38.38,0,0,1,.07-.22l-.39-.55-.26-.11a1,1,0,0,0-.18-.08,2.05,2.05,0,0,0-.53-.1,11.12,11.12,0,0,1-.56,2h0a2.53,2.53,0,0,1-.2.39l.44.2s.15-.26.3-.59a3.14,3.14,0,0,0,.33-1.11l1.11,1,.08.07h0l.51.48s1.94-.17,2.09.75a2.75,2.75,0,0,0-.29,1.19A.83.83,0,0,0,142.6,27.07Z"/><polygon class="cls-1" points="116.89 26.72 116.57 26.91 116.89 26.72 116.89 26.72"/><path class="cls-1" d="M17.45,15.72a3.48,3.48,0,0,0-2.63,1.56V23.5a18.15,18.15,0,0,1,4.93,1.2c.18.08.28,0,.28-.17V17.12A3.93,3.93,0,0,0,17.45,15.72Z"/><path class="cls-1" d="M119.67,25.87l-.8.1h0Z"/><path class="cls-1" d="M120.4,26.08s0-.38.49-.29c0,0,.29-.84,1.57-.58a.76.76,0,0,1,.47.1,1.45,1.45,0,0,1,.31.22l-.12-.43a.44.44,0,0,1,.47-.14,2.28,2.28,0,0,1-.25-.36h0a1.43,1.43,0,0,1-.22-.69,1.77,1.77,0,0,1,.81-.12v-.38h.24l-.44-.26a3.26,3.26,0,0,1-3.32.63,6,6,0,0,1-1.22-.52,1.84,1.84,0,0,0,1.77,1,2.46,2.46,0,0,1-.29.31h0a2.38,2.38,0,0,1-1.38.64l-.3.43.67.19.14,0Z"/><path class="cls-1" d="M125.08,28.08l0,.52.44-.49a.32.32,0,0,1-.18-.09,1.74,1.74,0,0,1-.28-.34Z"/><path class="cls-1" d="M208.16,12a.63.63,0,0,0-.55,0,5.7,5.7,0,0,0-2.89,3.62,7.79,7.79,0,0,0,.74,5.23,9.91,9.91,0,0,0,4.56,4.2,1.46,1.46,0,0,0,1.75-.2.3.3,0,0,0,.08-.2V14.82a.68.68,0,0,0-.3-.54C211.4,14.16,209,12.54,208.16,12Z"/><path class="cls-1" d="M149.31,26a.44.44,0,1,0,.36.43.55.55,0,0,0,0-.17A.37.37,0,0,0,149.31,26Z"/><path class="cls-1" d="M147.92,26.43a5.67,5.67,0,0,0-1.18.84,24.86,24.86,0,0,0,2.51,0,.76.76,0,0,1-.66-.79.77.77,0,0,1,.57-.77l0-.55a.41.41,0,0,1-.35-.35h0a5.77,5.77,0,0,1-.66.11.18.18,0,0,0,.07.23c.71.52.24,1,.24,1C148.09,26.43,147.92,26.43,147.92,26.43Z"/><path class="cls-1" d="M183.11,5.27v7.56h.82V4.91C183.19,4.59,183.11,5,183.11,5.27Z"/><path class="cls-1" d="M140.27,17.25s.1-.61-.39-.55a.41.41,0,0,0-.22.55h0S139.85,17.77,140.27,17.25Z"/><polygon class="cls-1" points="132.78 28.49 132.78 28.49 132.78 29.28 132.78 29.27 132.78 28.49"/><path class="cls-1" d="M183.11,23.27a.86.86,0,0,0,.47.71l.35.22V18.43h-.82Z"/><path class="cls-1" d="M139.84,27.47a.3.3,0,0,0-.16.29s0,.23.52.35a1.82,1.82,0,0,0,0-.78A1.13,1.13,0,0,0,139.84,27.47Z"/><path class="cls-1" d="M149.65,24.74a.41.41,0,0,1-.3.38v.54a.69.69,0,0,1,.49.28.85.85,0,0,1,.16.51.76.76,0,0,1-.61.78c.91-.06,1.5-.15,1.5-.15-.84-.17-.34-.67-.34-.67a3.86,3.86,0,0,1,1.08-.55,2.14,2.14,0,0,1-1.56-1.23h-.46A.38.38,0,0,1,149.65,24.74Z"/><path class="cls-1" d="M140.51,17.74l.09-.41h-.11s-.23.85-.86.37l-.06.16a.3.3,0,0,1,0,.11.27.27,0,0,1-.17.26l.42.41A2.46,2.46,0,0,1,140.51,17.74Z"/><path class="cls-1" d="M169.88,5.9V24.19a.6.6,0,0,0,.3.59l.7.44v-20A.85.85,0,0,0,169.88,5.9Z"/><path class="cls-1" d="M174.66,7.08l-3.24-1.7V17.46l2.91-4.38a.58.58,0,0,1,.47-.25h.33v-5A.75.75,0,0,0,174.66,7.08Z"/><path class="cls-2" d="M123.68,12c.42-.46.48,0,.48,0-.53.1-.29.39-.29.39.42.67.57-.41.57-.41a1.22,1.22,0,0,0-1-.41h0A.57.57,0,0,1,123.68,12Z"/><path class="cls-2" d="M157,20.06a1.86,1.86,0,0,0-.36-.84l-.05-.06a2,2,0,0,0-1.18-1.68.73.73,0,0,0-.44-.17,2,2,0,0,1-.66-.52,1.52,1.52,0,0,0-.07,1.45,24.55,24.55,0,0,0-4.17.55,5,5,0,0,1-2.23-.23c-.88-.49-.74-1.1-.74-1.1.2-1,1-.87,1-.87a1.22,1.22,0,0,0,.25,0,2.17,2.17,0,0,1,1.23.14c1.47.7,4.1,0,4.1,0a3.07,3.07,0,0,0,1.57-2.11,2,2,0,0,1-1.62.64,2.73,2.73,0,0,0-.52.15,1.43,1.43,0,0,1,.81-.87,2.14,2.14,0,0,0-1.86.26,3.29,3.29,0,0,1-1.57.7,2.62,2.62,0,0,0,1.23-1.19,3.18,3.18,0,0,1-1.47.26,4.21,4.21,0,0,0-3,1,2.38,2.38,0,0,0-.76,2.75,1.91,1.91,0,0,0,1.05.93,5.24,5.24,0,0,0,1.35.38,28.21,28.21,0,0,0,4.56-.17c.29-.06.59-.09.59-.09a2.24,2.24,0,0,0-.66,1.36,3.19,3.19,0,0,1,1-.2l0,.15a3.46,3.46,0,0,1,1.2,0,.39.39,0,0,0,.42-.29c.42.64-.4,1.33-.4,1.33-.49.49-1.59.12-1.59.12a8.31,8.31,0,0,0-2.11-.41c-.29-.35-3.43-1-3.43-1a.38.38,0,0,0-.49-.17l-.29-.06a.58.58,0,0,0-.88-.26,6.32,6.32,0,0,1-1.6-.73l-.34-.2a5.74,5.74,0,0,0,1.59-3.82,3.46,3.46,0,0,0-2.55-3.33,1.77,1.77,0,0,0-1.45-.9l-.07.17.1.23c0,.17.17.49.17.49l-.47.12-2.8-1.62c-.71-.18-.44.41-.44.41l.15.2,2.46,1.92A5.49,5.49,0,0,1,140.51,14l-.34.06-.37.43,0,.55a1,1,0,0,1-.56.12l0,.35c.22.38.91.35.91.35l.56.58a.29.29,0,0,0,.32,0l.49-.58.66-.32a1.28,1.28,0,0,0,.49.15,2.68,2.68,0,0,0-.93.84,2.45,2.45,0,0,0-1,0l-.07.4,0,.11v0l-.17-.09c-.22-1-1-.41-1-.41a.82.82,0,0,0-.07,1h0l0,0,0,.06h0l-.05.12s-.06,0-.09,0a.26.26,0,0,0-.22.27l0,0-.3-.31-.11-.11-.28-.29-.34-.36c-.71-1-1.84,0-1.84,0l-.15-.15c.59-.35,0-.78,0-.78l1.16-3-.32-.4c.56-1.13-.61-1.19-.61-1.19-.34-1-1-.55-1-.55-.22-1-1-.46-1-.46a.61.61,0,0,0-.93-.29l0-1.65-.76,0v.2h.47l-.27.4.17.17.2-.29,0,.9-.44-.37.2.54-.34,0v.23h.44c.15.2-.12.52-.12.52a1,1,0,0,1-.32,0v.18H133v.71h-.28v.22h.83a1.54,1.54,0,0,0-.44,1.08,1,1,0,0,0,.64-.46v1.36c-.32-.49-.62-.31-.62-.31a.85.85,0,0,0,.76,1.09.62.62,0,0,0,.69-.52c-.15-.64-.56-.26-.56-.26-.2-1,.59-.61.59-.61-.27-.7.22-.93.22-.93a.7.7,0,0,1,.29.93c.81-.41.66.58.66.58-.76-.35-.66.46-.66.46.34.84,1,.2,1,.2a1.26,1.26,0,0,0,.2-.41l-.32.06.32-1.07.27.55.21-.59.18.21-1,2.55a15,15,0,0,0-3.28-.32v.2a16.56,16.56,0,0,1,3.1.29c.39.06.22.38.22.38-.32.12-.44,0-.44,0a13.08,13.08,0,0,0-2.88-.2v0a23.26,23.26,0,0,0-3.15.31c-.49,0-.39-.2-.39-.2.1-.4.32-.32.32-.32a15.93,15.93,0,0,1,3.23-.29v-.2a21.18,21.18,0,0,0-3.32.26l-.58-1.91.31-.81.34,1.36-.29-.14a.69.69,0,0,0,1.1.52c.39-.43,0-.58,0-.58-.44-.23-.52.06-.52.06-.32-1.19.49-.75.49-.75,0-.75.27-.81.27-.81.42.14.42.78.42.78.47-.72.74,0,.74,0a1,1,0,0,1,0,.32.45.45,0,0,0-.64.38c0,.4.61.52.61.52a1.24,1.24,0,0,0,.86-1.16,1.84,1.84,0,0,0-.66.41V12.35a1.67,1.67,0,0,0,.74.58,1.94,1.94,0,0,0-.49-1.07h.62v-.22h-.32v-.69h.31v-.18a1.42,1.42,0,0,1-.32-.06c-.47-.12-.17-.49-.17-.49h.49V10l-.44,0,.34-.4-.1-.11-.36.31,0-.84.37.32.09-.12-.32-.46h.44v-.2l-.83,0L132,10.1a.6.6,0,0,0-1,.43c-1-.58-1,.52-1,.52-.81-.26-.78.52-.78.52a.91.91,0,0,0-.93,1l.82,2.87A38.89,38.89,0,0,1,126.48,19l-1-.29-.1-.17a.67.67,0,0,0,.44.06,3.23,3.23,0,0,1,0-1c.32-1.36-.25-1.86-.25-1.86a2.49,2.49,0,0,0-.34-1.22c.51-.64-.25-1.3-.25-1.3l-.1-.18,0-1.42c-.12,0-.2-.17-.2-.17-.2-.61-.61-.23-.61-.23-.27-.61-.71-.12-.71-.12a.43.43,0,0,0-.76,0l-.32-1-1,.41.34,1.1c-.78-.17-.54.61-.54.61-.64,0-.34.64-.34.64-.64.06-.39.75-.39.75l.7,1.14a.7.7,0,0,0,0,1.06c.17.32.37.29.37.29a3.15,3.15,0,0,0,.11,1.92,5.37,5.37,0,0,1-1.73,1.25,9.71,9.71,0,0,1-1.63.62c-1.35.32-4,1.19-4,1.19l-2.43.7c-1.86.58-2.34,0-2.34,0-.45-.28-.11-1-.11-1a2.17,2.17,0,0,1,1.37-1.1,4.9,4.9,0,0,1,.91.67,1.77,1.77,0,0,0,1.15.38l0-.15a1.2,1.2,0,0,0,.52-.05.79.79,0,0,1-.2-.47,1.13,1.13,0,0,0-.22-.46l4.83-.2.43-.07c1.69-.31,2-.68,2-.68a2.24,2.24,0,0,0,.66-2.4,2.35,2.35,0,0,0-1.84-1.54,4.4,4.4,0,0,0-1.62-.12,6,6,0,0,1-1.61-.25c0,.23.4.87.4.87a1.13,1.13,0,0,1-.85-.27,1.7,1.7,0,0,0-1.47-.26,8,8,0,0,0,1,1,7.17,7.17,0,0,1-1.82-.55,3.71,3.71,0,0,0,1.57,2,3.67,3.67,0,0,0,2.94-.06,7.17,7.17,0,0,1,1.3-.64.75.75,0,0,1,1.06.46c-.07,1.19-.93,1.22-.93,1.22a23.12,23.12,0,0,1-5.87.17,2.48,2.48,0,0,0,.3-1.1l-.27.09c-1.47-.14-1.86.17-1.86.17a2,2,0,0,0-.76,1,4.81,4.81,0,0,0-1.55,1,3.49,3.49,0,0,0-1.1,2c-.05,1.25.63,1.42.63,1.42-.64,1.21.3,1.68.3,1.68a2.47,2.47,0,0,0,.61-.67,12.3,12.3,0,0,1,3.26-1.13,3.44,3.44,0,0,0-.76,1.53,2.49,2.49,0,0,1-1.13-.12c-.39,0-.39.26-.39.26l-.15.43-.27.76c-1.49-.06-1.28.81-1.28.81l-.22,2.35c.37.87.91.72.91.72l0-.87h.37a2.14,2.14,0,0,0,1.15,1.13H111c.22-.06.32.29.32.29l.27,0,0-.58.27-.06a.76.76,0,0,1,.27.38h.22a2.13,2.13,0,0,0,.1-.55c.29-.15.22-.78.22-.78a2.27,2.27,0,0,1,1.13.12v.52a1.66,1.66,0,0,0,.91.78,7.39,7.39,0,0,0,1.52.21l0-.21,0,.21c1.07.06,2.41,0,3.68,0,2.15-.09,4.07-.28,4.07-.28.15.2.22.14.22.14.57.23,1.23-.41,1.23-.41l-.2.41a2.18,2.18,0,0,0,.93-.35,1.1,1.1,0,0,0,.49.38l.12-.12.12.2a1.38,1.38,0,0,0,.44-.64,1,1,0,0,0,.76.23l.15.2.1-.17a5.47,5.47,0,0,0,.61.32,1.8,1.8,0,0,0,.22-1.3l.12.18.1-.41a.9.9,0,0,0,.57.2c-.66.29-.27.75-.27.75a.64.64,0,0,0,.34.32.48.48,0,0,1,.49.35.61.61,0,0,0,.81-.29l.07-.44a1.94,1.94,0,0,1-.1-.61l.12.43.15.11,1.2.93v-.18l-1.13-.9,0-2.61.44.32v2.2l.61.46,0,0v-.79h0a.21.21,0,0,1,0-.41h0v-.56l0,0c-.09,0-.16-.1-.16-.22s.07-.22.16-.22l0,0v-.36h0v.36a.21.21,0,0,1,.12.21.21.21,0,0,1-.12.21v.56a.21.21,0,0,1,0,.4v.79l.57-.58v-2l.37-.06V29l-.93.84h0V30l1-.84a2.5,2.5,0,0,0,1.33.41c.27,0,0-.35,0-.35a3.44,3.44,0,0,0,2.28.55c.2-.17.05-.29.05-.29.27-.09.69.23.69.23a1,1,0,0,0,.86.06.31.31,0,0,0-.2-.23c.22,0,.1-.32.1-.32a.79.79,0,0,1,.44.29.6.6,0,0,0,.59.2l0-.14a1.94,1.94,0,0,0,.79.2.32.32,0,0,0,0-.35,23.38,23.38,0,0,0,6.21.61c4.83,0,5.49-1,5.49-1a.55.55,0,0,0,.1-.46l0-.29a1.18,1.18,0,0,1,.64,0l-.34.75-.12.23c.83.93,2.11-.12,2.11-.12v-.32a1.35,1.35,0,0,0,.44-.38l.56.14a1.2,1.2,0,0,1-.15.67,1,1,0,0,0,1.18-.67l-.44-2.35a2.48,2.48,0,0,0-1.94-.64l0-.61a.8.8,0,0,0-.52-.39h0a1.7,1.7,0,0,0-.26-.07,1,1,0,0,1-.27.07h0a6,6,0,0,1-.93,0v0h0l.07-.77v-.93l-.07-.29.73.09a7.2,7.2,0,0,0,1.84.26.66.66,0,0,1,.42.58l-.12.49c1.15-.12,1-1.45,1-1.45C157.27,21.91,157,20.06,157,20.06ZM135.9,11.51l-.61-.35C136,10.44,135.9,11.51,135.9,11.51Zm-.91-.58-.61-.29S135,9.86,135,10.93Zm-1.2-.81s.27,0,.34.51l-.69-.06S133.47,10.07,133.79,10.12Zm-.6,1.47V11a4.24,4.24,0,0,1,3.16,1.5A4.48,4.48,0,0,0,133.19,11.6Zm3.51.61-.54-.46S136.88,11.14,136.71,12.21Zm-4.83-1.62-.71.29C131.31,9.54,131.88,10.59,131.88,10.59Zm-1,.35-.61.4C130.23,10.33,130.9,10.94,130.9,10.94Zm1.37,0v.7a6.82,6.82,0,0,0-2.82.69A6,6,0,0,1,132.27,10.93Zm-2.35.61-.59.46C129.28,11,129.91,11.54,129.91,11.54Zm-.84.64-.51.61C128.37,11.8,129.08,12.18,129.08,12.18Zm19.11,8.6.34.46s-.59.46.27.84l0,.23a4.66,4.66,0,0,0-2.11.32,4.26,4.26,0,0,1-1.82.52,4.9,4.9,0,0,1-2.28-.4,4,4,0,0,0,.37-1.45.89.89,0,0,0,0-.38s-.1-.12-.1.12c0,0-.32,1.51-.76,1.83a.84.84,0,0,0-.15.29s-1.59-.29-2.06-.43a8,8,0,0,0-1.84-.38s-.42-.26-1.2.46a2.37,2.37,0,0,0-.42,1.19,1.8,1.8,0,0,1,.25.62h0a.76.76,0,0,1-.34.83,4.4,4.4,0,0,0,.07-.43s0-.2-.19-.23a.63.63,0,0,0,0,.38s0,.4-.08.49-.71.09-1-.23a3.57,3.57,0,0,1,.19-.8h0a6,6,0,0,1,.3-.74l.44-1.57a2.16,2.16,0,0,1,.59-.9,1.47,1.47,0,0,1,1.1-.2,18.54,18.54,0,0,1,2.7.29,2.48,2.48,0,0,1,.52-2.2s.17-.26,0-.17a2.6,2.6,0,0,0-.79,2l-.61-.06a4.33,4.33,0,0,1,.91-3.07s1.3-.23,3.83,1.13A19.51,19.51,0,0,0,148.19,20.78Zm1.9,3.84a2.14,2.14,0,0,0,1.56,1.23,3.86,3.86,0,0,0-1.08.55s-.49.49.34.67c0,0-.59.09-1.5.15a.76.76,0,0,0,.61-.78.85.85,0,0,0-.16-.51.69.69,0,0,0-.49-.28v-.54a.41.41,0,0,0,.3-.38.38.38,0,0,0,0-.12Zm-1.9.51a.18.18,0,0,1-.07-.23,5.77,5.77,0,0,0,.66-.11h0a.41.41,0,0,0,.35.35l0,.55a.77.77,0,0,0-.57.77.76.76,0,0,0,.66.79,24.86,24.86,0,0,1-2.51,0,5.67,5.67,0,0,1,1.18-.84s.17,0,.52-.29C148.44,26.14,148.9,25.65,148.19,25.13Zm1.48,1.32a.36.36,0,1,1-.36-.43.37.37,0,0,1,.33.26A.55.55,0,0,1,149.67,26.45Zm.16-2.85a.91.91,0,0,0,0,.44,2.87,2.87,0,0,1-.47.22l0-.53a.46.46,0,0,0,.2-.39.42.42,0,0,0-.36-.44l0-.28a1.21,1.21,0,0,1,.55.44C149.88,23.51,149.83,23.59,149.83,23.59Zm-.93-1.06.09.38a.46.46,0,0,0-.24.41.42.42,0,0,0,.38.45h0v.54a6.45,6.45,0,0,1-.7.18l-.43.07-.12,0h0c-.38.16,0,.42,0,.42a1.46,1.46,0,0,1,.37.52c.27.32-.17.58-.17.58a5.1,5.1,0,0,0-2,1.1,14.17,14.17,0,0,1-1.81,0,1.8,1.8,0,0,1-.49-.68.51.51,0,0,1,.74,0,2,2,0,0,0,.91.12c.49-.29,1.27-.64,1.27-.64A.58.58,0,0,1,147,26c.22-.06,0-.26,0-.26a4.43,4.43,0,0,1-.93-.84.79.79,0,0,1-.11-.28h0a.39.39,0,0,1,.11-.39,6.75,6.75,0,0,1,.85-.74c.58-.45,1.21-.89,1.21-.89A1.52,1.52,0,0,1,148.91,22.54Zm-6.14,4.52-.17-.19,1-.29.42.64-.9-.06.5-.34Zm-2.4-.71a1,1,0,0,1,.71-.06,1.47,1.47,0,0,0,.81-.09l-.29.78a2.55,2.55,0,0,1-1.3-.43S140,26.52,140.36,26.34Zm-.17,1.77c-.47-.12-.52-.35-.52-.35a.3.3,0,0,1,.16-.29,1.13,1.13,0,0,1,.31-.15A1.82,1.82,0,0,1,140.19,28.11Zm1.35-2s-.1-.47-.49-.5c0,0,0-.17-.25-.29,0,0,.13-.14.86.15C141.66,25.48,142.4,25.91,141.54,26.12Zm.64-.27c-.15-.93-2.09-.75-2.09-.75l-.51-.48h0l-.08-.07-1.11-1a3.14,3.14,0,0,1-.33,1.11c-.15.34-.3.59-.3.59l-.44-.2a2.53,2.53,0,0,0,.2-.39h0a11.12,11.12,0,0,0,.56-2,2.05,2.05,0,0,1,.53.1,1,1,0,0,1,.18.08l.26.11.39.55a.38.38,0,0,0-.07.22.33.33,0,0,0,.29.35.26.26,0,0,0,.16-.06l.72.29a.36.36,0,0,0,.31.39.29.29,0,0,0,.24-.15l.59.08a.34.34,0,0,0,.31.28.36.36,0,0,0,.32-.35l.51-.23a.31.31,0,0,0,.25.15.38.38,0,0,0,.33-.41h0l.33-.5a9.09,9.09,0,0,0,1.75,0c1-.46,1.72-.75,1.72-.75a5.16,5.16,0,0,0-.73.58,4.63,4.63,0,0,0-.5.55.9.9,0,0,0-.36.8h0a1.28,1.28,0,0,0,.19.56,1.84,1.84,0,0,0,.42.32l.39.35a2.79,2.79,0,0,1-1,.41,1.46,1.46,0,0,1-.91-.09c-1.2-.29-1.62.26-1.62.26a1.13,1.13,0,0,1-.71.32l.22.32a.83.83,0,0,1-.71,0A2.75,2.75,0,0,1,142.18,25.85Zm-4.6-2.08h.08l-.07.16-.25.55-.26-.13.11-.06.18-.34-.37-.17-.06.41-.15-.24.06-.45,0,0Zm-.32-.93a.34.34,0,0,0,.22.15s.2.07.2-.32l.1,0a.43.43,0,0,1-.06.33s-.21.39-.56-.06C137.15,23,137.09,22.85,137.26,22.84Zm1.32,3.88,0,0a.54.54,0,0,1-.07.33.47.47,0,0,0-.4.18,1,1,0,0,0,0-.36v-.07l0,0a1.26,1.26,0,0,1,.47-.07v0l.25-.07,0-.11-.18.07a1.26,1.26,0,0,0-.07-.61h0a1.51,1.51,0,0,1,.39,1,.55.55,0,0,0-.36,0A.56.56,0,0,0,138.58,26.71Zm-.4-.54a.52.52,0,0,1,.22-.11h.07a.86.86,0,0,1,0,.54.43.43,0,0,0-.36,0A.72.72,0,0,0,138.18,26.17Zm0-.18a.8.8,0,0,0-.11-.4h0a1.54,1.54,0,0,1,.45.3A.63.63,0,0,0,138.15,26Zm-.65.29a.84.84,0,0,1,.36-.11.83.83,0,0,1,.14,0,.72.72,0,0,1,0,.54.75.75,0,0,0-.5.15A1.77,1.77,0,0,0,137.5,26.28ZM138,26a.66.66,0,0,0-.51.07l0-.11-.07-.29h0l.36-.07A.81.81,0,0,1,138,26Zm-.51-.43h0l-.46-.07a.6.6,0,0,1,.31-.11,2,2,0,0,1,.49.09Zm-.61,0,.53.07,0,.18,0,.33a.75.75,0,0,0-.29,0,.93.93,0,0,0,0-.47l-.07.07a1.65,1.65,0,0,1-.07.43h0a1.79,1.79,0,0,1,0-.23A.56.56,0,0,1,136.93,25.64Zm.53.68a1.25,1.25,0,0,1-.13.74,1.63,1.63,0,0,1-.37-.62A.58.58,0,0,1,137.46,26.32Zm0,.68a1.51,1.51,0,0,1,.5-.11,1.05,1.05,0,0,1-.08.55,1.85,1.85,0,0,1-.47-.32Zm.54.43a1.12,1.12,0,0,1,.47-.18v.3a1,1,0,0,1-.29,0l-.2-.07A.36.36,0,0,1,138,27.43Zm.58-.32a.73.73,0,0,1,.35,0,.52.52,0,0,1-.35.39ZM138,25.3a3,3,0,0,0,.34-.68,5.59,5.59,0,0,0,.22-.79l.15.17-.21.62v0l.15.14.08-.19.16-.36.17.2-.1.16-.19.29.2.16.29-.35.17.12-.39.41.19.21.21-.31.11-.16.22.17-.4.42.18.13.42-.35.12.12-.84.7-.16.14A1.92,1.92,0,0,0,138,25.3Zm5.11-1.71a.37.37,0,0,0-.33.41.49.49,0,0,0,0,.11l-.45.22A.35.35,0,0,0,142,24a.38.38,0,0,0-.33.41h0l-.51-.1a.46.46,0,0,0,0-.09.36.36,0,0,0-.31-.39.32.32,0,0,0-.28.23l-.64-.28a.4.4,0,0,0,0-.14.32.32,0,0,0-.29-.35l-.07,0-.16-.29-.05,0a17,17,0,0,0,2,.52h.76l.25-.38a3.19,3.19,0,0,0,1.15.31l-.2.31A.31.31,0,0,0,143.08,23.59Zm-7.89,3.57a.79.79,0,0,1,.32.17.25.25,0,0,1-.17.38,4.9,4.9,0,0,1-1.37-.64v-.52A2.6,2.6,0,0,0,135.19,27.16Zm-.71-.78.57-.84.17.17-.61.9Zm.29.29.57-.84a1.27,1.27,0,0,0,.86,0S135.68,27.24,134.77,26.66Zm4.85-7.7a3.22,3.22,0,0,0-.31,1l-.37-.44,0-.12a.38.38,0,0,0,.23-.37.42.42,0,0,0-.11-.28l.13-.25Zm-.83,2,0-.31a.38.38,0,0,0,.24-.37.41.41,0,0,0-.13-.3l0-.21.38.47a1.28,1.28,0,0,0,0,.78Zm0-1.37-.06.31h0a.36.36,0,0,0-.33.39.37.37,0,0,0,.28.38l0,.29h-.12l-.52-.06a4.6,4.6,0,0,0-.28-1.65,8.54,8.54,0,0,0-.58-1.33c.1-.1.28.11.52.4l.37.43.43.52Zm-.89,1.17h-.34l-.27-.17-.27.09-.18.1-.08-.41.1,0,.4-.1.31-.42.09-.16.15.4-.32.36Zm-.68-2.23h-.09l-.69.53.14.28.17.16-.24.1-.38-.74h.11l.73-.58.06-.13Zm8-.38L145,18l-.17-.2a4.44,4.44,0,0,0,.47-1.1A1.22,1.22,0,0,1,145.2,18.15Zm.49-1a4.29,4.29,0,0,0-.32-.84,3.61,3.61,0,0,0,.07-.75,1.16,1.16,0,0,1,.54.64A3.36,3.36,0,0,1,145.69,17.19Zm.39-1.22a1.18,1.18,0,0,0-.52-.58,1.93,1.93,0,0,1-.32-1.16A1.43,1.43,0,0,1,146.08,16Zm0-1.45a8.56,8.56,0,0,1-1-.69,2.55,2.55,0,0,0-.29-.75A1.81,1.81,0,0,1,146,14.53Zm-.64-1.36-.69-.29a5.3,5.3,0,0,0-.88-.73C144.78,11.92,145.4,13.17,145.4,13.17Zm-3.27-1a1.59,1.59,0,0,1-.27.55,2.36,2.36,0,0,0-.17-.84ZM139.48,11a.46.46,0,0,1-.22-.4s0-.2.4,0a1.3,1.3,0,0,1,.44.9Zm.79.52a3,3,0,0,0-.17-.64l.44.32.24.38a3.59,3.59,0,0,1,.1.43Zm.81.55a.91.91,0,0,0-.17-.61v-.09l.47.35a1.56,1.56,0,0,1,.27.9Zm-1,3.65s-.61,0-.61-.35c0,0,.15.09.42-.06l.19.19a1.14,1.14,0,0,0,.48-.16v.14A.76.76,0,0,1,140,15.68Zm2.83.09c1.15,0,1-1.36,1-1.36-.22-.49-.17.23-.17.23-.47,1.62-1.72.2-1.72.2s0,.23,0,.23c.07.17.12.15.12.15l.12.09-.88.34-.37.58h-.12l-.42-.4s.37-.26.27-.61c0,0,.24-.06-.22,0l-.2.09s-.17-.06-.2-.17l-.07-.42.31-.36.29,0a8.73,8.73,0,0,1,1.17-1.14l.13.17c-.17.36,0,.46,0,.46.27.18.38-.16.38-.16.29.15.17-.06.17-.06a1.5,1.5,0,0,1-.63-.49l.63-.53a1.27,1.27,0,0,1,.47-.58,2.68,2.68,0,0,1-.32-.75,1,1,0,0,1,1,.9c2.67,2.12,1,5.47,1,5.47A8.1,8.1,0,0,0,142,16.58,2.41,2.41,0,0,1,142.87,15.77Zm-2.19,1.68c.64-.17.17-.67.17-.67.22-.12.32-.06.32-.06.29-.15.42.23.42.23.22-.23.39-.09.39-.09-.52.49.1.67.1.67a.41.41,0,0,0,.39-.32.45.45,0,0,1-.17-.23.48.48,0,0,1,.27.17.2.2,0,0,1,.19-.22.32.32,0,0,1,.06.31.38.38,0,0,1,.32,0,.46.46,0,0,0,.12.67c.49.29.42-.52.42-.52a.29.29,0,0,1,.29.32l.22-.17a1.13,1.13,0,0,1,.07.35c.12-.17.34,0,.34,0-.56.35-.17.67-.17.67a.21.21,0,0,0,.29,0l0-.23.44.06-.43.53a7.75,7.75,0,0,0-4.11-1.22Zm-.81-.75c.49-.06.39.55.39.55-.42.52-.61,0-.61,0h0A.41.41,0,0,1,139.87,16.7ZM139.6,18a.3.3,0,0,0,0-.11l.06-.16c.64.48.86-.37.86-.37h.11l-.09.41a2.46,2.46,0,0,0-.66.9l-.42-.41A.27.27,0,0,0,139.6,18Zm-2.67-1.16s.46-.49,1.17.53l1,1.09-.12.29a.29.29,0,0,0-.13,0,.36.36,0,0,0-.33.39h0l-1.08-1.28s0-.23-.45-.14a1.66,1.66,0,0,0-.59-.67Zm-1,1.36.37-.8-.37.23,0-.29.33-.17.2.33-.57,1.16Zm0,.81a4.25,4.25,0,0,1,.64,2.11l-.25.46a4.88,4.88,0,0,0-.42-1.74Zm-.07-2.26-.1,4.47h-2.85l0-4.44Zm-3.17,0v4.47h-3l-.07-2-.09-2.49Zm-3.45,6A.34.34,0,0,0,129,23a5.14,5.14,0,0,1,.49-3.71l0,.7A5.12,5.12,0,0,0,129.26,22.75Zm-.13-3.27-.1.14,0,.12-.26-.11.12-.09a.33.33,0,0,0,.12-.29v0c-.05-.17-.15-.07-.2,0l0,0c-.42.41-.64,0-.64,0h0c-.15-.32.27-.68.27-.68l.25.17-.17.06c-.27.23-.1.38-.1.38a.14.14,0,0,0,.22-.09c.27-.38.47-.17.47-.17a.38.38,0,0,1,.19.33A.65.65,0,0,1,129.13,19.48Zm-.59,2.84h.12v.26h-.59l-.4-.28.63-.71h-.54l-.09.06v-.39l.11,0h.78l.11,0,0,.32-.63.68Zm.13-1.42-.1-.12-.78-.12-.1.06,0-.35v-.1l.12.11.75.11h.15ZM129,18c.1.46.47.41.47.41v.2a.6.6,0,0,1-.66-.38.61.61,0,0,1,.57-.84v.28C128.93,17.53,129,18,129,18Zm-3,1.23a1.78,1.78,0,0,0,.52.07l.12.09.14-.16c.27-.3.84-.93,1.06-1.14a13.37,13.37,0,0,0,1-1.77l.3-.49.07-.15a.25.25,0,0,1,.17.09s0,.23-.12.09a.68.68,0,0,0-.29.58.42.42,0,0,0,.32.32v.17a5,5,0,0,0-1.43,2.3c-.07.2-.13.42-.18.65A5.24,5.24,0,0,0,126.8,21l-1.18,0-.52-.49a4.58,4.58,0,0,0,.39-.64,2.89,2.89,0,0,0,0-.62,1.05,1.05,0,0,0,0-.13S125.7,19.15,125.93,19.2Zm1.48,3-.54-.4-.54-.41.61-.06a1.4,1.4,0,0,1,.51-.81A9.48,9.48,0,0,0,127.41,22.17Zm-5.91-11.3.27,0-.22-.26.49-.26,0,.38.2-.17.2.46-.27.06.17.14c.37.29.12.55.12.55l-.15.11c-.59.23-.39-.66-.39-.66l-.2.2Zm-.93,2.55a2.91,2.91,0,0,1,1.18-1.56l.15.15-.17.2.08.26-.42.35-.34-.17-.12.23-.13.57.22.5c.52.23.32-.38.32-.38-.15-.18-.32.2-.32.2-.29-.58.1-.55.1-.55a.65.65,0,0,1-.1-.46c.44.06.46.38.46.38,0-.61.49-.07.49-.07a.9.9,0,0,0-.39.21c0,.35.52.35.52.35.47-.23.39-.49.39-.49.07-.4-.39-.2-.39-.2l-.16-.38.26,0v-.14l-.24-.15.79-.38-.1.32,0,.09.2-.23.12.55c-.34-.06-.22.26-.22.26.47.49.71,0,.71,0,.2-.26,0-.35,0-.35-.27.09-.29.2-.29.2-.15-.73.25-.61.25-.61a1,1,0,0,1,0-.36l-.06.07-.42.06-.07-.2-.12,0,0-.17a2.06,2.06,0,0,1,1.91.43l0,1.39a10.51,10.51,0,0,0-3.34,1.45Zm.59,1.56s0,.06.24-.09a7.94,7.94,0,0,1,3.24-1.42.6.6,0,0,1,.27.91,2.22,2.22,0,0,0,.24.74l.1.38a5.38,5.38,0,0,1-.1.78,1.61,1.61,0,0,0,0,.58.64.64,0,0,1-.47-.38,1.9,1.9,0,0,1-.17,1.39,1.39,1.39,0,0,0-.27.81,1.49,1.49,0,0,0-.52-.38,2,2,0,0,1-1.13-1,.52.52,0,0,1-.25.35s0-.49-.25-.64a3.48,3.48,0,0,1-.44-.73,1.81,1.81,0,0,0,.24.84,2.43,2.43,0,0,1,.44.78s.15.06.27-.2a3,3,0,0,0,.42.64,3.15,3.15,0,0,1,1.28.69,1.92,1.92,0,0,1,.3-.67A3,3,0,0,0,125,17l.34.12a3,3,0,0,1,.08-1.15l.07.26a1.6,1.6,0,0,1,.12,1,2,2,0,0,0,0,1.16.73.73,0,0,1-.47-.32,2,2,0,0,1,0,1.11,1.61,1.61,0,0,1-.08.22,3.64,3.64,0,0,0-.2.81,1.35,1.35,0,0,1-.54-.72,2.28,2.28,0,0,1-.07.69.9.9,0,0,0-.54-.4,1.67,1.67,0,0,1-.81-.59,2,2,0,0,1-.37-.82.94.94,0,0,1-.34.55,3.12,3.12,0,0,0-.37-1.36,2.47,2.47,0,0,1-.29-1.67A.63.63,0,0,1,121.16,15ZM109.51,28.22h-.3V26.32c-.78-.17-.44-.49-.44-.49a1.1,1.1,0,0,1,.93-.32A6.25,6.25,0,0,0,109.51,28.22Zm1.86,1.46a.33.33,0,0,0-.34-.24c-.15-.4.22-.4.22-.4A1.07,1.07,0,0,1,111.37,29.68Zm.15-.67a.83.83,0,0,0-.91-.93c.81.32.64.81.64.81-.22,0-.42.32-.42.32a2.32,2.32,0,0,1-1-2.14,7.3,7.3,0,0,1,.46-2.47,1.2,1.2,0,0,1,.22-.37c.17-.09.25,0,.25,0a2,2,0,0,0,1.2,0c.27-.06.37-.64.37-.64a3.9,3.9,0,0,1,.83-1.74c-.47.23-3,.87-3,.87a2,2,0,0,0-1.47,1.3c-.78-.93.44-1.48.44-1.48a1.29,1.29,0,0,1-1-.74h0a2.36,2.36,0,0,1,.2-1.7,4.36,4.36,0,0,1,.82-1,3.84,3.84,0,0,1,1.34-.8,2.08,2.08,0,0,1,1.65-1,1.75,1.75,0,0,1-.37.52,3.09,3.09,0,0,0,1.2-.67,1.31,1.31,0,0,1-.76,1.14,31.15,31.15,0,0,0,6.35-.09A1.56,1.56,0,0,0,120,16.67c-.29-1.25-1.88-.52-1.88-.52-3.31,1.91-4.9-.64-4.9-.64a8.49,8.49,0,0,0,2.35.32,5.39,5.39,0,0,1-1.35-1.1,1.35,1.35,0,0,1,.74.29,3.65,3.65,0,0,0,1.79.35l-.76-.84a3.42,3.42,0,0,0,1.13.23c.34,0,.64.09.64.09a1.93,1.93,0,0,0,.88,0,2.15,2.15,0,0,1,2,1.82c.2,2.09-2.23,2.26-2.23,2.26a51.41,51.41,0,0,1-6.35.2,1.22,1.22,0,0,1,.16.1,1.42,1.42,0,0,1,.55.65,1.1,1.1,0,0,0,.25.43c-.57,0-1.13-.7-1.13-.7a5.82,5.82,0,0,0,.61.87c-.29.15-1-.67-1-.67a1.44,1.44,0,0,0-2,0c-1,.78-.79,1.42-.79,1.42a.92.92,0,0,0,.22.62h0a1.32,1.32,0,0,0,1,.33,6.82,6.82,0,0,0,1.85-.33,8.72,8.72,0,0,0,1.1-.42,1.38,1.38,0,0,1,.3,0,1.25,1.25,0,0,1,.78-.17,42.21,42.21,0,0,0,5.91-1.74,3.33,3.33,0,0,0,.54-.36,14.59,14.59,0,0,0,1.13-1,2.19,2.19,0,0,1,.58,1l0,.1a.37.37,0,0,0,.13-.1.56.56,0,0,0,.11-.22,1.16,1.16,0,0,0,.09.22,2.53,2.53,0,0,0,1.18,1,1.14,1.14,0,0,1,.54.35l.1-.29a19.45,19.45,0,0,0,2.26,1.64l.22.15c1,.69,2,1.31,2,1.31,1-1,1.59-.43,1.59-.43a.34.34,0,0,1-.29.12,1.08,1.08,0,0,0-.81.23c1.15-.18,1.35.2,1.35.2.24.58-.54.84-.54.84a.69.69,0,0,0-.74-.72.89.89,0,0,1,.52.78.53.53,0,0,1-.16.25.42.42,0,0,1-.49,0,1.13,1.13,0,0,1-.16-.11,2.41,2.41,0,0,1-.54-.38,6.19,6.19,0,0,1-2.14-.6,8.62,8.62,0,0,1-1.2-.67l-.88.38a4.14,4.14,0,0,1-1.11-1.35,3.6,3.6,0,0,1-.16-.33,1.13,1.13,0,0,0,0,.33,2.35,2.35,0,0,0,.4.88c-1.5,1.71-4.17.18-4.17.18a10.85,10.85,0,0,1-1.28-.61,4.76,4.76,0,0,0-4,2.28l-.11.18-.2.35c-.2,1.56-.7,1.56-.7,1.56a.68.68,0,0,0-.32-.87,12.37,12.37,0,0,1-1.4,0,1.84,1.84,0,0,0-.1,1.91c1.2,0,.69,1,.69,1A.45.45,0,0,1,111.52,29Zm16.41-3.16a.76.76,0,0,0-.42-.9l.16-.27.05-.09,0,0,.2,0v0a1.64,1.64,0,0,0,.36.82l0,.25,0,.45A.37.37,0,0,0,127.93,25.85Zm-1-1.25h-.3a1.2,1.2,0,0,0-.84-.69l0,.14a2.31,2.31,0,0,0-1-.38l0-.12.27-.09.3-.11a2.58,2.58,0,0,0,1,.51,14,14,0,0,0,1.37.39.5.5,0,0,0-.23.09h0a.45.45,0,0,0-.16.25Zm-.63.12-.2.38a1,1,0,0,0-.82.24,6.77,6.77,0,0,1-1.07-.74l0,0a3.86,3.86,0,0,0-.66-.35l.46.37h0c.27.23.44.41.44.41a4.74,4.74,0,0,0,.71.52h0a1.82,1.82,0,0,0,0,1.16s-.86,0-1.13-.52a.54.54,0,0,1,.29-.26s-.79-.29-1-.64c0,0,0-.08,0-.12s.11-.2.5.06l0-.15a2.49,2.49,0,0,1-.38-.47,1.54,1.54,0,0,1-.23-.57,1.63,1.63,0,0,1,1,.14.66.66,0,0,1-.17-.43,1.27,1.27,0,0,1,1,.64,1.12,1.12,0,0,1,0-.52,1.85,1.85,0,0,1,.84.52.66.66,0,0,1,0-.32,1.07,1.07,0,0,1,.43.54A.66.66,0,0,1,126.31,24.72Zm-.74,3.39-.44.49,0-.52,0-.41a1.74,1.74,0,0,0,.28.34A.32.32,0,0,0,125.57,28.11Zm-1.91-1.59,0-.35v-.26a.77.77,0,0,1,.29.52,1.46,1.46,0,0,0,.29.38l-.24,0-.22,0v-.26Zm-1.55.09a1.08,1.08,0,0,1,.29.38,3,3,0,0,1-.44,0A.34.34,0,0,1,122.11,26.61Zm-1-.81a.73.73,0,0,1,1.05-.2,1.17,1.17,0,0,1,.29.41.38.38,0,0,0-.36.23C121.88,25.77,121.13,25.79,121.13,25.79Zm1.08.62a.43.43,0,0,1,.37-.3.89.89,0,0,1,.22.78l-.24,0A.72.72,0,0,0,122.21,26.41Zm.49-.47s0-.38-.14-.46c0,0,.76-.06.91.9a.82.82,0,0,0-.46.09A1,1,0,0,0,122.7,25.94Zm.72.55a.55.55,0,0,1,.07.35l-.37,0,0-.29A.32.32,0,0,1,123.41,26.49Zm5.32-1.07-.22-.29.47-.35.22.14-.37.32S128.76,25.27,128.73,25.42Zm.17.32.17-.09.28-.32.15.23-.28.29a.54.54,0,0,0-.07.26ZM130,24.6v0a1,1,0,0,1,.11.7c-.12-.08-.12-.06-.11,0v0l-.26-.39A1.12,1.12,0,0,0,130,24.6Zm0,.88,0,0,0,0h0a1.58,1.58,0,0,0,.39.43.2.2,0,0,1-.2.26,3.05,3.05,0,0,1-.74-1c0-.26.12-.29.12-.29A1.62,1.62,0,0,0,130,25.47Zm.42.32a.56.56,0,0,1-.27-.35.57.57,0,0,0,.17-.4c.1.2.15.17.15.17l.12-.06a1.9,1.9,0,0,0,.2.31A.73.73,0,0,0,130.45,25.79Zm0-.9a.88.88,0,0,0-.1-.3,1.44,1.44,0,0,0-.1-.17l.32-.23a.66.66,0,0,1,0,.4A1.19,1.19,0,0,1,130.48,24.9Zm-19,2.78s.64-.67.93.29c0,0,0,.35-.25.12A.56.56,0,0,0,111.44,27.68Zm.78,1.74a.65.65,0,0,0-.32-.38.45.45,0,0,0,.17-.35C112.45,28.86,112.23,29.41,112.23,29.41Zm.2-.61c0-.26-.22-.26-.22-.26l0-.22a.21.21,0,0,0,.25-.07A.6.6,0,0,1,112.42,28.81Zm.22-.9c-.35-1.3-1.28-.43-1.28-.43a1.9,1.9,0,0,1,.12-1.42,5,5,0,0,0,1.2,0c.17,0,.12.12.12.12.12.64-.27.64-.27.64.29.23.37.12.37.12.54.09,1.05-1,1.05-1a2,2,0,0,1,1.13.41c.37.29,0,.41,0,.41a4.78,4.78,0,0,0-1.35.09c-.12.06-.07.26-.07.26a5.51,5.51,0,0,1,.1.93A4.82,4.82,0,0,0,112.64,27.91Zm11.6,1.3a45.87,45.87,0,0,1-8,.38h0c-.65,0-1-.06-1-.06-1.18-.2-1.23-.81-1.23-.81a1.83,1.83,0,0,0-.1-1.53c-.12-.12,0-.17,0-.17a6.24,6.24,0,0,0,2.17.47l0-.33a4,4,0,0,1-.61-.14l.17-.35c-.12-.9-1.5-1-1.5-1l.07-.41a3,3,0,0,0,.43-.64l.09-.2a1.39,1.39,0,0,0,.44.2,12.53,12.53,0,0,0,1.94.33,3.08,3.08,0,0,1-.32.28,2.06,2.06,0,0,1-.68.35,1.76,1.76,0,0,0-.12,1,2.24,2.24,0,0,0,.71.36l.32-.19a5.42,5.42,0,0,1-.67-.26.19.19,0,0,1-.09-.26V26a.15.15,0,0,1,.17-.2,2.55,2.55,0,0,0,1.28-.87c.08-.21,0-.29,0-.33a.28.28,0,0,0-.17,0,12.16,12.16,0,0,1-2.44-.48c.12-.52,1.16-1.08,1.16-1.08a10.91,10.91,0,0,1,1.3-.38,2.32,2.32,0,0,1,1.54,1l-.36.3.15.12a.43.43,0,0,1,.64,0,10,10,0,0,0,1.11.43.63.63,0,0,1-.11.11,1.88,1.88,0,0,1-1.31.21c0,.55-.61.93-.61.93a1.68,1.68,0,0,0,.44.24l.8-.1-.67-.19.3-.43a2.38,2.38,0,0,0,1.38-.64h0a2.46,2.46,0,0,0,.29-.31,1.84,1.84,0,0,1-1.77-1,6,6,0,0,0,1.22.52,3.26,3.26,0,0,0,3.32-.63l.44.26h-.24v.38a1.77,1.77,0,0,0-.81.12,1.43,1.43,0,0,0,.22.69h0a2.28,2.28,0,0,0,.25.36.44.44,0,0,0-.47.14l.12.43a1.45,1.45,0,0,0-.31-.22.76.76,0,0,0-.47-.1c-1.28-.26-1.57.58-1.57.58-.47-.09-.49.29-.49.29l-.59-.17-.14,0-.78.11a10.13,10.13,0,0,0,1.56.42c.61-.81,1.23-.23,1.23-.23a1.64,1.64,0,0,1,.32.29c-.34.14-.24.61-.24.61a20.71,20.71,0,0,1-2.62.14,12.41,12.41,0,0,1-2.23-.49l-.32.19c.35.13.68.21.68.21a3.26,3.26,0,0,1-1.3,0l0,.33c1.2.11,2.4.12,2.4.12a22.88,22.88,0,0,0,5.3-.45,2.27,2.27,0,0,0,.39-.07,6.2,6.2,0,0,0,.73-.25c.12-.06.07.23.07.23a3.49,3.49,0,0,0-.11.94,4,4,0,0,0,.06.68C124.84,29.24,124.25,29.21,124.25,29.21Zm1.82-.75s0,0-.07.2c0,0,0,.06-.07.41,0,0,.15.12-.44.43a2.57,2.57,0,0,0,.2-.52s-.12.35-1.05.43c0,0,.47-.17.52-.55l.59-.69.24,0S126.14,28.2,126.06,28.46Zm0-.41a.31.31,0,0,0-.1-.16.51.51,0,0,0-.29-.1.7.7,0,0,1-.49-.58.4.4,0,0,1,.12-.35c.17-.12,0-.29,0-.29a.8.8,0,0,1-.07-.75.75.75,0,0,1,.81-.55c.32.2.3-.09.3-.09a.59.59,0,0,1,.79-.2.92.92,0,0,0,.44.29c.24.29.1.46.1.46a.44.44,0,0,0,.07.32.43.43,0,0,1,.27.43,1.56,1.56,0,0,1,0,.6,3.75,3.75,0,0,1-.12.41.39.39,0,0,1-.44,0c-.17,0-.1.09-.1.09.17.29,0,.43,0,.43a.83.83,0,0,1-.69.26C126.14,28.31,126.11,28.05,126.11,28.05Zm.83,1.56c-.15-.32-.07-.46-.07-.46a.56.56,0,0,0-.08-.38,1,1,0,0,0-.07.78.93.93,0,0,1-.52-.61.83.83,0,0,1,.17-.49,1.81,1.81,0,0,0,.59.06C127.46,29,126.95,29.62,126.95,29.62Zm2.23-1.36a.42.42,0,0,1-.32-.12c.42.49,0,1.45,0,1.45a.9.9,0,0,1-.52-.67c.07.35-.07.46-.07.46-.32-.09-.47-.55-.47-.55,0,.44-.24.26-.24.26a.61.61,0,0,1-.12-.32c-.15,0-.25-.32-.25-.32a.63.63,0,0,0,.49-.64l.1-.05a1.33,1.33,0,0,1,.52.57c.15.06.34.4.34.4,0-.46-.25-.58-.25-.58a1.59,1.59,0,0,0-.39-.58,1.36,1.36,0,0,0,.27-.65c0-.1,0-.17,0-.17a.41.41,0,0,1,.27,0,1,1,0,0,1,.44.33.31.31,0,0,1-.27,0C129.3,27.39,129.18,28.26,129.18,28.26Zm2.26.35a1.28,1.28,0,0,0-.17-.38s-.27-.46-.17.17c0,0-.1.17.07.61a.71.71,0,0,1-.12.72s-.27.23-.47-.2c0,0,0-.17-.22-.2,0,0-.29.15-.59-.23a.39.39,0,0,1,.27-.59,1.27,1.27,0,0,0,.54-.25s.34-.38-.15-.29a.86.86,0,0,1-.61.29.43.43,0,0,1-.25-.67s.57.29.59-.23a3.82,3.82,0,0,0,.85.55l.1,0a2.51,2.51,0,0,0,.4.14l0,.58S131.51,28.84,131.44,28.6Zm1.23-.8a.18.18,0,1,1-.17-.23A.2.2,0,0,1,132.66,27.81Zm-2-2.82a2.07,2.07,0,0,0,.08-.38,1.14,1.14,0,0,0,0-.51s.26-.73-.16-.87c0,0,.1-.75-.91-.67V21.37h3l0,3.23,0,2.06A3.54,3.54,0,0,1,130.7,25ZM133,28.09c-.09,0-.16-.1-.16-.22s.07-.23.16-.23.16.1.16.23S133.13,28.09,133,28.09Zm-.1-1.41V24.62h0V21.37h2.85l0,1.56s-.33.94-.56,1.69h0a7.38,7.38,0,0,0-.22.82A2.76,2.76,0,0,1,132.95,26.68Zm2,2.76a3.53,3.53,0,0,1-1-.41v-.41a2.31,2.31,0,0,0,1,.49S135.09,29.38,134.92,29.44Zm.15-.93.2-.64c.59-.06.37-.69.37-.69.49-.15,1.05-1,1.05-1l.11.33.21.44c.1.2.18.3.15.3l-.31.27,0-.17-.59.55.22-1.16L135.9,28A2.56,2.56,0,0,1,135.07,28.52Zm5.59,1.13a1.52,1.52,0,0,1-1-.78l.22.67a1.32,1.32,0,0,1-.61-.55s-.61-.87-1.35-.49a3.27,3.27,0,0,1,.93.81.7.7,0,0,1-.42,0,3.69,3.69,0,0,1,.37.38,1.29,1.29,0,0,1-.81-.35,1.34,1.34,0,0,0-1.33-.35,1.12,1.12,0,0,1,.61.58s-1.57,0-2.06-.72l1-.52.2-.17.42-.18a2.09,2.09,0,0,1,.78.4l.07-.09a1.33,1.33,0,0,0-.76-.46l.47-.32a1.13,1.13,0,0,0,1.5.23s.46-.32.27-1.3h0l1.25-1v-.12s.47,0,.47.44c0,0,.37-.16.47.33,0,0-.88-.25-1.33.16l.07.81a1,1,0,0,0-.38.2.77.77,0,0,0-.28.49s0,.41.74.52l0,.7s.22.35.47.35C140.68,29.33,140.78,29.53,140.66,29.65Zm11.43-.46s0,.17-1.15.32c0,0-6.67.93-10.57-.58a6.58,6.58,0,0,0-.07-2s1.59.84,5.74.72c0,0,5.13-.12,6-.67a5.43,5.43,0,0,0,.39,1.59S152.51,29.15,152.09,29.18Zm.38-1.15-.31-1.19a.44.44,0,0,0-.64-.14.86.86,0,0,1-.71.1c-.42-.06,0-.33,0-.33a4.2,4.2,0,0,1,1.1-.52,3.28,3.28,0,0,0,1.18.12c.69-.09.54.46.54.46a8.73,8.73,0,0,1-.14,1.44A4.91,4.91,0,0,0,152.47,28Zm.53,1.19a2.46,2.46,0,0,0,.56-.95l.2.17-.53.91Zm.46.19.44-.9a1.26,1.26,0,0,0,.78-.06l.12.58A1.81,1.81,0,0,1,153.47,29.41Zm2.5-3.18s.61.14.44.64c0,0,0,.23-.61,0a2.66,2.66,0,0,1,.17,1.39,2.57,2.57,0,0,0-.51-.17,1.11,1.11,0,0,0-.76-1.3,1.27,1.27,0,0,0,0-.38.88.88,0,0,0,0-.44A3,3,0,0,1,156,26.23Zm.8-4.74a1.31,1.31,0,0,1-.82,1.06s.61.43-.1,1c0,0,.27-.64-.61-.84a3.49,3.49,0,0,1-1.18-.14,15.14,15.14,0,0,1-1.87-.41,16.16,16.16,0,0,1,.15,2.14s0,.14,0,.3h0v.17a2.55,2.55,0,0,0,1.66.07l.37.41v.23a8.77,8.77,0,0,0,.13,1.35.65.65,0,0,0,.23.07A1,1,0,0,1,155,28.4a.83.83,0,0,0-.39-.75s-.07,0,0,.09a.47.47,0,0,1,.09.4s0,.15-.13.17-.71.2-.83-.17a2.2,2.2,0,0,0,.2-.93s.07-1.13-.34-1.36c0,0-.07-.12-.47-.09a3.24,3.24,0,0,1-2.42-.87,1.51,1.51,0,0,1-.25-.28h0a2.09,2.09,0,0,1-.37-.94,1.17,1.17,0,0,0-.91-1.33l-.14-.29a.53.53,0,0,0,.16-.26.52.52,0,0,0,0-.3c0-.14-.14-.28-.45-.33l-.15-.23a24.86,24.86,0,0,1,3,.57,2.52,2.52,0,0,1,.42.16,3.05,3.05,0,0,1,1.15.17,5.35,5.35,0,0,0,2.43.29,1.58,1.58,0,0,0,.7-.62,1.36,1.36,0,0,0-.19-1.46.72.72,0,0,1-.42.35,1.43,1.43,0,0,1-1.15-.23,1,1,0,0,1,.81-.23s.17,0,0-.09a1.8,1.8,0,0,0-1.62.57s.32-1.17,1.32-1.06c0,0,.14,0,.06-.12l-.06,0a4.4,4.4,0,0,0-2.14,0l-.72.09a20.89,20.89,0,0,1-3.3.12s-.21,0-.49-.12c-.6-.17-1.58-.56-1.75-1.33,0,0-.42-1.13,1-2.29a3.89,3.89,0,0,1,3-.55s0,.26-.71.49a1,1,0,0,0,.46,0,3.49,3.49,0,0,0,1.52-.32,3.72,3.72,0,0,1,1.28-.67,1.8,1.8,0,0,0-.44.55s0,.4-.93.78a4.54,4.54,0,0,0,1.91-.49,2.06,2.06,0,0,0,1.23-.32,2.29,2.29,0,0,1-1.13,1.27,7.39,7.39,0,0,1-3.46.09,7,7,0,0,0-1.67-.29,1.81,1.81,0,0,0-1.67,1,1.18,1.18,0,0,0,.69,1.53,4.3,4.3,0,0,0,3,.2,21.8,21.8,0,0,1,4.29-.49s-1-.67-.61-1.3a1.68,1.68,0,0,0,.52.46,1,1,0,0,1,.49.72s.22.17.15,0a2,2,0,0,1-.17-.64s.87.2.9,1.56c0,0,0,.07,0,.12a1.31,1.31,0,0,1,.49.64A4.43,4.43,0,0,1,156.76,21.49Z"/><line class="cls-3" x1="132.73" y1="8.65" x2="132.73" y2="8.44"/><line class="cls-3" x1="132.74" y1="10.21" x2="132.73" y2="9.98"/><line class="cls-3" x1="132.75" y1="15.65" x2="132.75" y2="15.45"/><line class="cls-3" x1="132.75" y1="16.15" x2="132.75" y2="16.61"/><line class="cls-3" x1="132.74" y1="10.94" x2="132.74" y2="10.76"/><line class="cls-3" x1="132.74" y1="11.86" x2="132.74" y2="11.64"/><path class="cls-2" d="M122.7,15.31s.07-.32.27.09a.71.71,0,0,0,.17.46,1.08,1.08,0,0,0,.32,0,.75.75,0,0,1-.05.43s-.39.32-.76-.35c0,0,0,.81,1.23,1.48a1.14,1.14,0,0,0,.29-.84.3.3,0,0,0,.1-.46s.2-.14,0-.64a.77.77,0,0,1-.37.64.39.39,0,0,1-.38-.28.38.38,0,0,0,.29-.22s.2,0-.05-.44a.37.37,0,0,1,.2-.4.61.61,0,0,0,.37-.67.5.5,0,0,1-.42.23s-.37,0-.37.52l.12.38s.19.17.07.35a.62.62,0,0,1-.26.12c0-.07,0,0,0,0a.8.8,0,0,1-.23,0,1,1,0,0,1-.1-.43s-.1-.55-.59-.35c0,0-.2.23-.66.09A.51.51,0,0,0,122.7,15.31Zm.86.9a.64.64,0,0,0,.44.09,1.28,1.28,0,0,1-.15.78,1.34,1.34,0,0,1-.64-.52S123.47,16.61,123.56,16.21Z"/><path class="cls-2" d="M124.22,27.58l-.8.09h-.08v0l0,.26a.47.47,0,0,1,.31-.14l0,1,0,.06.4,0L124,28.8l0-1a.35.35,0,0,1,.33,0l0-.28Z"/><path class="cls-2" d="M117.21,27.94l-.54,0a.35.35,0,0,1,.12.24v1a.44.44,0,0,1-.16.17l.56,0a1.56,1.56,0,0,0-.12-.18v-.95S117,28,117.21,27.94Z"/><path class="cls-2" d="M118.79,28.26l0-.26h-1a.55.55,0,0,1,.15.16l0,1.08a.36.36,0,0,1-.14.06s0,0,0,0h.2l.77,0,0-.27a.51.51,0,0,1-.27.09.6.6,0,0,1-.22,0v-.4h.14l.16,0,0-.31-.21.08h-.12v-.4h.22A.56.56,0,0,1,118.79,28.26Z"/><path class="cls-2" d="M116.07,28.28h0A1.29,1.29,0,0,0,116,28s-.23-.31-1-.27l.1.16,0,1-.1.09a1.11,1.11,0,0,0,.67.09.72.72,0,0,0,.5-.46h0A.68.68,0,0,0,116.07,28.28Zm-.28.38a.4.4,0,0,1-.45.28l0-1a.45.45,0,0,1,.37.27A.57.57,0,0,1,115.79,28.66Z"/><path class="cls-2" d="M120.16,28a.34.34,0,0,0,0,.07v.69s0,.33-.2.35c0,0-.22,0-.23-.24v-.7a.54.54,0,0,1,.07-.17h-.53s.12,0,.13.12v.7a.54.54,0,0,0,1.07.05v-.75a.12.12,0,0,1,0-.11Z"/><path class="cls-2" d="M122.79,28l-.09-.24-.83.08s.13,0,.14.09L122,29a.25.25,0,0,1-.09.07l.81-.09v-.26s-.1.11-.18.12h-.24v-.38h.21a.2.2,0,0,1,.12,0v-.32l-.13.07h-.21V28h.21A.72.72,0,0,1,122.79,28Z"/><path class="cls-2" d="M127.34,26s.27-.41-.12-.41c0,0-.17.06-.27-.17,0,0-.42-.38-.42.2,0,0,0,.23.32.7A.91.91,0,0,0,127.34,26Z"/><path class="cls-2" d="M125.87,26.6a.82.82,0,0,0,.54-.17c.17,0,.07-.29.07-.29,0-.67-.42-.64-.42-.64a.26.26,0,0,0-.22.26c.07.35-.07.35-.07.35-.29.06-.1.4-.1.4S125.87,26.6,125.87,26.6Z"/><path class="cls-2" d="M126.31,26.9a.6.6,0,0,0-.56-.12s-.22,0-.1.43a.22.22,0,0,1,.17.23s0,.2.32.17A.66.66,0,0,0,126.31,26.9Z"/><path class="cls-2" d="M126.9,27.85s.12.09.29-.14c0,0,0,0,0-.11a.56.56,0,0,0-.51-.53s-.4.11-.3.76c0,0,0,.05,0,.08s.24.2.24-.12l0,0,.1,0A.25.25,0,0,1,126.9,27.85Z"/><path class="cls-2" d="M127,26.69c.07.35.54.61.54.61.27,0,.15-.35.15-.35-.15-.17,0-.26,0-.26.32-.09.1-.38.1-.38C127,26.14,127,26.69,127,26.69Z"/><line class="cls-4" x1="130.04" y1="25.27" x2="130.03" y2="25.26"/><line class="cls-4" x1="132.75" y1="15.65" x2="132.75" y2="16.15"/><line class="cls-4" x1="132.74" y1="10.21" x2="132.74" y2="10.76"/><line class="cls-4" x1="132.73" y1="8.65" x2="132.73" y2="9.98"/><line class="cls-4" x1="132.74" y1="10.94" x2="132.74" y2="11.64"/><line class="cls-4" x1="132.75" y1="15.45" x2="132.75" y2="15.27"/><line class="cls-4" x1="132.74" y1="11.86" x2="132.75" y2="14.58"/><line class="cls-4" x1="132.75" y1="14.58" x2="132.75" y2="15.27"/><polygon class="cls-2" points="142.09 27.81 142.12 27.71 141.8 27.65 141.38 28.27 141.16 27.51 140.77 27.42 140.79 27.59 140.76 28.62 140.72 28.69 141 28.81 140.97 28.66 140.98 28.14 141.3 28.88 141.76 28.29 141.75 28.88 141.68 28.98 142.16 29.07 142.11 28.91 142.09 27.81"/><path class="cls-2" d="M143.38,27.94c-.5-.29-.77,0-.77,0a.82.82,0,0,0,0,1.17c.34.3.82,0,.82,0A.84.84,0,0,0,143.38,27.94Zm-.22,1a.19.19,0,0,1-.34,0s-.39-.63.18-.91c0,0,.17-.06.26.22A.72.72,0,0,1,143.16,28.94Z"/><polygon class="cls-2" points="144.57 27.95 144.62 28.04 144.63 28.53 144.19 27.92 143.91 27.89 144 28.04 143.99 29.05 143.96 29.24 144.3 29.27 144.27 29.11 144.27 28.65 144.74 29.36 144.98 29.37 144.96 29.26 144.95 28.07 145.01 27.98 144.57 27.95"/><path class="cls-2" d="M146.58,28h-.48l.1.12,0,1.17-.12.1.39,0a.67.67,0,0,0,.7-.73S147.11,28,146.58,28Zm-.06,1.27V28.15s.23,0,.34.43A.61.61,0,0,1,146.52,29.26Z"/><path class="cls-2" d="M148.57,29.11l-.31-.48a.47.47,0,0,0,0-.72.9.9,0,0,0-.62,0l-.18,0,.11.07v1.22l0,.09h.37l0-.09v-.54H148a1,1,0,0,0,.39.49s.09.09.27,0A.28.28,0,0,0,148.57,29.11Zm-.47-.58c-.06.1-.22.06-.22.06v-.54c.15-.15.26,0,.26,0A.36.36,0,0,1,148.1,28.53Z"/><path class="cls-2" d="M149.41,27.75s-.55-.1-.66.73c0,0,0,.71.63.8a.72.72,0,0,0,.69-.71S150.08,27.71,149.41,27.75Zm0,1.34c-.18,0-.25-.19-.25-.19-.21-.67.07-.87.07-.87a.22.22,0,0,1,.16-.08c.34,0,.33.54.33.54A.54.54,0,0,1,149.4,29.09Z"/><polygon class="cls-2" points="150.68 27.8 150.78 27.65 150.26 27.69 150.39 27.81 150.42 29.05 150.37 29.14 150.8 29.08 150.72 29.01 150.68 27.8"/><polygon class="cls-2" points="151.92 27.42 151.83 27.46 151.21 27.59 151.1 27.61 151.13 27.95 151.23 27.83 151.41 27.79 151.41 28.91 151.38 29.01 151.74 28.97 151.7 28.85 151.69 27.72 151.94 27.7 151.92 27.42"/><path class="cls-2" d="M51.06,23.32A.39.39,0,0,1,50.9,23V14.29a.53.53,0,0,1,.24-.47c.19-.14,1.07-.85,1.24-1s.32-.53-.18-.83-7.53-4-7.86-4.16a1.71,1.71,0,0,0-1.17,0,25.42,25.42,0,0,0-11.9,8,10.07,10.07,0,0,0-1.79,8.14c.49,2.17,1.74,4.9,6.92,5.87a1.09,1.09,0,0,0,.68-.16l4.26-3.43a.45.45,0,0,1,.59-.06c.17.09,5.8,2.81,7.31,3.54a.61.61,0,0,0,.66,0c1-.76,4.16-3.24,4.38-3.44s.24-.56-.12-.83S51.68,23.73,51.06,23.32ZM42.34,24.7a.29.29,0,0,1-.08.2,1.46,1.46,0,0,1-1.75.2A9.9,9.9,0,0,1,36,20.9a7.79,7.79,0,0,1-.75-5.23,5.69,5.69,0,0,1,2.88-3.61.62.62,0,0,1,.55,0c.8.54,3.24,2.16,3.4,2.28a.68.68,0,0,1,.3.54Z"/><path class="cls-2" d="M23.69.3H7.48a1.51,1.51,0,0,0-.89.31L.35,5.38c-.21.16-.37.29-.35.47a.29.29,0,0,0,.29.24h14V23.45A11.68,11.68,0,0,0,3,29.23c-.18.3-.18.65.3.59,3.93-.46,10.52-1.13,15.26.07a.62.62,0,0,0,.58-.21,14.34,14.34,0,0,1,8.58-6,.57.57,0,0,0,.38-.5V5.56C28.07,3.08,27.52.3,23.69.3ZM20,24.52c0,.19-.1.25-.28.17a18.15,18.15,0,0,0-4.93-1.2V17.27a3.48,3.48,0,0,1,2.63-1.56A3.93,3.93,0,0,1,20,17.12Zm0-8.22a3.89,3.89,0,0,0-2.57-1.17,3.62,3.62,0,0,0-2.63,1.24V12.7a3.51,3.51,0,0,0,2.48,1.53A3.85,3.85,0,0,0,20,13.14Zm0-4a3.74,3.74,0,0,1-2.67,1.34,3.48,3.48,0,0,1-2.52-2V6.09h4.56c.61,0,.63,0,.63.55Z"/><path class="cls-2" d="M67.23,25.75l-2.4-1.36c-.24-.14-.24-.42-.24-.66v-9.1c0-.34.09-.45.41-.68s.81-.58,1.13-.83.4-.43.06-.65S59.92,9,59.37,8.72s-.77-.25-1-.09-4.58,3.09-4.9,3.3a.47.47,0,0,0-.06.77c.21.15,2.2,1.26,2.48,1.42s.35.3.35.47v10.1l-1.06.82c-.5.39-.24.74-.12.83s5.31,2.68,6.69,3.37a.59.59,0,0,0,.62,0c1-.72,4.61-3.2,4.89-3.41S67.44,25.87,67.23,25.75Z"/><path class="cls-2" d="M10.13,17.19V7.27c0-.42-.2-.89-1.06-.41S3.16,10,3,10.08a.57.57,0,0,0-.29.56V22.3a6,6,0,0,1-1.17,3.44c-.21.29-.53.54-.24.77s.43.12.85,0C6.84,24.7,10.13,21,10.13,17.19Z"/><path class="cls-2" d="M61.64,7.3a7.88,7.88,0,0,0,2-1.91,3.57,3.57,0,0,0,.71-3.55A2.64,2.64,0,0,0,61.23.5a3.94,3.94,0,0,0-2.48,2.81,6.07,6.07,0,0,0,.83,4.13C60,8.07,60.65,8,61.64,7.3Z"/><path class="cls-2" d="M105.61,11.51c-.2-.12-5.89-3.52-6.16-3.66a1,1,0,0,0-1.18,0c-.28.18-3.89,2.78-4.11,2.94a.52.52,0,0,0,0,.86c.28.21,1.83,1,2,1.13a1,1,0,0,1,.47.92V25.57a1.17,1.17,0,0,1-.77,1.06,4.23,4.23,0,0,1-4.41-.71,1,1,0,0,1-.31-.77V13.8a1.51,1.51,0,0,1,.47-1l.57-.48c.34-.31.78-.6,0-1.11-.2-.12-5.57-3-5.84-3.19A1,1,0,0,0,85.1,8c-.27.18-4.13,2.71-4.35,2.88a.52.52,0,0,0,0,.86c.28.21,1.83,1,2,1.13a1,1,0,0,1,.47.92V26.55a.86.86,0,0,1-.27.71,7.38,7.38,0,0,0-2.32,4.24,5.5,5.5,0,0,0,2.75,6.29c3.4,2.15,8.29,1.25,10.32.42s3.62-1.84,5.45-2.06,2.66,1.15,1.47,2.64S97,40.23,96.73,40.23s-.92.06,0,.42c2,.8,4.81-.18,6.57-1.89s2.37-5.45-.61-7.37-6.54-1-8.24-.45-4.65,2-7.43,2-5.55-2.08-3.42-4.64c2-2.35,5.65-2.07,7.18-1.18a13.74,13.74,0,0,0,7.6,2.36c3.78,0,5.77-2.2,5.77-3.48V14.72a1.64,1.64,0,0,1,.48-1l1.06-1C105.95,12.32,106.27,11.89,105.61,11.51Z"/><path class="cls-2" d="M80.3,26,78,24.67c-.24-.14-.24-.42-.24-.66V1.63c0-.32-.38-.47-.89-.32S68.4,3.92,68.17,4a.29.29,0,0,0-.19.31c0,.18.23.26.55.36.5.16,1.18.39,1.18,2.21V24.33a.59.59,0,0,1-.22.47l-.84.65c-.5.39-.24.74-.12.83s5.21,2.63,6.65,3.36a.7.7,0,0,0,.72,0c1-.71,4.13-2.82,4.41-3S80.52,26.16,80.3,26Z"/><path class="cls-2" d="M249.82,26l-2.33-1.37c-.23-.14-.23-.42-.23-.66V1.58c0-.33-.38-.47-.89-.32S237.92,3.87,237.69,4a.29.29,0,0,0-.18.31c0,.18.23.26.54.36.5.17,1.18.39,1.18,2.22V24.28a.58.58,0,0,1-.22.47l-.84.65c-.5.39-.24.74-.12.83s5.21,2.63,6.65,3.35a.7.7,0,0,0,.72,0c1-.71,4.13-2.82,4.41-3S250,26.12,249.82,26Z"/><path class="cls-2" d="M198.08,25.68a3.86,3.86,0,0,1-2.17-3.19V4.43a.51.51,0,0,0-.3-.47c-.26-.14-6.53-3.83-6.67-3.9s-.37-.1-.83.18l-5.45,3.41a.43.43,0,0,1-.45,0l-5.43-3a.67.67,0,0,0-.67,0c-.18.08-5.77,3.1-6.83,3.67a.33.33,0,0,1-.33,0l-4.8-2.8a.65.65,0,0,0-.67,0c-.27.16-5,3.17-5.13,3.29a.51.51,0,0,0-.24.49c0,.17.28.37.55.57L162.1,8.2a.78.78,0,0,1,.34.73V24.55l-2,1.13c-.14.09-.62.39-.06.71.29.16,5,2.61,6.47,3.37a.86.86,0,0,0,.81,0L172.6,27c.23-.14.5-.42.06-.71l-1.23-.77V18.43h3.71V24L173.42,25c-.12.07-.43.42.18.77L181,29.73a.91.91,0,0,0,.91,0l4.9-3c.16-.1.22-.15.25-.27s-.08-.22-.24-.32l-2.37-1.54V18.19l3.35-5c.08-.11.08-.31-.14-.31h-3.21V5.18l3.36,1.74a1,1,0,0,1,.53.93V24.29c0,1.11.55,4,4.46,5.55a.93.93,0,0,0,.69-.08l4.7-3.35C198.39,26.28,198.55,26,198.08,25.68Zm-27.2-.46-.7-.44a.6.6,0,0,1-.3-.59V5.9a.85.85,0,0,1,1-.7Zm4.26-12.39h-.33a.58.58,0,0,0-.47.25l-2.91,4.38V5.38l3.24,1.7a.75.75,0,0,1,.47.73Zm8.79,11.37-.35-.22a.86.86,0,0,1-.47-.71V18.43h.82Zm0-11.37h-.82V5.27c0-.28.08-.68.82-.36Z"/><path class="cls-2" d="M231.17,7.25a7.87,7.87,0,0,0,2-1.91,3.56,3.56,0,0,0,.71-3.55A2.64,2.64,0,0,0,230.76.45a3.94,3.94,0,0,0-2.48,2.81,6.08,6.08,0,0,0,.83,4.13C229.53,8,230.17,7.92,231.17,7.25Z"/><path class="cls-2" d="M220.58,23.27a.39.39,0,0,1-.16-.33V14.25a.53.53,0,0,1,.23-.47c.19-.15,1.07-.85,1.24-1s.32-.53-.18-.83-7.52-4-7.86-4.16a1.71,1.71,0,0,0-1.17,0,25.41,25.41,0,0,0-11.89,8A10.06,10.06,0,0,0,199,23.89c.49,2.17,1.74,4.9,6.92,5.88a1.09,1.09,0,0,0,.68-.16l4.26-3.43a.45.45,0,0,1,.59-.06l7.31,3.54a.61.61,0,0,0,.65,0c1-.76,4.16-3.24,4.38-3.44s.24-.56-.12-.83S221.21,23.69,220.58,23.27Zm-8.72,1.38a.3.3,0,0,1-.08.2,1.46,1.46,0,0,1-1.75.2,9.91,9.91,0,0,1-4.56-4.2,7.79,7.79,0,0,1-.74-5.23A5.7,5.7,0,0,1,207.61,12a.63.63,0,0,1,.55,0c.8.54,3.24,2.16,3.4,2.28a.68.68,0,0,1,.3.54Z"/><path class="cls-2" d="M236.75,25.7l-2.39-1.36c-.24-.14-.24-.42-.24-.66v-9.1c0-.34.09-.45.41-.68s.81-.58,1.13-.83.4-.43.06-.65S229.44,9,228.89,8.67s-.77-.25-1-.09-4.58,3.09-4.9,3.31a.47.47,0,0,0-.06.77c.2.15,2.2,1.26,2.48,1.42s.35.3.35.47v9.63a.81.81,0,0,1-.2.62l-.86.67c-.5.39-.24.74-.12.83s5.31,2.68,6.69,3.38a.6.6,0,0,0,.62,0c1-.72,4.6-3.2,4.89-3.41S237,25.83,236.75,25.7Z"/></svg>