<svg id="Layer_1" data-name="Layer 1" xmlns="http://www.w3.org/2000/svg" viewBox="0 0 341.95 45.43"><defs><style>.cls-1{fill:#99A2BF;}</style></defs><title>the-memo-logo</title><path class="cls-1" d="M22.68,0A22.67,22.67,0,1,0,45.34,23.4,22.59,22.59,0,0,0,22.68,0Zm10,34.92c0,1.08-.14,1.21-1.23,1.21H29.16c-.91,0-1.1-.18-1.1-1.1V20.53s-.22.12-.31.68q-1.54,7-3.07,14c-.17.78-.35.92-1.16.92-.36,0-.71,0-1.06,0a.91.91,0,0,1-1.07-.83c-.55-2.6-1.14-5.19-1.71-7.79L18.27,21a.86.86,0,0,0-.3-.51v1.32q0,6.6,0,13.2c0,.94-.15,1.09-1.09,1.09s-1.69,0-2.53,0c-.68,0-.87-.21-.88-.89v-25c0-.69.19-.87.88-.88h4c.82,0,1,.11,1.15.94.64,2.86,1.27,5.73,1.91,8.6.54,2.44,1.09,4.88,1.63,7.33l.08,0q1.18-5.34,2.38-10.66c.39-1.78.79-3.56,1.18-5.34.17-.76.34-.9,1.12-.9h3.83c.87,0,1,.15,1,1Z"/><path class="cls-1" d="M22.68,0A22.67,22.67,0,1,0,45.34,23.4,22.59,22.59,0,0,0,22.68,0Zm10,34.92c0,1.08-.14,1.21-1.23,1.21H29.16c-.91,0-1.1-.18-1.1-1.1V20.53s-.22.12-.31.68q-1.54,7-3.07,14c-.17.78-.35.92-1.16.92-.36,0-.71,0-1.06,0a.91.91,0,0,1-1.07-.83c-.55-2.6-1.14-5.19-1.71-7.79L18.27,21a.86.86,0,0,0-.3-.51v1.32q0,6.6,0,13.2c0,.94-.15,1.09-1.09,1.09s-1.69,0-2.53,0c-.68,0-.87-.21-.88-.89v-25c0-.69.19-.87.88-.88h4c.82,0,1,.11,1.15.94.64,2.86,1.27,5.73,1.91,8.6.54,2.44,1.09,4.88,1.63,7.33l.08,0q1.18-5.34,2.38-10.66c.39-1.78.79-3.56,1.18-5.34.17-.76.34-.9,1.12-.9h3.83c.87,0,1,.15,1,1Z"/><path class="cls-1" d="M84.14,12.47q0,.79-.73.79t-1-1.57l-.24-2.18a10.52,10.52,0,0,0-1.39-3.69,6,6,0,0,0-4.17-2.54,13.12,13.12,0,0,0-3-.3q-2.84.08-3.45.12V39.61q0,2.18,1.15,2.72a11.08,11.08,0,0,0,3.39.36q.73.06.73.51t-1,.51a5.23,5.23,0,0,1-.85-.06q-3.63-.12-5.14-.12-2,0-3.75.09t-4.47.09q-1.39,0-1.39-.48t2.6-.61q1.87,0,2.42-.79a6,6,0,0,0,.3-2.48V3.1q-6,.06-7.44.6-3.81,1.39-4.47,7.44Q52,13,51.38,13t-.73-1.27c0-.44,0-.89.06-1.33L50.83,9q.18-2.78.54-7.31H54.1l12.33.18q2.18.06,6.77,0l10-.18q.12,3.39.79,10a2.15,2.15,0,0,0,.06.45A2.52,2.52,0,0,1,84.14,12.47Z"/><path class="cls-1" d="M126.34,43.12q0,.54-1.14.54H112.06q-1.2,0-1.2-.48t2.81-.66c1-.08,1.57-.25,1.73-.51a8.53,8.53,0,0,0,.24-2.8V21.6H97.44V38.7q0,2.72.42,3.2t2.84.67q1.57.12,1.57.54t-1.21.54H87.95q-1.21,0-1.21-.48t1.21-.6l1.63-.12a2.4,2.4,0,0,0,1.69-.6,14.52,14.52,0,0,0,.18-3.38V6.6a10,10,0,0,0-.27-3.2q-.27-.48-1.9-.54-1.87-.13-2.21-.19c-.22,0-.33-.21-.33-.51s.26-.51.79-.51l1,.06q1.51.12,7.13.12,3.08,0,4.29-.09a5.33,5.33,0,0,1,1.09-.09q1.09,0,1.09.61t-2,.55q-2,0-2.36.46t-.39,2.88V20.09h18.2V7q0-3.21-.48-3.79t-3.38-.52q-.91,0-.91-.55t1-.55h13.18q1.27,0,1.27.54t-2.66.6a4,4,0,0,0-1.15.12,1,1,0,0,0-.76.67,14.44,14.44,0,0,0-.15,2.84V38.58a10,10,0,0,0,.3,3.39q.6.67,3.46.67C126,42.55,126.34,42.71,126.34,43.12Z"/><path class="cls-1" d="M162.06,33.93q0,.24-.12,3t-.12,5.2v2q-5.93-.36-23.45-.36h-7.56c-.77,0-1.15-.16-1.15-.49s.12-.34.36-.38l2.3-.16q1.57-.12,1.9-.67a7.13,7.13,0,0,0,.33-2.85V5.1q0-1.76-.51-2.09a8.8,8.8,0,0,0-3.29-.33q-1,0-1-.51c0-.34.44-.51,1.33-.51h25.63a21.12,21.12,0,0,0,3.32-.24q.12,2.6.54,7.19l.24,2.6a4.25,4.25,0,0,1,.06.79q0,.6-.54.6t-1-1.52q-1.15-5.47-3.75-6.94Q153.72,3,145.5,3h-5V20.81H142q6.77,0,8.25-1t2-6q.12-1.27.67-1.27t.67,1.09q0,1.09-.12,3.2t-.12,3.2q0,6.47.19,8.89,0,.6,0,1c0,.52-.22.79-.66.79q-.42,0-.57-.51t-.51-3.35q-.48-3.57-2.95-4.41a25,25,0,0,0-5.66-.36h-2.71V42.33q13.3,0,15.6-.54,4-.9,4.53-7.64.12-1.49.79-1.49T162.06,33.93Z"/><path class="cls-1" d="M219.67,43.27q0,.51-1.26.51H203.34q-1.26,0-1.26-.54t1.75-.61q3.08,0,3.75-.67.3-.3.3-4.06V6.54s-.24.75-.73,2.12q-2.43,7.31-7,22l-2.81,9.62q-.85,2.84-1.21,2.84t-.91-1.45q-1.75-5.5-9.87-27.46l-2.4-6.45q0,1.15,0,3.14V30.54q0,11.06.18,11.18.42.79,2.9.79,2,0,2,.6t-1.27.67a8.17,8.17,0,0,1-1.45-.12,10.9,10.9,0,0,0-1.51-.12l-7,.24q-1.09,0-1.09-.54t3.45-.67q1.45,0,1.69-.48a10.92,10.92,0,0,0,.24-3.15v-29q0-5-.12-5.45a1.64,1.64,0,0,0-1-1.15,14.5,14.5,0,0,0-3.38-.49q-1-.06-1-.54,0-.66,1.77-.67h4.22q3.61,0,5.08,0,.3.79,3.51,9.51,1.38,3.63,7.73,21.17,1.14-3.94,2.34-7.75l6.46-20q.6-1.72,1.06-2.86l9-.06a7.19,7.19,0,0,1,2.27.18.6.6,0,0,1,.3.54q0,.61-1,.61a14,14,0,0,0-2.3.12,3,3,0,0,0-2,1q-.3.42-.3,7.09V39.36q0,2.43.48,2.85.79.55,3.93.55h.36C219.26,42.75,219.67,42.93,219.67,43.27Z"/><path class="cls-1" d="M254.12,33.93q0,.24-.12,3t-.12,5.2v2q-5.93-.36-23.45-.36h-7.56c-.77,0-1.15-.16-1.15-.49s.12-.34.36-.38l2.3-.16q1.57-.12,1.9-.67a7.13,7.13,0,0,0,.33-2.85V5.1q0-1.76-.51-2.09a8.8,8.8,0,0,0-3.29-.33q-1,0-1-.51c0-.34.44-.51,1.33-.51H248.8a21.12,21.12,0,0,0,3.32-.24q.12,2.6.54,7.19l.24,2.6A4.25,4.25,0,0,1,253,12q0,.6-.54.6t-1-1.52q-1.15-5.47-3.75-6.94Q245.78,3,237.56,3h-5V20.81h1.45q6.77,0,8.25-1t2-6q.12-1.27.67-1.27t.67,1.09q0,1.09-.12,3.2t-.12,3.2q0,6.47.19,8.89,0,.6,0,1c0,.52-.22.79-.66.79q-.42,0-.57-.51t-.51-3.35q-.48-3.57-2.95-4.41a25,25,0,0,0-5.66-.36H232.6V42.33q13.3,0,15.6-.54,4-.9,4.53-7.64.12-1.49.79-1.49T254.12,33.93Z"/><path class="cls-1" d="M300.49,43.27q0,.51-1.26.51H284.16q-1.26,0-1.26-.54t1.75-.61q3.08,0,3.75-.67.3-.3.3-4.06V6.54s-.24.75-.73,2.12q-2.43,7.31-7,22l-2.81,9.62q-.85,2.84-1.21,2.84T276,41.67q-1.75-5.5-9.87-27.46l-2.4-6.45q0,1.15,0,3.14V30.54q0,11.06.18,11.18.42.79,2.9.79,2,0,2,.6t-1.27.67a8.17,8.17,0,0,1-1.45-.12,10.9,10.9,0,0,0-1.51-.12l-7,.24q-1.09,0-1.09-.54t3.45-.67q1.45,0,1.69-.48a10.92,10.92,0,0,0,.24-3.15v-29q0-5-.12-5.45a1.64,1.64,0,0,0-1-1.15,14.5,14.5,0,0,0-3.38-.49q-1-.06-1-.54,0-.66,1.77-.67h4.22q3.61,0,5.08,0,.3.79,3.51,9.51,1.38,3.63,7.73,21.17,1.14-3.94,2.34-7.75l6.46-20q.6-1.72,1.06-2.86l9-.06a7.19,7.19,0,0,1,2.27.18.6.6,0,0,1,.3.54q0,.61-1,.61a14,14,0,0,0-2.3.12,3,3,0,0,0-2,1q-.3.42-.3,7.09V39.36q0,2.43.48,2.85.79.55,3.93.55h.36C300.08,42.75,300.49,42.93,300.49,43.27Z"/><path class="cls-1" d="M342,22.93a22.41,22.41,0,0,1-5.41,15.23,16.92,16.92,0,0,1-13.27,6.23,18.12,18.12,0,0,1-14-6.32,22.42,22.42,0,0,1-5.68-15.57q0-9.43,5.47-15.44a18.07,18.07,0,0,1,14-6,17.13,17.13,0,0,1,13.48,6.29A23,23,0,0,1,342,22.93Zm-6.77.3q0-11.09-4.53-17.28a9.26,9.26,0,0,0-7.92-3.88,9.54,9.54,0,0,0-7.5,3q-4.9,5.46-4.9,17.76,0,9.76,3.42,15.16a10.75,10.75,0,0,0,9.58,5.39A9.36,9.36,0,0,0,332,38.26Q335.18,32.63,335.18,23.23Z"/></svg>