<?xml version="1.0" encoding="utf-8"?>
<!-- Generator: Adobe Illustrator 21.1.0, SVG Export Plug-In . SVG Version: 6.00 Build 0)  -->
<svg version="1.1" id="svg10490" xmlns="http://www.w3.org/2000/svg" xmlns:xlink="http://www.w3.org/1999/xlink" x="0px" y="0px"
	 viewBox="0 0 883.2 153.8" style="enable-background:new 0 0 883.2 153.8;" xml:space="preserve">
<style type="text/css">
	.st0{fill:#99A2BF;}
</style>
<title>the-guardian-logo</title>
<path id="path10468" class="st0" d="M12.4,94.2V49.2H0V37l12.4-1.7V20l26.8-3.8v19.1h17.8v14H39.3v42.6c0,8,2.2,12.1,10.1,12.1
	c2.9,0,5.7-0.2,8.6-0.7v10.4c-4.3,2.5-13.5,4.7-22,4.7C19.9,118.4,12.4,111.3,12.4,94.2L12.4,94.2z M191.4,42.4
	c6.7,0,10.4,1.2,10.4,25l-22.5,1.3C179.6,47.2,182.8,42.4,191.4,42.4z M179.5,78.4h48.4c0-34.1-11.7-44.9-36-44.9
	c-24.2,0-40,15.6-40,42.3c0,27.6,14.4,42.9,42.3,42.9c15,0,27.1-6.7,30.8-11.8V99c-5.6,1.7-11.4,2.8-21.8,2.8
	C188.5,101.8,181,94.2,179.5,78.4L179.5,78.4z M60.3,109.3l8.6-4V17l-9-4.2V5.5l33.4-5.4h2.3v44.2h0.9c7.7-6.9,17.7-10.8,28-10.7
	c13.7,0,20.5,6.8,20.5,21.7v50.1l8.7,4v7.5h-44.3v-7.5l8.7-4v-44c0-8.2-3.6-11.3-10.9-11.3c-3.8,0-7.6,0.6-11.1,2v53.3l8.7,4v7.5
	H60.3L60.3,109.3L60.3,109.3z"/>
<path id="path10470" class="st0" d="M647.4,38.8v7.4l9,4.2v55l-8.6,4v7.5H692v-7.4l-8.6-4v-72h-2.2L647.4,38.8L647.4,38.8z
	 M739.1,101.1V79.2l-6.3,0.6c-6.2,0.6-11.4,4.8-11.4,12.5c0,8.9,4.9,11.9,10.1,11.9C734.4,104.1,737.1,103,739.1,101.1L739.1,101.1z
	 M720.1,44.4L714.4,61h-14V39.7c7.5-2.3,16.7-6.2,31-6.2c21.7,0,34.7,6.4,34.7,24.6v47.2l8.6,4v6.1c-2.6,1.4-8.6,3.2-15.2,3.2
	c-8.5,0-16-2.7-17.3-11.5h-0.8c-3.6,7.2-13.2,11.6-23.3,11.6c-14.4,0-23.5-9.3-23.5-22.8c0-16.6,10.9-19.3,28.7-23l15.5-2.7V59.7
	c0-10.4-3.2-15.6-13.5-15.6c-1.4,0-3.9,0.2-5.5,0.3L720.1,44.4z M776.9,109.3l8.6-3.9v-55l-9-4.2v-7.3l33.5-5.3h2.3v10.8h0.9
	c7.7-6.9,17.7-10.7,28-10.7c13.7,0,20.5,6.8,20.5,21.7v50.1l8.7,4v7.5H826v-7.4l8.7-3.9V61.3c0-8.2-3.6-11.3-10.9-11.3
	c-3.8,0-7.6,0.6-11.1,2v53.3l8.6,4v7.5H777v-7.5L776.9,109.3z M609.9,17.1l-9-4.1V5.6l33.7-5.4h2.3v102.7l8.6,4.7v7l-32,3.7h-2.2
	v-8.4h-0.9c-3.4,4.3-10.3,8.8-20.4,8.8c-14.8,0-32.5-9.4-32.5-40.5c0-32.7,18.1-44.5,39.6-44.5c4.5,0,9.8,1,13.1,3.4v-20L609.9,17.1
	z M609.9,102.5V47.6c-2.1-1.6-4.3-2.9-9.2-2.9c-8.4,0-14.9,7.6-14.9,30.5c0,20.1,5.1,28.8,15.8,28.8c2.8,0.1,5.7-0.5,8.3-1.6
	L609.9,102.5z M275.2,143.8c-14.7,0-19.8-5.2-19.8-10.8c-0.1-3.3,1-6.6,3.1-9.1H287c6.7,0,9.7,2,9.7,6.2
	C296.7,138.5,292.1,143.8,275.2,143.8L275.2,143.8z M275.4,43c5.9,0,9.7,2.6,9.7,18.8s-3.8,17.9-9.6,17.9s-9.5-1.3-9.5-17.9
	s3.7-18.8,9.6-18.8H275.4z M293.2,99.3h-29c-3,0.1-5.5-2.2-5.7-5.2c0-2.2,1.6-4.5,3.6-6c4.3,1.3,8.9,1.8,13.4,1.7
	c20.9,0,35.2-9.5,35.2-27.2c0-7.9-3.3-12.4-8.5-17V45l13.4,4.7l1.8,0.1V33.5h-1.5l-20.6,4.1h-1.1c-5.1-1.9-12.3-3.9-18.8-3.9
	c-20.9,0-35.4,10.4-35.4,28c0,10.7,5.4,18.7,13.5,23.1v0.8c-4.7,3.3-13.6,10-13.6,18.7c0,6.3,4.2,12.5,12.9,14.4v0.9
	c-9.1,1.9-19.4,4.9-19.4,15.4c0,10.8,15.6,18.8,41.2,18.8c31.7,0,45.4-12.2,45.4-31.5c0-15.9-8.8-23.3-26.7-23.3L293.2,99.3z
	 M496.4,38.9v7.4l9.1,4.2v55l-8.6,4v7.5h46.6v-7.4l-11.1-4V60.3c4.6-2.2,10.7-2.9,17.9-2.9c2.3,0,4.6,0.2,6.8,0.7V34.4
	c-1.3-0.3-2.7-0.5-4-0.4c-8.9,0-16.2,5.7-20.9,16.6h-0.8V33.4h-2.3L496.4,38.9L496.4,38.9z M459.1,101.2v-22l-6.2,0.6
	c-6.2,0.6-11.3,4.8-11.3,12.6c0,9,4.9,11.9,10.1,11.9c2.8,0,5.5-1.1,7.5-3.1H459.1z M440,44.5l-5.7,16.6h-14V39.7
	c7.6-2.3,16.8-6.2,31-6.2c21.7,0,34.7,6.4,34.7,24.6v47.2l8.6,4v6.1c-2.6,1.4-8.6,3.2-15.1,3.2c-8.4,0-16-2.7-17.2-11.5h-0.8
	c-3.6,7.2-13.2,11.6-23.2,11.6c-14.4,0-23.4-9.3-23.4-22.8c0-16.6,11-19.3,28.8-23l15.6-2.7V59.7c0-10.4-3.1-15.6-13.5-15.6
	c-1.4,0-3.9,0.2-5.5,0.3L440,44.5z M328.6,50.4l-9-4.2v-7.3l33.8-5.3h2.3v57.1c0,9.2,4.5,10.9,11.4,10.9c3.3,0.1,6.7-0.6,9.7-1.9
	V50.4l-9.1-4.2v-7.4l33.7-5.4h2.2v69.4l9,4.7v7l-32.8,3.6h-2.4v-10.8h-0.9c-5.2,6.4-13.7,11.1-24.7,11.1
	c-16.3,0-23.3-11.6-23.3-25.7L328.6,50.4L328.6,50.4z M865.9,112.4h17.2"/>
<path class="st0" d="M685.7,15.8C685.6,7,678.5,0,669.8,0S654,7.1,654,15.9s7.1,15.8,15.9,15.8c8.7,0,15.7-7.1,15.8-15.8V15.8z"/>
</svg>
