<?xml version="1.0" encoding="UTF-8"?>
<svg width="190px" height="22px" viewBox="0 0 190 22" version="1.1" xmlns="http://www.w3.org/2000/svg" xmlns:xlink="http://www.w3.org/1999/xlink">
    <!-- Generator: Sketch 46.2 (44496) - http://www.bohemiancoding.com/sketch -->
    <title>Combined Shape</title>
    <desc>Created with Sketch.</desc>
    <defs></defs>
    <g id="Symbols" stroke="none" stroke-width="1" fill="none" fill-rule="evenodd">
        <g id="Tablet/As-Seen-On" transform="translate(-45.000000, -41.000000)" fill="#99A2BF">
            <g id="Desktop/As-Seen-On">
                <g id="Group" transform="translate(45.000000, 37.000000)">
                    <path d="M114.476436,5.22203267 C114.476436,5.43060331 114.465818,5.61261571 114.443519,5.76417467 C114.420159,5.91892062 114.385827,6.04498368 114.336274,6.13705221 C114.288846,6.2312454 114.224782,6.29994269 114.154347,6.34349819 C114.083912,6.38847012 114.002505,6.40900849 113.914019,6.40900849 L107.91254,6.40900849 L107.91254,24.9232816 C107.91254,25.0111008 107.891657,25.0897131 107.845645,25.1534529 C107.803171,25.2203796 107.725303,25.2734961 107.615581,25.3124481 C107.505504,25.3492756 107.361095,25.3825619 107.179167,25.4084119 C106.995824,25.4367407 106.768238,25.4509051 106.494639,25.4509051 C106.229535,25.4509051 106.003011,25.4367407 105.81896,25.4084119 C105.6296,25.3825619 105.483421,25.3492756 105.373698,25.312094 C105.262913,25.273142 105.186461,25.2200255 105.14151,25.1530988 C105.099037,25.0890049 105.075323,25.0114549 105.075323,24.9229274 L105.075323,6.4093626 L99.0724282,6.4093626 C98.985004,6.4093626 98.9053665,6.38917834 98.8331619,6.3438523 C98.7620191,6.3002968 98.7039723,6.23195362 98.6597292,6.13776043 C98.6183177,6.04604601 98.5807997,5.91962884 98.5521302,5.76488289 C98.5259383,5.61296982 98.5107187,5.43166563 98.5107187,5.22274089 C98.5107187,5.01487848 98.5259383,4.82720033 98.5521302,4.67103794 C98.5804457,4.50991801 98.6179638,4.37925152 98.6600832,4.28222545 C98.7043262,4.18519939 98.7623731,4.11154456 98.8335158,4.06621852 C98.9060744,4.02407946 98.9853579,4.00070822 99.0731361,4.00070822 L113.916142,4.00070822 C114.004629,4.00070822 114.085682,4.02372535 114.156471,4.06586441 C114.226198,4.11119045 114.290969,4.18484528 114.33769,4.28187134 C114.387242,4.3785433 114.421575,4.5095639 114.445289,4.67068383 C114.467234,4.82684622 114.478206,5.01487848 114.478206,5.22238678 L114.476436,5.22203267 Z M96.8266519,19.3184328 C96.8266519,20.2996708 96.6436627,21.171489 96.2847633,21.9342413 C95.9240941,22.6973478 95.4246787,23.3435981 94.7872251,23.8747626 C94.1472939,24.4080519 93.3944544,24.8096123 92.5297686,25.0780275 C91.6629591,25.3453804 90.7342094,25.4810044 89.7329011,25.4810044 C89.0331533,25.4810044 88.387205,25.4232845 87.7922247,25.3007625 C87.1951208,25.1842604 86.6634965,25.040846 86.1955822,24.8673322 C85.7280218,24.6952349 85.3344358,24.5185341 85.0176557,24.3361676 C84.7005217,24.1527388 84.4821381,23.9983469 84.3603812,23.8683887 C84.2336692,23.7394927 84.1409358,23.5737694 84.0846587,23.3772385 C84.0244881,23.1768124 83.9951108,22.9101677 83.9951108,22.5765964 C83.9951108,22.3414675 84.0057291,22.145999 84.0280276,21.9898366 C84.0485563,21.8340283 84.0811192,21.7069029 84.1250083,21.6102309 C84.1671277,21.513559 84.2212811,21.4466322 84.2839293,21.4087425 C84.3497629,21.371561 84.4262149,21.3527932 84.5108075,21.3527932 C84.660526,21.3527932 84.8750162,21.4448617 85.1479072,21.6258118 C85.4225679,21.8095947 85.7733267,22.0100208 86.2047848,22.2221325 C86.6337652,22.4395559 87.1526475,22.6413985 87.7582461,22.8248273 C88.3659684,23.014276 89.066778,23.1095315 89.8620908,23.1095315 C90.4627342,23.1095315 91.015949,23.0316274 91.5153644,22.8676746 C92.0147797,22.7051382 92.444822,22.4774457 92.806553,22.1835346 C93.162621,21.8864365 93.441883,21.5238282 93.6354905,21.0942931 C93.8262664,20.6651121 93.9228932,20.1757324 93.9228932,19.6275706 C93.9228932,19.0340827 93.7891023,18.5277057 93.5232902,18.1102104 C93.2535846,17.6909445 92.9007022,17.3230244 92.4586258,17.0057421 C92.0169034,16.689168 91.5157183,16.3984439 90.9504694,16.1356945 C90.3884059,15.8722369 89.8089991,15.6016971 89.2196819,15.3286785 C88.6275332,15.0563681 88.0513119,14.7525419 87.4949116,14.4179082 C86.9349718,14.0853992 86.4373261,13.6926915 85.9966655,13.2415557 C85.5549431,12.7900658 85.1971055,12.2585471 84.9220908,11.6530195 C84.6491997,11.0467836 84.5122233,10.3176717 84.5122233,9.46922476 C84.5122233,8.59563606 84.6714982,7.82119809 84.9893402,7.13882864 C85.3039966,6.45398042 85.7450112,5.88244732 86.3102601,5.41998001 C86.8744473,4.95928326 87.5458795,4.60481942 88.3249109,4.36437891 C89.1028803,4.12110553 89.9452677,4.00106233 90.8467637,4.00106233 C91.3097228,4.00106233 91.7726819,4.04320139 92.2427198,4.12110553 C92.7081565,4.20255076 93.149525,4.31232478 93.5629319,4.44476182 C93.9774006,4.57932352 94.3440869,4.73123659 94.6686538,4.89448118 C94.9868497,5.06055864 95.2031096,5.19689088 95.3029219,5.30029092 C95.4059197,5.40156631 95.4724612,5.481241 95.5043162,5.54073143 C95.5386488,5.59986776 95.5648406,5.67670957 95.5853694,5.76594522 C95.6066061,5.85765964 95.6243033,5.96743365 95.6335058,6.09845425 C95.6441241,6.22628787 95.6522649,6.39201122 95.6522649,6.59491609 C95.6522649,6.79038466 95.6416465,6.96177377 95.626073,7.11227041 C95.6119152,7.26418348 95.5853694,7.39130887 95.5528065,7.49435481 C95.5209515,7.59315142 95.4749388,7.67140967 95.416538,7.71850626 C95.3574293,7.76524875 95.2901799,7.79180698 95.2158516,7.79180698 C95.0955105,7.79180698 94.9128753,7.71567339 94.6580354,7.56376031 C94.407089,7.41361779 94.0995114,7.24683211 93.7321173,7.05596696 C93.3664929,6.86864291 92.9325572,6.69867024 92.4359734,6.54073731 C91.9344344,6.38634546 91.372017,6.30631666 90.749783,6.30631666 C90.1700223,6.30631666 89.6645899,6.38634546 89.2349015,6.54073731 C88.8059211,6.69831613 88.4491453,6.90617855 88.171653,7.16078344 C87.8906213,7.42034587 87.6832099,7.72629668 87.5423401,8.07934408 C87.403594,8.43593258 87.333159,8.81412177 87.333159,9.21107877 C87.333159,9.79004818 87.4673039,10.2889888 87.7363016,10.7103794 C88.0045913,11.1299994 88.3624289,11.5007523 88.8073369,11.8222839 C89.2561382,12.1438155 89.7633403,12.4409136 90.3317748,12.7075582 C90.9009172,12.9763275 91.4820936,13.2497002 92.0724726,13.5251976 C92.6642674,13.797508 93.2415505,14.0999177 93.8135245,14.4260528 C94.3833747,14.7564371 94.8888071,15.1402921 95.3386703,15.5871786 C95.7818085,16.0358356 96.1410619,16.5606262 96.4146608,17.1696949 C96.6900294,17.7769931 96.8280677,18.4922948 96.8280677,19.3187869 L96.8266519,19.3184328 Z M80.7958086,17.3768491 C80.7958086,18.6562476 80.6121115,19.7986056 80.2372846,20.8014443 C79.8638734,21.8074701 79.3297715,22.6545005 78.6332092,23.3489097 C77.9405403,24.0422566 77.0939056,24.5674013 76.0961368,24.9250521 C75.1015534,25.2865981 73.9664542,25.4650694 72.6993337,25.4650694 C71.5366268,25.4650694 70.481873,25.2961591 69.5258695,24.9597549 C68.5734055,24.6240588 67.7536706,24.1272429 67.0694964,23.4700152 C66.3874458,22.814204 65.8625465,21.9905448 65.4940905,21.0078903 C65.1256345,20.0192159 64.9415835,18.880399 64.9415835,17.5917937 L64.9415835,4.52195774 C64.9415835,4.43484675 64.9617583,4.36083781 65.0052935,4.29249464 C65.0495365,4.22875488 65.1252806,4.17740897 65.2314639,4.13951923 C65.3411866,4.10162949 65.4813485,4.06798907 65.6565509,4.04249317 C65.8285678,4.01416439 66.056154,4.00035411 66.3389554,4.00035411 C66.6005202,4.00035411 66.8217354,4.01416439 67.0057864,4.04249317 C67.1884216,4.06798907 67.3338927,4.1019836 67.4372445,4.13951923 C67.5381186,4.17705486 67.6131548,4.22804667 67.6570438,4.29249464 C67.7009329,4.36083781 67.7221696,4.43484675 67.7221696,4.52231185 L67.7221696,17.2454744 C67.7221696,18.2235255 67.8407409,19.0744512 68.0785915,19.7996679 C68.3189196,20.5280716 68.6625995,21.1321828 69.1117547,21.613772 C69.5598482,22.0974859 70.1035066,22.4625731 70.7388365,22.7054923 C71.3713349,22.9487657 72.0852404,23.07235 72.8784295,23.07235 C73.6903777,23.07235 74.4141937,22.9547856 75.046692,22.7115122 C75.6837917,22.475321 76.2193094,22.1173161 76.65997,21.6399762 C77.0985069,21.1608657 77.4326303,20.5698565 77.6651717,19.8630535 C77.9012525,19.1622704 78.0169923,18.3375488 78.0169923,17.39243 L78.0169923,4.52231185 C78.0169923,4.43520086 78.0389368,4.36119192 78.0828259,4.29249464 C78.126361,4.22910899 78.2013972,4.17776308 78.3089963,4.13987334 C78.418365,4.1019836 78.5620664,4.06834318 78.7401004,4.04284728 C78.9195501,4.01487261 79.1457205,4.00070822 79.41578,4.00070822 C79.6766369,4.00070822 79.8953744,4.01487261 80.0734084,4.04284728 C80.2525042,4.06834318 80.393374,4.10233771 80.4963718,4.13987334 C80.6007853,4.17740897 80.6758215,4.22840078 80.7260816,4.29284875 C80.774218,4.36119192 80.7958086,4.43520086 80.7958086,4.52302007 L80.7958086,17.3772032 L80.7958086,17.3768491 Z M57.4754833,9.93487906 C57.4754833,9.09776366 57.2878929,8.38848187 56.9134199,7.81057479 C56.5385929,7.23408415 55.9110497,6.81694289 55.0304364,6.56375444 C54.753652,6.4858503 54.4428889,6.43167151 54.0967315,6.39626054 C53.7488043,6.36368244 53.2957556,6.34810161 52.7333382,6.34810161 L50.3367816,6.34810161 L50.3367816,13.555651 L53.1131204,13.555651 C53.8627743,13.555651 54.5073068,13.4628743 55.0555665,13.2822783 C55.5999327,13.0984954 56.0547511,12.8463692 56.41719,12.5209424 C56.7813987,12.1948073 57.0486266,11.8137853 57.2195816,11.3729187 C57.3891209,10.9324062 57.4754833,10.4518793 57.4754833,9.93452495 L57.4754833,9.93487906 Z M61.7550234,24.9590466 C61.7550234,25.0496987 61.7398038,25.1254782 61.7019317,25.1920508 C61.6711386,25.2575611 61.6007037,25.3142187 61.4899191,25.3545872 C61.3791346,25.4009756 61.2262306,25.4321372 61.0276679,25.4562167 C60.8298131,25.4774633 60.5640009,25.4902112 60.2344788,25.4902112 C59.94743,25.4902112 59.7131189,25.4778174 59.5318995,25.4562167 C59.35068,25.4321372 59.2052089,25.3970804 59.0944244,25.3478591 C58.9836398,25.3000543 58.8976314,25.2310029 58.8385227,25.1407049 C58.7762285,25.0546563 58.7241987,24.9452364 58.6792478,24.8092582 L56.7152111,19.7685062 C56.4840855,19.1962649 56.2412797,18.6679332 55.9967042,18.1898851 C55.7482354,17.7118369 55.4537537,17.2992991 55.1114897,16.9501469 C54.7695795,16.6034735 54.3685607,16.3325795 53.9063095,16.1420685 C53.4440583,15.9487246 52.8880118,15.8520526 52.2388781,15.8520526 L50.3371356,15.8520526 L50.3371356,24.9586925 C50.3371356,25.0493446 50.3137752,25.1251241 50.2620994,25.1916967 C50.2129011,25.257207 50.137511,25.3103235 50.0313277,25.3471509 C49.9254984,25.3850406 49.7846286,25.4208057 49.6037631,25.4487804 C49.4211278,25.4721516 49.1931877,25.489503 48.9164033,25.489503 C48.6424505,25.489503 48.4145104,25.4717975 48.232937,25.4487804 C48.0503017,25.4208057 47.9037688,25.3850406 47.7926303,25.347505 C47.6829076,25.3103235 47.6089332,25.2568529 47.5615047,25.1920508 C47.5190314,25.12477 47.4977947,25.0493446 47.4977947,24.9583384 L47.4977947,5.15864703 C47.4977947,4.7280496 47.6085793,4.42847277 47.8365194,4.25602133 C48.061274,4.08640277 48.3001864,4 48.5539644,4 L53.0961311,4 C53.6366039,4 54.0857592,4.01558083 54.4435968,4.04178495 C54.8007266,4.06692674 55.1242316,4.10092127 55.4102186,4.13420759 C56.2363245,4.27585148 56.9654497,4.5021276 57.5993638,4.81020306 C58.2322162,5.11827852 58.7645483,5.50886156 59.1952985,5.98443092 C59.6228632,6.4568133 59.9460143,7.00178817 60.1605045,7.61262746 C60.3749947,8.2220503 60.4818859,8.89875399 60.4818859,9.63530223 C60.4818859,10.3544991 60.3841972,10.9950836 60.1909437,11.5634297 C59.9994598,12.1289429 59.7226754,12.6303623 59.3588207,13.0662714 C58.994966,13.5018264 58.5613843,13.8785991 58.0534743,14.1990684 C57.5483959,14.5206 56.9792535,14.7893693 56.3499406,15.0096256 C56.7070704,15.1629551 57.0231426,15.3580696 57.3101914,15.5935525 C57.5965323,15.8325766 57.8616365,16.1169267 58.1115212,16.4451864 C58.3582203,16.7776955 58.5921775,17.1580093 58.8158702,17.5903773 C59.0324841,18.0146007 59.2540532,18.502564 59.4745605,19.0436436 L61.3904608,23.7522407 C61.5451344,24.1491977 61.642823,24.4289444 61.6884818,24.5868773 C61.7313091,24.7483514 61.7557312,24.8715815 61.7557312,24.9590466 L61.7550234,24.9590466 Z M2.43011671,21.1446917 C2.63714515,21.1821855 2.84015043,21.2240426 3.03916209,21.2693464 C3.06773912,21.2758905 3.09625625,21.2824824 3.12468807,21.2891596 C3.17070083,21.2997829 3.22025302,21.3139473 3.26591183,21.3245706 C3.51685831,21.3847693 3.76072591,21.451696 3.99786856,21.5260591 C4.05414569,21.5402234 4.10723733,21.5579289 4.16386841,21.5756344 C5.00519391,21.8408626 5.76157279,22.1662894 6.43300505,22.5090677 C6.44008393,22.5161499 6.44716282,22.5196909 6.4542417,22.5196909 C6.71226707,22.6542526 6.95613466,22.7884602 7.18619843,22.9230219 C7.18619843,22.9230219 7.18938392,22.9230219 7.18938392,22.926563 C7.28494887,22.9828665 7.37697438,23.0359829 7.46864594,23.0926405 C7.46864594,23.0961816 7.47218539,23.0926405 7.47218539,23.0926405 C7.56067145,23.149298 7.64915751,23.2059556 7.73375019,23.2626132 C7.90718288,23.3720331 8.06964329,23.4818071 8.22502482,23.5876859 L8.22856426,23.591227 C8.39137862,23.7045421 8.54322071,23.8175031 8.68479841,23.923736 C8.68479841,23.9272771 8.68833785,23.9272771 8.68833785,23.9272771 C8.82956161,24.03351 8.95698154,24.1358478 9.07342921,24.2314574 C9.13006029,24.2810327 9.18633742,24.3267129 9.24332245,24.3727472 C9.32083624,24.440028 9.39162509,24.5002267 9.45533506,24.5604253 C9.73424313,24.8044069 9.87936028,24.9598611 9.87936028,24.9598611 L0.63999939,24.9598611 L0.63999939,20.9392992 L0.661059073,20.9392992 L0.661059073,20.940875 L0.661059073,20.9392638 C0.749586505,20.9424508 0.837759828,20.9498871 0.92628726,20.9566152 C0.904010276,20.9549221 0.881755715,20.9534309 0.859512292,20.952085 C0.881714267,20.953435 0.903927619,20.9549245 0.926163322,20.9566152 C0.837677257,20.9498871 0.749545137,20.9424508 0.661059073,20.9392638 L0.661059073,20.9392992 C2.66689512,21.1884573 2.89849104,21.2361786 3.12486505,21.2891242 C2.89851769,21.2361848 2.66694966,21.1875833 2.43011671,21.1446917 Z M3.03913687,21.2693837 C2.95398909,21.2500133 2.86808692,21.2313977 2.78143501,21.2135322 Z M0.661059073,20.940875 L0.661059073,20.9424508 C0.661118064,20.9424534 0.661177054,20.942456 0.661236045,20.9424586 L0.661236045,20.9424862 C0.683254246,20.9434594 0.705294539,20.9443883 0.727351405,20.9453448 Z M43.5134442,5.22486555 C43.5134442,5.43095741 43.5031798,5.61544858 43.4812353,5.76842399 C43.4564592,5.92494049 43.4217727,6.04781656 43.3715126,6.14236386 C43.3219604,6.23407828 43.260728,6.30312968 43.1924168,6.34845572 C43.1187964,6.39236533 43.0391589,6.41361191 42.9503189,6.41361191 L36.9371599,6.41361191 L36.9371599,24.9590466 C36.9371599,25.0496987 36.9137996,25.1254782 36.8699105,25.1920508 C36.8263754,25.2575611 36.7488616,25.3106776 36.6391389,25.3471509 C36.5280004,25.3853948 36.3832372,25.4211598 36.2020177,25.4494886 C36.0193825,25.4728599 35.7910884,25.4898571 35.5160737,25.4898571 C35.2523853,25.4898571 35.0258609,25.4721516 34.8386244,25.4487804 C34.6492643,25.4208057 34.5027313,25.3850406 34.390531,25.3471509 C34.2811622,25.3103235 34.206126,25.2568529 34.1608212,25.1920508 C34.117286,25.12477 34.0953415,25.0493446 34.0953415,24.9583384 L34.0953415,6.41396602 L28.0797049,6.41396602 C27.9919267,6.41396602 27.914059,6.39307355 27.8411465,6.34880983 C27.7703576,6.30348379 27.7130186,6.2347865 27.6687756,6.14271797 C27.6234708,6.04852478 27.5877224,5.92564871 27.5594068,5.7687781 C27.533215,5.61580269 27.520473,5.43131152 27.520473,5.22521966 C27.520473,5.01452437 27.533215,4.83038731 27.5594068,4.67139205 C27.5877224,4.50991801 27.6234708,4.38066796 27.6687756,4.28257956 C27.7126647,4.18519939 27.7707116,4.11154456 27.8411465,4.06657263 C27.914059,4.02443357 27.9922807,4.00070822 28.0800588,4.00070822 L42.9503189,4.00070822 C43.0391589,4.00070822 43.1191503,4.02407946 43.1924168,4.06621852 C43.261082,4.11154456 43.3219604,4.18519939 43.3718665,4.28222545 C43.4214187,4.38031385 43.4561053,4.50991801 43.4812353,4.67103794 C43.5035338,4.83038731 43.5141521,5.01487848 43.5141521,5.22521966 L43.5134442,5.22486555 Z M190,5.22479473 C190,5.4312407 189.989382,5.61573187 189.965313,5.76835316 C189.944077,5.92522377 189.907267,6.04774574 189.857007,6.14229304 C189.808162,6.23400746 189.747992,6.30305886 189.676495,6.3483849 C189.604644,6.39229451 189.526423,6.41354109 189.43829,6.41354109 L183.425839,6.41354109 L183.425839,24.9589758 C183.425839,25.0496279 183.402125,25.1254074 183.355404,25.19198 C183.312577,25.2574903 183.236479,25.3106068 183.126049,25.3474342 C183.015618,25.385678 182.870147,25.421089 182.687158,25.4494178 C182.508062,25.472789 182.278352,25.4901404 182.001214,25.4901404 C181.740003,25.4901404 181.511355,25.4720808 181.325534,25.4487096 C181.138298,25.4207349 180.988225,25.3853239 180.87921,25.3474342 C180.769134,25.3102527 180.691974,25.2567821 180.649147,25.19198 C180.604904,25.1246992 180.582959,25.0492738 180.582959,24.9586217 L180.582959,6.4138952 L174.565907,6.4138952 C174.480606,6.4138952 174.401677,6.39300273 174.33018,6.34873901 C174.257621,6.30341297 174.198867,6.23471568 174.153916,6.14264715 C174.112858,6.04845396 174.074632,5.92557788 174.047024,5.76870727 C174.019063,5.61573187 174.006321,5.4312407 174.006321,5.22514884 C174.006321,5.01445355 174.019063,4.83031649 174.047024,4.67167533 C174.074632,4.50984719 174.112504,4.38059714 174.153562,4.28250874 C174.197805,4.18512857 174.256913,4.11147374 174.329118,4.06650181 C174.400969,4.02436275 174.480252,4.0006374 174.565199,4.0006374 L189.437937,4.0006374 C189.526423,4.0006374 189.60429,4.02400864 189.676849,4.06650181 C189.747638,4.11147374 189.807808,4.18512857 189.85736,4.28215463 C189.907267,4.38024303 189.944431,4.50984719 189.96496,4.67096711 C189.987966,4.83031649 189.999292,5.01480766 189.999292,5.22514884 L190,5.22479473 Z M173.407093,14.4801607 C173.407093,16.1611196 173.207823,17.6813127 172.810697,19.0347201 C172.413572,20.3856487 171.821069,21.5350888 171.032127,22.4862276 C170.244955,23.4338252 169.255681,24.1639995 168.06572,24.6739175 C166.876114,25.1845437 165.484405,25.4384404 163.899797,25.4384404 C162.333239,25.4384404 160.979049,25.2057903 159.837224,24.7408442 C158.695754,24.2723571 157.750015,23.5949451 157.004255,22.7022345 C156.25991,21.8134191 155.703863,20.7078885 155.339655,19.3877675 C154.9758,18.0672923 154.790333,16.5488698 154.790333,14.8339163 C154.790333,13.1922636 154.992081,11.7021699 155.387083,10.3572611 C155.783501,9.01766404 156.380251,7.87672249 157.174856,6.93726938 C157.968045,5.99675394 158.959797,5.27543242 160.151173,4.76622263 C161.342195,4.25701284 162.728949,4.0006374 164.316743,4.0006374 C165.850029,4.0006374 167.185107,4.23187105 168.323038,4.69256781 C169.457783,5.15503511 170.405292,5.82855182 171.162025,6.71170148 C171.916988,7.59839224 172.479051,8.69329953 172.849631,9.99571511 C173.219857,11.299193 173.407093,12.7938902 173.407093,14.4805148 L173.407093,14.4801607 Z M170.480328,14.6727964 C170.480328,13.4914864 170.373791,12.3955167 170.165672,11.3795759 C169.955075,10.3682385 169.60644,9.48792176 169.119412,8.74181256 C168.633093,7.9971198 167.981482,7.41213053 167.168118,6.99428105 C166.354046,6.57820211 165.346367,6.36750683 164.146142,6.36750683 C162.946979,6.36750683 161.940715,6.59378294 161.125581,7.04279408 C160.311864,7.4949922 159.651758,8.09308354 159.142432,8.84485849 C158.632398,9.59840399 158.269605,10.4751797 158.049452,11.4758938 C157.828945,12.4812113 157.720284,13.5350419 157.720284,14.6395101 C157.720284,15.8629592 157.821512,16.9893823 158.026092,18.0216121 C158.228902,19.0478221 158.572935,19.9369916 159.05253,20.6816844 C159.536018,21.4288559 160.18232,22.00995 160.989667,22.4207173 C161.797722,22.8343174 162.812834,23.0411175 164.037127,23.0411175 C165.245847,23.0411175 166.264144,22.8159037 167.089542,22.3640597 C167.912463,21.913278 168.577878,21.3070422 169.080833,20.5389782 C169.582726,19.7698518 169.942687,18.8824529 170.156469,17.8767812 C170.369898,16.8679226 170.479974,15.7988653 170.479974,14.6731505 L170.480328,14.6727964 Z M154.049174,24.2518187 C154.049174,24.4685338 154.039617,24.6551497 154.018027,24.8035216 C153.995374,24.9518936 153.95998,25.0814978 153.907596,25.1845437 C153.859814,25.288652 153.800351,25.3676184 153.728146,25.4136527 C153.658066,25.4639363 153.572765,25.4901404 153.470121,25.4901404 L144.019809,25.4901404 C143.766739,25.4901404 143.529597,25.4048 143.303072,25.2319944 C143.078318,25.0623759 142.965409,24.7606744 142.965409,24.3311393 L142.965409,4.53003144 C142.965409,4.44256634 142.985584,4.36359987 143.030535,4.29879779 C143.076548,4.23293338 143.152292,4.17981692 143.260245,4.14298951 C143.372091,4.10403744 143.520748,4.06968879 143.708692,4.04277646 C143.893805,4.01657234 144.12033,4.00028329 144.387204,4.00028329 C144.660449,4.00028329 144.888389,4.01657234 145.071024,4.04277646 C145.254013,4.06968879 145.397714,4.10368333 145.508499,4.1426354 C145.618576,4.17981692 145.695735,4.23328749 145.739271,4.29844368 C145.784222,4.36430809 145.80652,4.44256634 145.80652,4.53003144 L145.80652,23.026599 L153.471183,23.026599 C153.573119,23.026599 153.658419,23.0513867 153.729208,23.1016703 C153.801059,23.1505374 153.860168,23.2227758 153.908304,23.3159067 C153.960334,23.4100999 153.995374,23.5329759 154.018027,23.6891383 C154.039263,23.842822 154.04882,24.0297919 154.04882,24.2521728 L154.049174,24.2518187 Z M137.712877,24.9455196 C137.712877,25.0322765 137.691286,25.1105348 137.647043,25.1746286 C137.6028,25.2394307 137.526702,25.2921931 137.415917,25.3297287 C137.306195,25.3686808 137.162847,25.401613 136.980212,25.4299418 C136.802178,25.4561459 136.572822,25.4685397 136.299577,25.4685397 C136.037305,25.4685397 135.811842,25.4561459 135.626729,25.4299418 C135.439493,25.401613 135.290836,25.3686808 135.183591,25.3293746 C135.073514,25.291839 134.996355,25.2390766 134.952112,25.1742745 C134.909638,25.1101807 134.88734,25.0322765 134.88734,24.9444573 L134.88734,4.52719856 C134.88734,4.43796291 134.911762,4.3611211 134.95919,4.29631902 C135.00945,4.23187105 135.090858,4.17875459 135.207659,4.1426354 C135.321629,4.10368333 135.470286,4.06827236 135.649382,4.04277646 C135.832371,4.01657234 136.047923,4.00028329 136.299931,4.00028329 C136.572114,4.00028329 136.801824,4.01657234 136.980212,4.04277646 C137.163201,4.06791825 137.306549,4.10368333 137.41521,4.1426354 C137.526348,4.17875459 137.602446,4.23187105 137.646689,4.29631902 C137.690932,4.36147521 137.712169,4.4376088 137.712169,4.52719856 L137.712169,24.9455196 L137.712877,24.9455196 Z M130.989352,10.2641303 C130.989352,11.3335417 130.813441,12.2981366 130.458435,13.1589773 C130.105199,14.0184016 129.603306,14.752117 128.947447,15.3548117 C128.29265,15.9631723 127.488843,16.4316594 126.534609,16.7613356 C125.582145,17.0931364 124.447754,17.256381 123.12294,17.256381 L120.695591,17.256381 L120.695591,24.9586217 C120.695591,25.0492738 120.668691,25.1246992 120.620201,25.19198 C120.571002,25.2571362 120.494196,25.3102527 120.389783,25.3474342 C120.286785,25.3853239 120.14096,25.4207349 119.958679,25.4487096 C119.778875,25.4720808 119.549873,25.4897863 119.274859,25.4897863 C118.999844,25.4897863 118.76978,25.4717267 118.590684,25.4483555 C118.404864,25.4203808 118.259392,25.3849698 118.150378,25.3470801 C118.038885,25.3098986 117.963141,25.256428 117.919606,25.1916259 C117.874655,25.1243451 117.854126,25.0489197 117.854126,24.9582676 L117.854126,5.22514884 C117.854126,4.78463634 117.969512,4.47089512 118.200992,4.28215463 C118.432471,4.09483059 118.689435,4.0006374 118.978961,4.0006374 L123.553337,4.0006374 C124.017358,4.0006374 124.458018,4.01940521 124.884875,4.05977372 C125.307838,4.09695524 125.810793,4.18017103 126.385599,4.30694231 C126.965005,4.43300538 127.55503,4.67096711 128.156028,5.01764054 C128.755963,5.36431396 129.264581,5.79207852 129.683297,6.29845543 C130.102721,6.80589467 130.424811,7.39194627 130.648857,8.05873489 C130.875382,8.72658584 130.989352,9.46065531 130.989352,10.2644844 L130.989352,10.2641303 Z M127.997815,10.495718 C127.997815,9.62567044 127.835,8.89939139 127.509018,8.31723499 C127.185867,7.73259983 126.783432,7.29527432 126.303484,7.00879955 C125.824951,6.72303299 125.329429,6.54066648 124.819041,6.46417878 C124.305468,6.38910752 123.805699,6.34873901 123.321857,6.34873901 L120.695591,6.34873901 L120.695591,14.926339 L123.256731,14.926339 C124.115046,14.926339 124.828244,14.8158567 125.394909,14.5952464 C125.961573,14.3735737 126.439044,14.0718722 126.823074,13.6791645 C127.208873,13.2878733 127.501585,12.8200943 127.700856,12.2754735 C127.897649,11.7301446 127.997815,11.1359484 127.997815,10.4960722 L127.997815,10.495718 Z M21.1901799,4.37149652 C21.183101,4.37503761 21.1724827,4.38211981 21.1654038,4.389202 C21.1016939,4.42815407 21.0383378,4.46710614 20.9746279,4.50959931 C20.9746279,4.50959931 20.9710884,4.50959931 20.9640096,4.5127863 C20.903839,4.55173837 20.8472079,4.58714934 20.7909308,4.62610141 C20.7838519,4.63318361 20.7732336,4.6367247 20.7661547,4.6438069 C20.5116688,4.80988436 20.2642618,4.98339813 20.0200402,5.16363998 C20.0133153,5.17072218 20.0062364,5.17780437 19.9991575,5.18134547 C19.748211,5.36512842 19.5078829,5.55953466 19.2710942,5.7613772 C18.9139644,6.05847527 18.5745319,6.36973772 18.2527965,6.69126935 C17.8146136,7.12292911 17.4079316,7.57194025 17.0263797,8.03511577 C15.9695021,9.30459915 15.0927822,10.6873976 14.3647189,12.0733831 C14.2974695,12.2079448 14.230574,12.3389654 14.1633246,12.473173 C14.0362586,12.7206957 13.9159176,12.9682184 13.7994699,13.2157411 C13.7392994,13.3467617 13.6791289,13.4774282 13.6189583,13.6119899 C13.449419,13.9830969 13.2901441,14.354558 13.1418415,14.7221239 C12.9439866,15.2210645 12.7602896,15.7122147 12.5903963,16.1934498 C12.5054497,16.4268081 12.4314753,16.6566253 12.3571471,16.8793604 C12.2828188,17.1127187 12.2088444,17.346077 12.1380556,17.5723531 C12.0743456,17.7777367 12.0141751,17.9792252 11.9610834,18.1771725 C11.894188,18.4034486 11.8340174,18.6261837 11.7773864,18.8421906 C11.735267,19.0011859 11.6927937,19.1601811 11.6570453,19.3124483 C11.5972287,19.5458066 11.5441371,19.7650005 11.4945849,19.9771123 C11.4131777,20.3273268 11.3462823,20.6492125 11.2861117,20.9392284 C11.0917963,21.9116137 11.0139286,22.5196201 11.0068497,22.5798188 C10.5191145,21.7667828 9.97120881,21.002614 9.38082979,20.2919158 C9.17943551,20.0443931 8.97096234,19.8004115 8.75894973,19.5670532 C8.75541029,19.5670532 8.75541029,19.5635121 8.75541029,19.5635121 C8.47968771,19.2593319 8.20042569,18.9657749 7.91762423,18.6863823 C7.4263496,18.194878 6.92799609,17.7423258 6.43318202,17.3181023 C6.06897338,17.0068399 5.70511868,16.7132829 5.34798893,16.4374314 C4.86025374,16.0588881 4.38313688,15.7161099 3.93398162,15.4048475 C3.80337619,15.31632 3.6763102,15.2313337 3.55242971,15.1498884 C3.49225919,15.1077494 3.43208866,15.0687973 3.3683787,15.0298452 C3.24839159,14.9487541 3.12805055,14.87085 3.01514233,14.800028 C2.89834072,14.725665 2.7854325,14.6551972 2.67570978,14.5879163 C2.56598707,14.5170944 2.46015773,14.4533546 2.3575139,14.3935101 C2.15258017,14.2695717 1.96180422,14.1562565 1.78483209,14.0574599 C1.61175335,13.9583092 1.45637182,13.8701359 1.31833356,13.7957728 C0.901387224,13.5694967 0.661059073,13.4561816 0.661059073,13.4561816 L0.661059073,4.37149652 L21.1901799,4.37149652 Z M21.1901799,13.2157765 L21.1901799,24.9527435 L12.3571471,24.9527435 C12.3571471,24.9527435 16.1921331,14.5702462 21.1901799,13.2157765 Z" id="Combined-Shape"></path>
                </g>
            </g>
        </g>
    </g>
</svg>