<?xml version="1.0" encoding="UTF-8"?>
<svg width="139px" height="26px" viewBox="0 0 139 26" version="1.1" xmlns="http://www.w3.org/2000/svg" xmlns:xlink="http://www.w3.org/1999/xlink">
    <!-- Generator: Sketch 46.2 (44496) - http://www.bohemiancoding.com/sketch -->
    <title>Combined Shape</title>
    <desc>Created with Sketch.</desc>
    <defs></defs>
    <g id="Symbols" stroke="none" stroke-width="1" fill="none" fill-rule="evenodd">
        <g id="Tablet/As-Seen-On" transform="translate(-275.000000, -39.000000)" fill="#99A2BF">
            <g id="Desktop/As-Seen-On">
                <g id="Group" transform="translate(45.000000, 37.000000)">
                    <path d="M252.898366,2 C254.391512,2 255.598864,3.21082 255.598864,4.70244 L255.598864,24.91484 C255.598864,26.4062 254.388654,27.61702 252.898366,27.61702 L232.700497,27.61702 C231.20995,27.61702 230,26.4062 230,24.91484 L230,4.70244 C230,3.21082 231.20995,2 232.700497,2 L252.898366,2 Z M281.249326,2 C282.739874,2 283.949823,3.21082 283.949823,4.70244 L283.949823,24.91484 C283.949823,26.4062 282.739874,27.61702 281.249326,27.61702 L261.051457,27.61702 C259.558311,27.61702 258.35096,26.4062 258.35096,24.91484 L258.35096,4.70244 C258.35096,3.21082 259.558311,2 261.051457,2 L281.249326,2 Z M309.600234,2 C311.090781,2 312.298133,3.21082 312.298133,4.70244 L312.298133,24.91484 C312.298133,26.4062 311.090781,27.61702 309.600234,27.61702 L289.399766,27.61702 C287.909219,27.61702 286.701867,26.4062 286.701867,24.91484 L286.701867,4.70244 C286.701867,3.21082 287.909219,2 289.399766,2 L309.600234,2 Z M337.948725,2 C339.439273,2 340.648962,3.21082 340.648962,4.70244 L340.648962,24.91484 C340.648962,26.4062 339.439273,27.61702 337.948725,27.61702 L317.750596,27.61702 C316.260308,27.61702 315.050359,26.4062 315.050359,24.91484 L315.050359,4.70244 C315.050359,3.21082 316.260308,2 317.750596,2 L337.948725,2 Z M368.997506,24.91484 L369.000104,24.91484 C369.000104,26.4062 367.790154,27.61702 366.299607,27.61702 L346.101738,27.61702 C344.608852,27.61702 343.40124,26.4062 343.40124,24.91484 L343.40124,4.70244 C343.40124,3.21082 344.608852,2 346.099139,2 L366.299607,2 C367.790154,2 368.997506,3.21082 368.997506,4.70244 L368.997506,24.91484 Z M248.432439,23.48302 L246.279888,16.85744 L251.914194,12.76244 L244.953022,12.76244 L242.800731,6.13374 L240.648179,12.76244 L233.684409,12.76244 L239.318716,16.85744 L237.166424,23.48302 L242.800731,19.38802 L248.432439,23.48302 Z M276.783399,23.48302 L274.630847,16.85744 L280.265154,12.76244 L273.301644,12.76244 L271.149092,6.13374 L268.999139,12.76244 L262.035369,12.76244 L267.669676,16.85744 L265.517384,23.48302 L271.15169,19.38802 L276.783399,23.48302 Z M305.131708,23.48302 L302.982015,16.85744 L308.613723,12.76244 L301.652551,12.76244 L299.5,6.13374 L297.347708,12.76244 L290.386536,12.76244 L296.018245,16.85744 L293.868292,23.48302 L299.5,19.38802 L305.131708,23.48302 Z M333.482798,23.48302 L331.330247,16.85744 L336.964553,12.76244 L330.001043,12.76244 L327.85109,6.13374 L325.698538,12.76244 L318.734768,12.76244 L324.369075,16.85744 L322.216783,23.48302 L327.848232,19.38802 L333.482798,23.48302 Z M361.831081,23.48302 L359.681388,16.85744 L365.312837,12.76244 L358.351665,12.76244 L356.199373,6.13374 L354.046822,12.76244 L347.08565,12.76244 L352.717618,16.85744 L350.567405,23.48302 L356.199373,19.38802 L361.831081,23.48302 Z" id="Combined-Shape"></path>
                </g>
            </g>
        </g>
    </g>
</svg>