<svg id="Layer_1" data-name="Layer 1" xmlns="http://www.w3.org/2000/svg" viewBox="0 0 2401.1 1703.8"><defs><style>.cls-1{fill:#76d1ff}.cls-2{fill:#789fff}.cls-3{fill:#424575}.cls-13,.cls-4{fill:#e0dfe5}.cls-5{fill:#f2f2f2}.cls-6{fill:#e94970}.cls-7{fill:#cecfd6}.cls-9{fill:#e5e4f2}.cls-11{fill:#ffe048}.cls-12{fill:#fff}.cls-13{opacity:.5}.cls-14{fill:#49d6a3}.cls-15{fill:#18b776}.cls-16{fill:#e5d5bd}.cls-17{fill:#ddc29e}.cls-19{fill:#f3f2f7}.cls-20{fill:#e9e8ef}</style></defs><path class="cls-1" d="M1147.5 1070.9l-104.7-4.8-75.3-4.4V820c0-72.7 58.7-131.7 131.4-131.7A131.7 131.7 0 0 1 1230.6 820v249.6z"/><path class="cls-2" d="M1147.5 1070.9l-104.7-10.8-75.3 1.6V820c0-72.7 58.7-131.7 131.4-131.7A131.7 131.7 0 0 1 1230.6 820v249.6z"/><path class="cls-1" d="M1085.5 707c70 0 128.7 48.8 145 114v248.5l-83.1 1.4-104.7-4.8-75.3-4.4V820a131.3 131.3 0 0 1 30.4-84.2 147.6 147.6 0 0 1 87.7-28.8z"/><path class="cls-2" d="M1147 1069l-76.7-2c113.2-35.1 149-117.5 159.8-189.8v192.3z"/><path class="cls-2" d="M1072.4 1029.6c6.2 7.7 16.3 12.2 24.7 17 8.7 5 17.3 11.7 27 14.3 9 2.5 18.7.9 22.6-8.4a153.2 153.2 0 0 0 5-14.6c1.7-5.4 4.6-10.2 6.2-15.5.9-2.8-2.7-5.3-4.6-2.7-2.8 3.7-4.5 8.1-7.1 12-2.3 3.3-4.8 6.4-7 9.8-1.8 2.8-3.2 7-6.8 7.6s-7.6-1-10.8-2.1c-8-3.1-15.5-7.5-23-11.5s-15.4-9-23.9-10a2.6 2.6 0 0 0-2.3 4z"/><path class="cls-2" d="M1157.2 1021.7c-.6 7.5 3.3 15.9 5.5 23 2 6.4 4.3 15.7 12.6 16 3.3 0 6-2 8.1-4.3 2.8-3 5.6-6.2 8.2-9.4 2.8-3.4 5.3-7 8-10.4s6.2-6.4 8-10.3c1-2.2-1.6-5.2-3.9-3.9-5 2.8-9.1 8.2-13.5 12.1-4.7 4.3-10.4 8.6-14.2 13.7-1.2 1.5-.7 0 0 .5a16 16 0 0 1-3-3 34 34 0 0 1-4.4-7.7c-2.6-5.7-4.2-12.5-8.6-17-.9-.9-2.6-.7-2.7.7z"/><path class="cls-3" d="M1154.3 1016.4a331 331 0 0 0-16 20.2c-1.8 2.5-3.6 6.9-7 6.5-3.9-.4-8-2.3-11.5-3.6a446.3 446.3 0 0 1-45.2-18.8c-4-2-6.5 4.3-2.6 6.4 17.3 9 35.4 15.6 53.7 22.3 3.2 1.2 6.7 2.7 10.2 1.5 3.3-1.2 5-4.1 6.5-7 4.7-8.8 9-17.9 13-27a.6.6 0 0 0-1-.6zm6.7 4.7s5.5 19.4 6.2 21.1c1.7 4.3 4.8 8 9.9 6.2 2.6-.9 4.9-3.1 7-4.9q4.3-3.6 8.4-7.5c5-4.8 10.8-10 14.4-16.1 1.4-2.4-1.2-5.9-3.7-3.7-5.2 4.6-9.4 10.2-14.5 14.9q-3.6 3.3-7.3 6.3l-3.8 3c-1.8 1.4-2 2.2-3.7.8s-8-29.2-13.6-21.4a.8.8 0 0 0 .7 1.3zm-8.8 47.9l.3.2-1.4-2.4v.2a5.9 5.9 0 0 0 2.7 3.6 5.8 5.8 0 0 0 3 .8 4.5 4.5 0 0 0 2.3-.5 5.6 5.6 0 0 0 3.1-3.1 4.5 4.5 0 0 0 .5-2.3 5.8 5.8 0 0 0-.8-3 6.6 6.6 0 0 0-5.5-3.2 6.2 6.2 0 0 0-6 4.6 6 6 0 0 0 5.7 7.7l-1.4-.2a5.2 5.2 0 0 0 4.3-.6 5.5 5.5 0 0 0 1.9-7.4 5.6 5.6 0 0 0-1.4-1.5 5.4 5.4 0 0 0-3-1.1l-1.4.2a3.8 3.8 0 0 0-1.6.9 4.7 4.7 0 0 0-1.8 2.5 11.6 11.6 0 0 0-.2 1.7l.6-2.3a5.3 5.3 0 0 0-.7 2.6 5.2 5.2 0 0 0 .6 2.3 4.4 4.4 0 0 0 .9 1l-1.2-2a4.7 4.7 0 0 0 2.1 3 4.6 4.6 0 0 0 3.7.4 5.2 5.2 0 0 0 2.2-1.3 4.6 4.6 0 0 0 1.2-2.2 5.8 5.8 0 0 0 0-2.4 4.5 4.5 0 0 0-1.6-2.4 4.7 4.7 0 0 0-5.2-.4l1.1-.5 1.2-.1h-.2a4.7 4.7 0 0 0-4 2.3l7.1-1 .8 1 .6 2.2-.2 1.1-.5 1 .1-.1-2.7 2.1-1.2.2h.2l-1.3-.2h.1l-3.6-4.7a9.4 9.4 0 0 0 .2 1.4l-.2-1.3v.1l.2-1.3.5-1.1.8-1a.6.6 0 0 1-.1.2l1-.8h-.1l1.2-.5h2.7-.1l2.3 1.3-.1-.1 1.5 3.7v-.1l-.2 1.4-.5 1.2a.4.4 0 0 1 0-.2l-.8 1.2v-.1l-1 .9-1.4.6h.1l-1.5.2a.3.3 0 0 1 .1 0l-1.6-.3a6.5 6.5 0 0 0 1.9.3 7 7 0 0 0 3.1-.9l-1.4.6-1.5.2h.1l-1.6-.2h.2l-3.5-8.6-.1.2 1.9-2-.3.2a4.8 4.8 0 0 0-2.5 3.8 3.9 3.9 0 0 0 .1 2 5.1 5.1 0 0 0 1.3 2.2z"/><path class="cls-2" d="M1066.5 767.9a87.5 87.5 0 0 0 56.1-11.3 261.8 261.8 0 0 0 50.5-36.7c8.2-7.9-4.7-20.8-12.5-12.5a280.9 280.9 0 0 1-20.5 19.7c-7.3 6.4-14.7 13.4-22.8 18.7-15.8 10.3-34.4 11.4-51.2 19a1.7 1.7 0 0 0 .4 3z"/><path class="cls-3" d="M947.9 755.3c5.8 1.9 12.3 2.6 18.3 3.7s12 3 18 3.8c6.3.8 6.6-9.7 0-10.2-6-.4-12 .2-18 0s-12-.6-18 0a1.4 1.4 0 0 0-.4 2.7z"/><path class="cls-3" d="M965 730.8a132.5 132.5 0 0 0 8.8 14.9c3 4 6 9 10.2 12 2.6 1.8 6-1.8 4.3-4.4-2.7-4-7-7.3-10.3-11a167.4 167.4 0 0 1-10.7-13 1.3 1.3 0 0 0-2.4 1.4z"/><path class="cls-3" d="M1167.6 680.4a110.7 110.7 0 0 0-45.7-12.7 138.7 138.7 0 0 0-143 93.9c-2.2 6.4 7.8 9 10 2.7a136.2 136.2 0 0 1 46.1-62.7 132.8 132.8 0 0 1 80.8-26 145.6 145.6 0 0 1 24.9 2.4c8.6 1.6 16.6 4.7 25 7 2.7.8 4.4-3.1 1.9-4.6z"/><path class="cls-3" d="M1068.1 765c22.6-1.9 44.2-13 62.1-26.3a172.6 172.6 0 0 0 25.3-22.8c3.9-4.3 8.4-8.3 11.8-13s6.4-12.9 2.8-18.4c-2-3-7.2-3.7-9 0-1.2 2.6-1.2 5-1.8 7.7a43.3 43.3 0 0 1-2.8 8c-2.2 5-5.7 9.2-9.3 13.3a153.2 153.2 0 0 1-23.3 21.2 246.3 246.3 0 0 1-56 28.2c-1 .4-1 2.1.2 2z"/><path class="cls-3" d="M1188.6 851.7a42.8 42.8 0 0 1 .8 5.3l-.7-2.5.2.4h-8.8a3.4 3.4 0 0 1 .4-.7l-.2.4c.2-.4 0-.2-.1.5a3.1 3.1 0 0 1 0-.7c.2-3 2.4-5.8 5.6-5.6a5.7 5.7 0 0 1 5.6 5.6 8.6 8.6 0 0 1-4.3 7.4 5.2 5.2 0 0 1-6.2-.7 5.3 5.3 0 0 1-.8-6.2l.2-.4-.7 2.5a44.7 44.7 0 0 1 .9-5.3c1-4 7.1-4 8.1 0zm-71 8.5a1.5 1.5 0 0 0-.3-.1l1.2.5a.4.4 0 0 0-.1 0l1.3.2 1.3-.2h-.2l1.3-.5a.4.4 0 0 0-.1 0l1-.7h-.1l.8-1a.3.3 0 0 0 0 .2l.5-1.3a.4.4 0 0 0 0 .2l.1-1.4c0 .7-.1 1.5-.3 2.2l.2-1.5a3.5 3.5 0 0 0 0 1l-.2-1.6a3.2 3.2 0 0 0 .2.7l-.6-1.4.2.3a6.1 6.1 0 0 1 .6 4.7 5.9 5.9 0 0 1-3.5 4 6.1 6.1 0 0 1-8.2-4 8.5 8.5 0 0 1 .1-4.5 7.7 7.7 0 0 1 3.2-4.4 6.3 6.3 0 0 1 4.8-.7 5.4 5.4 0 0 1 3.9 4 6 6 0 0 1 0 2.5 4.8 4.8 0 0 1-1.8 2.5 4.6 4.6 0 0 1-2.3 1 4.6 4.6 0 0 1-3-.6zm-9.2 48.4c9.3-3.8 18.5-9.1 28.5-10.6 15.4-2.2 31.3 1 46.7.4 5.6-.2 5.5-8.2 0-8.6-8.8-.7-17.8-.2-26.6-.3-7.4-.1-14.9-.3-22.2 1a68.2 68.2 0 0 0-28.5 14.5c-1.7 1.3.2 4.4 2.1 3.6zm-15.3-98.2c.5-1.3 3.2-2.7 4.3-3.5l4.7-3.5a32.7 32.7 0 0 1 8.1-4 4 4 0 0 0 0-7.9c-5.4-2.1-9.8 3-13 6.6-2.9 3.4-8.2 7.4-7.5 12.3.3 1.9 3 1.4 3.4 0zm99.3-8.1c-6.6-1-19.6-2-23.5 4.8-1.1 2-.2 5.1 2.3 5.6 3.6.7 6.3-1 9.7-2.3a42 42 0 0 1 10.8-2.4c3-.2 4.2-5.2.7-5.7z" id="Face"/><path class="cls-3" d="M1230.3 988c3 1.7 6.8 1.8 10.2 2.1l12.6 1.2c7.6 1 15.2 2 22.7 3.7 12.2 2.6 24.5 6 35.8 11.2 8 3.6 16 7.8 21.4 14.4.5.7 0 0-.1 0l.7 1 1.1 1.9c.1.2-.5-.8.2.7s.2 0 .2.7c0 .3 0 2.2.1 1s-.2.9-.3 1.1c-.5 1.3.6-1-.2.3-.2.4-1.5 2-.5 1a23.8 23.8 0 0 1-9.6 6.3 116 116 0 0 1-20.4 5.9c-3.6.7-5.6 4.9-4.7 8.3 1 3.9 4.7 5.2 8.3 4.7 16.1-2.2 50.2-11.2 41-34.9-3.7-9.3-12.6-15.8-21.1-20.4a137 137 0 0 0-39-13.5 231.3 231.3 0 0 0-28.1-3.7c-5-.4-10-.5-14.9-.4s-11-.4-15.3 2.1a3.2 3.2 0 0 0 0 5.4zm14.7 64.3c-29.6.5-59.4-3-88.5-8.7-35.6-6.8-73.1-17-103.4-37.8a73 73 0 0 1-28-34.2c-2-5.5-11-5.1-10.9 1.5.7 35.5 42.5 55.4 71.2 65.2a406 406 0 0 0 115.3 20.1c14.7.6 30.4 1.4 44.8-2.4a1.9 1.9 0 0 0-.5-3.7z" id="Arms"/><path class="cls-4" d="M1549.3 1011.6l-246.2 3.5 4.5 56.9 248.5-3.2-6.8-57.2z"/><path class="cls-5" d="M1549.3 1011.6l-246.2 3.2 2.8-69.5 248.5-3.4-5.1 69.7z"/><path class="cls-4" d="M1550.3 875l-244.8-.9-1 68.1 249.9-.3-4.1-66.9z"/><path class="cls-5" d="M1550.3 875l-247.6-1.1 1.5-59.5 248.5-3.4-2.4 64z"/><path class="cls-3" d="M1302 814.9c-3 23.8-3 155.5-4 179.5a963.4 963.4 0 0 0-.2 54.4c.2 6-.2 12.2 1.3 18 1 3.6 6.6 3.6 7.5-.2 1.2-5.5.7-11.3.7-17V995.2c-.2-24-1.5-156-2.1-180 0-1.7-3-2.2-3.2-.4zm249.2-2.3c-3 24.4-3 156.7-4 181.3a1031.4 1031.4 0 0 0-.2 55.3c.2 6-.3 12.8 1.3 18.8 1 3.6 6.6 3.6 7.5-.1 1.2-5.5.7-11.4.7-17V994.7c-.2-24.6-1.5-157-2.1-181.7 0-1.7-3-2.2-3.2-.4z"/><path class="cls-3" d="M1304.3 816.4c14.6.7 29.5-.3 44.2-.6 16.6-.3 33.3-.4 50-.6q50.8-.4 101.7.7c16.8.4 33.7 1.6 50.6 1.4 5.9 0 5.4-8.3-.1-8.9-14.7-1.5-29.6-1.5-44.3-1.7q-25-.5-50-.5-51.6 0-103 2.6c-16.4.8-33.5 1.4-49.6 4.4-2 .3-1.3 3.1.5 3.2z"/><rect class="cls-6" x="1516.5" y="834.4" width="12.2" height="24.4" rx="5.9" ry="5.9"/><rect class="cls-6" x="1516.5" y="900" width="12.2" height="24.4" rx="5.9" ry="5.9"/><rect class="cls-6" x="1516.5" y="965.7" width="12.2" height="24.4" rx="5.9" ry="5.9"/><rect class="cls-6" x="1516.5" y="1031.3" width="12.2" height="24.4" rx="5.9" ry="5.9"/><path class="cls-3" d="M1553.2 1012.7c-10.7-5.8-31.7-4-44.8-4.3a4090.1 4090.1 0 0 0-149.2 1c-15.4.5-36-.8-50.6 3.1-4.5 1.2-3.7 5 1.1 5.4 15.7 1.5 33.7-1 49.5-1.3a5029.5 5029.5 0 0 1 147.8-1.3c13.7.1 33.5 2.8 46-1.4.6-.2.8-1 .3-1.2zm-249-137.1c73.6 8 138 5.7 191.5 3.2 9-.4 18.1-1.1 27.2-1.5 9.6-.3 19.3-.3 28.9-1.3 1.8-.1 2-3 0-3-16.3-.4-32.7.8-49 .7l-48.3-.2c-31.3-.2-62.7-1-94-1.4-18.8-.2-37.5.3-56.2 1a1.3 1.3 0 0 0 0 2.6zm-.2 66.7c43.4 3.7 69.7 4.3 113.3 4.5s87.6 1 131.2-2c2.7-.2 3-4.2.2-4.3-43.7-1.2-87.4.5-131.1.3s-70-1.1-113.6 0a.7.7 0 0 0 0 1.5z"/><path class="cls-5" d="M909.2 1271.6h117.6v95.7l25.9-.4-1.8-219.5H881.4l4.7 222.3 25.6-.4-2.5-97.7z"/><circle class="cls-7" cx="971.6" cy="1219.6" r="12"/><circle cx="968" cy="1215.2" r="10.6" fill="#ffef9f"/><path class="cls-7" d="M883.7 1166.5h167.1v17.4H883.7zm149.5 90.5H901.5c-2.8 0-5-1.7-5-3.7l-.1-7.4c0-2.2 11.1-1.6 14-1.6l123-.5c2.7 0 6.3-6 6.3-3.8l-1.4 13.2c0 2.1-2.3 3.8-5 3.8z"/><path class="cls-9" d="M701 502.9c-5 4.3-6.7 11.2-8.1 17.6l-5.6 25.5a86.6 86.6 0 0 0-2.5 17.5c0 7.6 1.9 15.1 3.8 22.5 3.6 14 7.3 28 13.3 41.1a4.4 4.4 0 0 0 1.3 2 4.6 4.6 0 0 0 2.6.5l12.2.5c7.1.3 14.4.5 21.4-.6 7.5-1.3 14.7-4.2 21.8-7a67.3 67.3 0 0 0 10.4-5c4.5-2.7 8.3-6.5 12.1-10a183.3 183.3 0 0 1 18.3-14.8c4.4-3.1 9-6.1 13-9.9 8.2-8 12.7-19 16.4-29.8 5-14.7 8.7-31.4 2-45.3-5.5-11.2-17-18.5-29-21.8s-24.6-3.1-37-2.8c-12 .3-23.9.8-35.3 3.9s-22.4 9-29.4 18.7z"/><path d="M833.3 507.7c-.4-1-1-1.8-1.4-2.6a319.8 319.8 0 0 0-68.7 44.1 148.8 148.8 0 0 0-11.4 10.5c-9 9.4-16 20.4-23 31.4-7.2 11.6-14.7 23.6-17 37.1l-1.6 1.6 7.8.3c7.2.3 14.4.5 21.4-.6 7.6-1.3 14.7-4.2 21.8-7a67.3 67.3 0 0 0 10.4-5c4.5-2.7 8.3-6.5 12.2-10a183.3 183.3 0 0 1 18.2-14.8c4.4-3.1 9-6.1 13-9.9 8.2-8 12.7-19 16.4-29.8 5-14.7 8.7-31.4 2-45.3z" fill="#efe9e4"/><path class="cls-11" d="M741.6 573.6c6-9 16.5-14 24-21.8 3-3 5.4-6.4 8.3-9.5a93.9 93.9 0 0 1 22-15.6 38.7 38.7 0 0 1-9.6 40.8 66.7 66.7 0 0 1-24 12.8c-2.5 1-5.3 1.8-8 1.5-4.3-.5-7.7-3.7-10.8-6.7z"/><path class="cls-12" d="M1591.4 1361.7l-18.4 5.5-11.5-268.7h19.3l10.6 263.2zm-52.8-274.6h60.7v11.2h-60.7zM865 1079h-84.1l1.7 14.9 82.4.2V1079zm-53.8 17.8h22v272h-22z"/><path class="cls-12" d="M765 1079l241 4.7 258.4 5.7 357.7-.7 1.1-18.9-3.3-1.2-336.8 2.4-172-1-95.4-3.4s-73.2-10-135-7.2-93.6 2.2-93.6 2.2-22.3-.3-27.2 3.4-11.1 16.6 5.1 14z"/><path class="cls-13" d="M781.5 1074.6h83.4v20.9h-83.4zm757.1 12.5h60.7v11.2h-60.7z"/><path class="cls-13" d="M812.1 1093.9h19.8v30.4h-19.8zm749.4 7.3h19.3v18.4h-19.3z"/><path class="cls-3" d="M780.6 1079.9c-.3 4-1.7 10.4.3 14.2 1.5 2.9 4.8 2.8 7.6 3 12 1 24 1.1 36 1.4 11.7.3 23.4.7 35 .8 3.4 0 7.4.3 8.6-3.6.6-2 .1-3.6-.4-5.5-.7-2.7-1-5.5-1.7-8.2-.4-1.5-2.3-1-2.5.3l-.6 7.2c-.1.8-.1 3.3-.7 3.7s-4.7 0-5.3-.1l-7-.2c-8.5-.2-17-.1-25.4-.2a3571.9 3571.9 0 0 0-32.5 0c-1.5 0-3.7.6-5.2.2-4.7-1.2-4-8.9-4.3-13a1 1 0 0 0-1.8 0z"/><path class="cls-3" d="M810.5 1093.9a1761 1761 0 0 0-1.4 112.8c.5 33.2.6 66.4-.6 99.6-.7 20-.8 39.9-.8 59.8a3.6 3.6 0 0 0 3.5 3.5c5.4.4 10.8-.3 16.2 0 4.6.2 4.5 2.2 0 1.8l-16.2-.9c1.1 1.2 2.3-5.6 3.5-4.5-.5-28.7 0-57.4 0-86.2.2-39.2-1.4-78.4-2-117.6-.2-22.8.4-45.6 1-68.3.1-2.1-3-2.1-3.2 0z"/><path class="cls-3" d="M830.6 1096.8c-2.2 37-2.2 74.4-3 111.5-.6 25.2-.6 50.4 0 75.6.7 25 .8 60.8 2.9 85.7.4 4.5 7.2 4.7 7.1 0 0-22.9-2-56.5-2.8-79.3-.5-14.3-.9-28.6-1-42.8-.2-25.3.4-50.5.6-75.7 0-25 .4-50-1-75a1.3 1.3 0 0 0-2.6 0zm706.4-10.4c-1.5 1.4-1.8 3.4-2.1 5.3s-1.2 4.5-.3 6.5c1.2 3 5.2 3.3 6.4 0 .7-2 0-4 0-6s.1-3.7-.8-5.4a2 2 0 0 0-3.2-.4zm62-.7a22.4 22.4 0 0 0-1.9 12c.8 3.4 5.8 2.5 6-.8a21.2 21.2 0 0 0-1.1-5.6c-.5-1.7-.7-3.6-1.2-5.4-.3-.7-1.5-1-1.8-.2z"/><path class="cls-3" d="M1538 1102c4.8.9 9.8.1 14.6-.1l15.5-.7 14.7-.3c5.5 0 11 .7 16.5.6 4.2 0 4-6 0-6.4-10.2-.8-21-.1-31.2 0-4.9 0-9.8.2-14.7.4s-10.5 0-15.3 1.7c-2.1.7-2.6 4.3 0 4.8z"/><path class="cls-3" d="M1560.3 1101.2c-1 27.8.2 55.8.4 83.7.2 19.5.4 39 1.2 58.6.6 17 2.2 34 3 50.9.9 21 1 42 1.7 63 .1 4.2 6.5 4.3 6.4 0 0-28.2-1-56.7-3.3-85-2.1-25.7-2.8-51.5-3.7-77.4l-3.2-93.8a1.3 1.3 0 0 0-2.5 0zm17.7-2c-.4 37.7.8 75.5 1.5 113.2.6 26.3 1.7 52.5 3.1 78.8q2 37.4 4.5 74.8l4.3-4.3c-4.8-.5-9.8 0-14.7-.6s-5.6 7.2-1 8.3c5 1 10.5.4 15.7.9a4.3 4.3 0 0 0 4.3-4.3c-2.6-37.7-5.6-75.4-7.5-113.1-1.3-26.3-1.9-52.5-2.7-78.8-.8-25-1.3-50-3-74.9-.1-2.9-4.5-3-4.5 0zm47.1-25.4l.5-.5-3.8-2.9a57.5 57.5 0 0 0-1 7.2c-.3 2.5-1 5-1 7.6 0 5.2 7.8 5.1 8 0 .2-2.5-.3-5-.5-7.6a57.3 57.3 0 0 0-.6-7.2c-.7-3.5-6.6-1.5-4.7 2l.1.6a1.8 1.8 0 0 0 3 .8z"/><path class="cls-14" d="M843.7 871.7a28.4 28.4 0 0 1 28.4 28.4v154h-56.9v-154a28.4 28.4 0 0 1 28.5-28.4z"/><path class="cls-15" d="M872.1 982h-56.9v-13.6s13.6-1 24.7-3.1 32.2 1 32.2 1z"/><path class="cls-3" d="M833 1025.8c1.4-17-1-34.2-1.2-51.3-.2-8.2 0-16.5-.1-24.7 0-8.5.8-16.9-1.2-25.1-.4-1.3-2.5-1.5-2.8 0-1.4 8.3 0 16.6.5 25s1.3 17.2 1.7 25.7c.8 16.9-.3 33.8 2.1 50.6.1.6 1 .4 1-.2zm14.2-8.5c-.7-19.5-1-39-1-58.5s-.9-39-.4-58.6c0-1-1.4-1-1.5 0-1.7 19.4-3.3 39-3 58.6a538.8 538.8 0 0 0 4.3 58.5c0 1 1.6 1 1.5 0zm12.4 14.3c2-17 2-34.1 1.4-51.2-.3-8.3-.3-16.5-.4-24.8-.1-8.7.4-17.8-.4-26.5-.2-1.8-3-1.9-3 0 .2 4.5 1.2 8.8 1.5 13.3l.8 13.2c.4 8.3.8 16.5.6 24.8-.4 17-1.4 34.1-1.1 51.2a.3.3 0 0 0 .6 0z"/><path class="cls-16" d="M817.4 1059.3l-14.5-75.2 89.8-2.1-17.7 77.3h-57.6z"/><path class="cls-17" d="M817.4 1059.3H832c-1-6.7-2.7-20.7-2.9-29.9-.1-12-2.4-12.9-4.7-27.5l-2.5-18.2-19 .4z"/><path class="cls-3" d="M819 1061c-1.5-14.1-4.2-28.1-5.1-42.3a130.9 130.9 0 0 0-7.3-35.5l-2.7 4.6c4-.6 8-1.9 12-1.8 3.5 0 6.9.6 10.4.6h21.6c7-.2 13.8-.7 20.8-.8H879l6 .2c.6 0 5.4.3 4.3-.6L888 982c0 4.8-1.8 9.8-2.2 14.6-.5 5.6-2.7 11.4-4 16.9-2.3 10-5.9 20.6-4.6 31a1.2 1.2 0 0 0 2.2.6c3.2-5.4 4.5-10.8 6.2-16.8 1.7-6.2 3.3-12.4 4.7-18.6.7-3.1 1.3-6.3 2.1-9.3s2.1-5.7 3-8.6c1.2-4.7 4.5-11.9-1.5-14.6-2.7-1.2-6.8-.7-9.6-.7l-12.2-.2c-7.5-.1-15-.5-22.5-.2s-15 .9-22.5 1.8c-3.9.5-7.4 1.3-11.2 2-4.2 1-8.7.3-13 .5a3.8 3.8 0 0 0-3.6 4.8c5.6 25.2 6.5 52.7 17.5 76.4a1.2 1.2 0 0 0 2.2-.6zm-63 18.5c8.4 1 16.4 1.9 24.8 2.2 8.3.2 16.5 0 24.8-.4 16.1-1 32.3-.4 48.6 0 33 .6 66 2.2 99 4 18.4 1 37 3.2 55.5 2.8 3 0 4-4.8.8-5.4-16-2.6-32.3-3-48.4-3.9q-25.2-1.3-50.3-1.9c-16.5-.4-33-.8-49.5-1-16.7-.2-33.7.8-50.4-.3a219.8 219.8 0 0 0-27.4-.4 246.3 246.3 0 0 0-27.5 3.3c-.6.1-.4 1 .1 1z"/><path class="cls-3" d="M756.8 1079.8a9.3 9.3 0 0 1 0-9.4c2-3.2 5.4-4 8.8-4.4 7.3-.8 14.7-1.1 22-1.7a1109.3 1109.3 0 0 1 128.5-2.9c56.8 1.6 113.4 6.9 170.2 8.9 57.2 2 114.5 1.9 171.7 3.6s114.7 3.1 172 1.6c32.1-.8 64.3-2.5 96.4-2.8 32.3-.2 64.7.2 96.8-3 2.4-.2 2.5-4 0-3.8-29.7 1.8-59.2 3-89 2s-59.5-.1-89.3.7c-59 1.6-118.2 0-177.2-.4-59.3-.4-118.6.6-178-1.7-58.4-2.2-116.8-7.2-175.3-9-29.3-.9-58.6-1.1-87.9-.2-14.7.5-29.4 1.5-44 2.8-6.4.6-13 1.1-19.3 2.5-4 1-7.3 3.3-8.7 7.4a11.2 11.2 0 0 0 1.5 10.3.5.5 0 0 0 .8-.5zm238.4 5.8c11.8 4.2 25.7 3 38.2 3.2 13 .2 25.9.7 38.8 1.1 26.2 1 52.4 2.3 78.6 3.2 22.5.7 45 .4 67.5-.2 17.6-.6 35.3.1 53 0 18.8 0 37.5-.7 56.3-1.4a1.6 1.6 0 0 0 0-3.2c-34.7-2.2-69.3-2.6-104.1-2.1-47.2.6-94.4-1.9-141.6-4-14.7-.7-29.4-1.3-44.1-1.6-7-.2-14.1-.3-21.2-.1-7.3.2-14.5.3-21.4 3a1 1 0 0 0 0 2z"/><path class="cls-3" d="M1264.4 1090.8c44.4 3.5 89 2.5 133.6 2.3 53.1-.3 106.2-1.4 159.3-1.7 12.2-.1 24.5 0 36.8-.3 10-.2 20.2 0 30.2-1.1a2.9 2.9 0 0 0 0-5.8c-8.9-.8-17.8-.4-26.7-.3-10.5 0-21 .3-31.5.5-25.2.4-50.3.6-75.5.8l-159.2 1.5c-22.4.2-44.7 1.2-67 2.7a.7.7 0 0 0 0 1.4zM455.7 557.4c11.8-11.5 23-23.1 36.4-32.7a203.7 203.7 0 0 1 42.8-23.5A200 200 0 0 1 638 489a204.3 204.3 0 0 1 29 6.5c10 3 19.1 7.2 28.7 10.8 5 1.8 8-5.8 3.5-8.3a164 164 0 0 0-53.5-16.4 210.8 210.8 0 0 0-56-1.5 207.4 207.4 0 0 0-96 36.3 162.9 162.9 0 0 0-41 38.8c-1.1 1.7 1.5 3.6 3 2.2z"/><path class="cls-3" d="M703.5 628.3c-6.2-20.8-14.3-41.5-15.3-63.4a95.3 95.3 0 0 1 2.4-27.9c2.4-9.6 7.2-17.1 12-25.6 3-5.3-4-10.7-8.5-6.5-7.4 7.1-11.4 18-13.7 27.8a93 93 0 0 0-2 30.8 194.9 194.9 0 0 0 21.6 66.2c1 2 4 .6 3.5-1.5z"/><path class="cls-3" d="M834 501.8c-6.2-9.5-16.8-14-27.2-17.5a116.6 116.6 0 0 0-36.6-5.6 139 139 0 0 0-36 4.7 130 130 0 0 0-18 6.3c-5.5 2.4-11.8 5-16.2 9.2-3.1 3 0 8.8 4.3 7.4 5.2-1.7 10-5 15-7.2a132.2 132.2 0 0 1 48.7-11.4 137.6 137.6 0 0 1 33.2 3c10.7 2.2 22.2 4.8 29.4 13.6 1.5 1.9 4.5-.5 3.3-2.5z"/><path class="cls-3" d="M832.1 503.2a206.3 206.3 0 0 0-61.7 36 233.3 233.3 0 0 0-48.1 53.5 154.5 154.5 0 0 0-18.8 36.5c-1.5 5 5.9 8.1 8.3 3.5 5.4-10.1 9.8-20.7 15.8-30.6a246.4 246.4 0 0 1 20.1-29.1 234.9 234.9 0 0 1 51.1-46.9c11.1-7.4 22.9-13.6 34.7-19.6 1.9-1 .6-4-1.4-3.3z"/><path class="cls-3" d="M833.4 507c-1.1 17 .2 34-6.5 50a86.6 86.6 0 0 1-29.6 34.6 255.5 255.5 0 0 1-41 25.6 79 79 0 0 1-48.7 8.6c-4.7-.8-6.6 5.7-2 7.1 27.9 8.7 56.4-7.5 78.9-22.5 21.4-14.3 43.6-30.7 51-56.5 4.5-15 4.5-32 2-47.3-.4-2.5-4-1.7-4 .5z"/><path class="cls-3" d="M742 576c-1.6 8 10.5 8.6 15.7 8.4a46.4 46.4 0 0 0 25-9c14.7-10.8 23-31.8 16.7-49.4-1.6-4.5-7.5-2.6-7 1.9 2 14-.7 28.5-11.3 38.7a41.4 41.4 0 0 1-17 9.8c-5.8 1.7-14.3 3.7-19-1.2a2 2 0 0 0-3.1.8zm144.7 797.5a1322 1322 0 0 0 .8-87.4q-.6-45-1.6-89.9c-.4-16.3-.9-32.5-2.1-48.8-.3-3-4.7-3.1-4.8 0-1 29.1.2 58.3.7 87.5.5 30 1.3 59.9 2.5 89.8.7 16.3 1.7 32.6 3.2 48.8a.6.6 0 0 0 1.3 0z"/><path class="cls-3" d="M881.4 1147c28.1 1 56.2 1.6 84.4 2.2s56.2 2.3 84.4 2.4c5 0 5-7.6 0-7.8-28.1-1.4-56.3-1.6-84.4-2q-20.4-.4-40.8-.2c-14.6.2-29.1 1.6-43.6 3a1.2 1.2 0 0 0 0 2.4z"/><path class="cls-3" d="M1053.9 1369.7c.3-18.3-.3-36.7-.5-55s0-36.5 0-54.7c0-36.6 1.5-73.2 1-109.8-.1-4.6-7.1-4.6-7.2 0-.4 36.6.8 73.2 1.3 109.8s.2 73.4 3.7 109.7a.8.8 0 0 0 1.7 0z"/><path class="cls-3" d="M879.5 1167.5c28 2.3 56.3 1.6 84.4 1.6 14.2 0 28.3-.3 42.5-.5 14-.2 28-.2 41.9-1.5a2 2 0 0 0 0-4.2c-14-1.4-28-1.3-41.9-1.3-14.2 0-28.3-.2-42.5 0-28.1.5-56.5.6-84.4 3.9a1 1 0 0 0 0 2zm17.8 76.3a782 782 0 0 1 1.2-59.1l-2.7 2.7c12-1 23.8-1.5 35.7-2.3 5.9-.4 11.7-.5 17.5-.7 6.1-.3 12.2.3 18.3.5 23.9.5 47.8 1 71.6 1.7l-3.3-4.4c-1.4 9.2-.3 18.5-.2 27.8.1 8.5.8 17 1 25.6 0 3.7-.8 5.1-4.5 6a47.9 47.9 0 0 1-10.3 1c-3.2 0-6.4.3-9.7.5a1048.1 1048.1 0 0 1-67.7.3c-11.3-.4-22.5 1-33.8 1.3a1.3 1.3 0 0 0 0 2.4c10.2.5 20.5 2 30.7 2 6.7 0 13.3-.4 20-.3l21 .4c10.2.1 20.4.3 30.6.2l11.6-.4c5.5-.2 13.2-.3 16.8-5.3 2.2-3 2-7 1.9-10.6-.3-4.6-.6-9.2-.6-14 0-5.8 0-11.7-.3-17.6s-.7-11.7.2-17.5c.3-2.2-1-4.3-3.4-4.4-23.8-.7-47.7-1.7-71.6-1-5.8.1-11.6 1-17.4.9s-11.7.1-17.5.2a434 434 0 0 0-36.6 2.4 2.7 2.7 0 0 0-2.6 2.6 375.2 375.2 0 0 0 2.2 59.1c.2 1.2 2 1.3 2 0z"/><path class="cls-12" d="M1319.8 830h56.5v28.7h-56.5zm2.1 67.9h54.4v29.5h-54.4zm-1.2 65.4h55.6v29.5h-55.6zm55.6 65.5h-55.6v29.5h50.8l4.8-4v-25.5z"/><path class="cls-3" d="M1320.5 855c.4-11.5.6-14.5 1.2-24l-1.6 1.7 7.3-.6 8.6-.5c3.9-.1 7.7.3 11.5.4 15 .3 14.1-.2 29 .3l-2-2.8c-.9 5.8.1 11.6.1 17.4 0 2 .4 4.5.4 5.9-.2 2.3-.5 3.2-2.8 3.8a18 18 0 0 1-4.7.9c-6 .3-21.4.2-29 .4s-4.8.5-12 .6a.8.8 0 0 0 0 1.6c6.5.2 3.7.4 10 .4 4.2 0 7 .5 11.2.6 4.4 0 13.9.5 20.2.3 2.5 0 7.7-.4 10-3.5 1.3-1.9 1.3-4.4 1.1-6.6l-.5-9.7a57 57 0 0 1 .1-11 2.2 2.2 0 0 0-2-2.7c-15-.5-14.2-.3-29.1.1-3.7.1-7.3.6-11 .6l-8.7.1a27.5 27.5 0 0 0-7.8.7 1.8 1.8 0 0 0-1.7 1.7c-.5 14.3-.3 13.6.9 24 0 .7 1.2.8 1.2 0zm-360.7 353.6c-7 7.6-.7 19.2 9.1 19.2 10.6-.1 15.2-13.8 8.2-21-1.5-1.6-3.7.7-2.4 2.3a8.8 8.8 0 0 1-6.2 14.6c-8 .7-11.5-8.4-8.2-14.7.2-.3-.2-.7-.5-.4zm-48.3 164.9c.5-16.9 1.2-33.7 1.2-50.7V1296c0-7.6.8-15.7-.3-23.2-.4-3.4-5.1-2.1-5.4.7-.8 7.5.4 15.6.6 23.1l.8 27c.6 16.6 1.7 33.3 2.8 50a.1.1 0 0 0 .3 0zm102.5-3.8c.3-3.7 5.5 1.2 6.8 2s3 2 4.5 1.3c1.7-.8 1.6-3.3 1.7-4.9l.7-11c1-19.4 1-38.8 1.2-58.2 0-8.3 1-17.2 0-25.4a2.8 2.8 0 0 0-5.6 0c-.7 7 .2 14.5.4 21.6l.5 28.9c.1 9.7.2 19.4.6 29 0 4 .2 7.8.3 11.7 0 1.5.2 3 .1 4.5-.1 2.5-1.1 3-3.3 2-1.7-.9-8.2-6.4-8.2-1.5a.1.1 0 0 0 .3 0z"/><path class="cls-3" d="M908.6 1273.7c8.9 1.7 18.8.7 27.7.6l29.8-.2 28.9-.3c9.8 0 20 .8 29.7-.1 2.6-.3 3.8-4.6.7-5-9.3-1.5-19.2-1-28.7-1.3-9.9-.3-19.8-.7-29.7-.6l-29 .5c-5 .1-9.8.5-14.8.7s-9.8.2-14.6 1.5c-2 .5-2.1 3.8 0 4.2zm-507.5 94.9a2197 2197 0 0 0 109.1 5.5c45.3 1.4 150.3 2 195.6 2.4q75.9.5 151.8.5 69.6 0 139.2-.8c33.6-.3 67.2-.5 100.7-2.4l8.2-.5c3.3 0 3.4-6.8 0-6.7-13.5.4-27-.3-40.4-.3h-53.8c-45.3.1-90.6 0-136-.2q-75.9-.2-151.8-.7c-46.4-.2-152.4-.7-198.8-.5-33.6.2-82 .6-115.6 1.4l-8.2.1c-1 0-1 2.1 0 2.2zm986.8 10c42.4-1.4 84.6 1.1 127 1.8 28.7.5 57.4.3 86.1.2 56-.3 112.2-1.8 168.2-.6 25.2.6 66 1.2 91.2 1.8 24 .6 110.8 1.8 134.8 1.8 7.3 0 6.8-9.2 0-10-21-2.4-42.2-3-63.3-3.8-23-.9-124.7-1.6-147.7-1.9-24.4-.3-48.7-.2-73.1.2-62.8 1-125.5 2.6-188.3 3.9-12 .2-23.8.3-35.8.2-33.1-.3-66.2.8-99.1 3.6-2 .1-2 2.9 0 2.8zM1320 988a40.7 40.7 0 0 0-.1-5l-.2-5-.2-2.5-.3-2.5-.2-2.4a24 24 0 0 1 0-2.6 8.8 8.8 0 0 1 .7-3 5.1 5.1 0 0 1 2.6-2.7 7.8 7.8 0 0 1 3.2-.6h17.3l5-.1 9.8-.3 9.9-.3 2.4-.1h2.6a6.5 6.5 0 0 1 1.8.2 4.4 4.4 0 0 1 2 1.2 5.3 5.3 0 0 1 1 1.8 10.6 10.6 0 0 1 .4 1.4 15.9 15.9 0 0 1 .4 2.8v2.5l.1 5 .3 4.9v7.8a3 3 0 0 1-.1.4 1.6 1.6 0 0 1-.1.2l-.1.2a4.6 4.6 0 0 1-1.7 1.5l-1.2.6a21.6 21.6 0 0 1-5.2 1.8 30.6 30.6 0 0 1-5.3.5h-2.4l-2.5.2c-3.3 0-6.5.3-9.8.5l-10 .3-4.9.2c-1.7.1-3.2.2-4.9.1s-3.3 0-5 0l-4.9.3a1.1 1.1 0 0 1-.2-2.2l5-.6c1.6-.2 3.3-.2 4.9-.3 3.3 0 6.6-.7 9.9-.8l9.8-.7 9.9-.8 2.4-.2h2.5a25.9 25.9 0 0 0 4.6-.6 17.4 17.4 0 0 0 4.1-1.5l1-.5c.3-.2.3-.2.2 0v.1a1.7 1.7 0 0 0-.2.3V980.8c0-1.6-.3-3.2-.4-5s0-3.3 0-5v-2.4a16.4 16.4 0 0 0-.2-2.1 4.5 4.5 0 0 0-.4-1.4h-.1a2.2 2.2 0 0 0-.6-.2h-4.9l-9.9-.2c-6.6 0-13.2-.1-19.7.2l-5 .4-5 .2h-2.5a4.7 4.7 0 0 0-1.6.3 1.6 1.6 0 0 0-.8.8 5.4 5.4 0 0 0-.4 1.8l-.1 2.3-.2 2.5-.3 2.5-.4 2.4c0 .9-.2 1.7-.3 2.5l-.2 2.5.2 5a.7.7 0 0 1-1.3 0zm-.2 66.3l-.8-4.9-.4-5-.3-5a120 120 0 0 1-.2-5v-3.1a4.2 4.2 0 0 1 0-1 4 4 0 0 1 1-1.8 3.1 3.1 0 0 1 1.2-.8 4.3 4.3 0 0 1 1-.2l1.3-.1 2.5-.2 4.8-.4 5-.5c6.6-.1 13.1-.4 19.7-.8l9.8-.1h11.7a3.1 3.1 0 0 1 1.7.4 2.6 2.6 0 0 1 .6.4 2.5 2.5 0 0 1 .4.7 2.6 2.6 0 0 1 .3 1 2.5 2.5 0 0 1 0 .5v11.5l-.1 5-.1 5-.2 2.5-.2 1.4a7.2 7.2 0 0 1-.3.8 3 3 0 0 1-.2.5 2.7 2.7 0 0 1-.3.4 6.3 6.3 0 0 1-2.7 1.8 24.4 24.4 0 0 1-2.5.8 49.1 49.1 0 0 1-5 1l-5 .5-5 .4h-5c-1.6 0-3.3 0-5-.2-6.5-.4-13-2.5-19.5-1.2a.7.7 0 0 1-.2-1.3l5-.4 5-.4a71 71 0 0 1 10-.3l9.6.2 4.9-.2c1.7-.1 3.3-.1 4.8-.3a34 34 0 0 0 4.7-.7c1.5-.4 3-.8 3.6-1.5a4.7 4.7 0 0 0 .3-1.6v-7.2l-.3-9.8-.3-4.9v-1.8a1 1 0 0 0 0 .5 1.5 1.5 0 0 0 .4.4 1.8 1.8 0 0 0 .3.3l.5.2h-1.9l-9.8.2c-3.3.2-6.5 0-9.8 0-6.5.3-13.1.5-19.6.5l-4.9.4-5 .2h-3.6c-.3 0-.2.1 0 0a.6.6 0 0 0-.2.2 1.4 1.4 0 0 0 0 .3v12.8c0 1.6 0 3.3.2 4.8l.4 4.9a1.1 1.1 0 0 1-2.2.3zm1-133.5c-.4-6.5-.3-12.9-.4-19.3v-3a3.4 3.4 0 0 1 .2-1.3 2.3 2.3 0 0 1 .6-.8 2.3 2.3 0 0 1 1-.6 3.8 3.8 0 0 1 1.1 0l4.7-.3 9.5-.5 4.8-.5 4.9-.2 4.8-.1 4.8-.3 4.8-.4h1.2l1.3-.1h7.3a8.7 8.7 0 0 1 3.2.7 5.7 5.7 0 0 1 2.7 2.6 7.8 7.8 0 0 1 .8 3.1v7.4l-.3 9.6-.1 4.8v2.4a4.4 4.4 0 0 1-.3 1.8 2.5 2.5 0 0 1-.8 1.1 2.9 2.9 0 0 1-1.1.5 6 6 0 0 1-.8.1h-.6l-1.1.2-2.4.4-2.5.3-2.4.1-9.7.6c-3.2.2-6.4 0-9.7.1s-6.4-.2-9.6-.4a50.3 50.3 0 0 0-9.5.4.7.7 0 0 1-.3-1.3h.1a89.5 89.5 0 0 0 9.6-1.1l4.8-.8 4.9-.5h9.6l9.6-.1h2.3l2.4-.3 4.6-.6c.2 0-.1 0-.1.2v-7.9l-.1-4.8-.1-4.8-.3-4.8V900a3.7 3.7 0 0 0-.5-1.5 1.6 1.6 0 0 0-.7-.6 4.5 4.5 0 0 0-1.6-.2h-8.2l-1.2.1-4.9.3-4.8.2h-4.8c-1.6 0-3.2 0-4.8.2l-4.8.3-4.8.2h-10a1.3 1.3 0 0 0 .6-.2 1 1 0 0 0 .2-.3v2.9l-.5 9.6v4.8l-.2 4.9a1.1 1.1 0 0 1-2.2 0zm-263-359.5a17.4 17.4 0 0 1 13.7-10c2.5-.3 5 0 6.9 1.8a13.7 13.7 0 0 1 3.3 6 8.3 8.3 0 0 1 0 5.7 12.7 12.7 0 0 1-4 4.3c-3.7 2.8-8 5.2-9.6 9.8-1.1 3.1-.4 6.5 0 9.7l.2 1.4v1.2l.4 2.4a2.6 2.6 0 1 0 5.2-.7l-.7-4.9c-.5-2.6-1.4-5.8-.2-8.3 1-2 2.8-3.4 4.5-4.7a45 45 0 0 0 6-4.8c4-4.3 4-9.7 1.8-15a16 16 0 0 0-4.6-6.4 13.8 13.8 0 0 0-8.7-2.6 21.6 21.6 0 0 0-18.5 12.5 2.5 2.5 0 0 0 .9 3.3 2.5 2.5 0 0 0 3.4-.8zm15.3 42.5c0-.2 0-.2 0 0l.4-.8-.2.1a1 1 0 0 0-.2.5c.1-.4 0-.2 0-.1l.2-.2h-.1l.7-.3h.3l.3.2a1.6 1.6 0 0 0-.7-.2h.3l.3.1h-.1l.3.2h-.1l.2.3a5.2 5.2 0 0 0-.3-.5l.3.4a1 1 0 0 1-.1-.2l.1.4a.8.8 0 0 1 0-.1l.1.4v-.1.5a.4.4 0 0 1 0-.2l-.2.4a1.9 1.9 0 0 0 .1-1.4 1.7 1.7 0 0 0-2.3-1.1 1.7 1.7 0 0 0-1 1.1 2.1 2.1 0 0 0 .2 1.7 2 2 0 0 0 1.7 1 1.8 1.8 0 0 0 1.6-.9 1.4 1.4 0 0 0 .2-1 1.8 1.8 0 0 0-.4-.7l.2.3.1.5a1.2 1.2 0 0 0-.8-1.2l.4.2a1.8 1.8 0 0 0-.3-.2.8.8 0 0 0-.9 0 .8.8 0 0 0-.3.9zm117.8-25.6a17.4 17.4 0 0 1 17 .2c2 1.3 4 3 4.4 5.5a13.6 13.6 0 0 1-.9 6.8 8.2 8.2 0 0 1-3.4 4.6 12.7 12.7 0 0 1-5.8 1c-4.6 0-9.5-.5-13.6 2.2-2.7 1.9-4.2 5-5.7 7.8l-.7 1.3-.2.3-.4.7-1.3 2.2a2.6 2.6 0 1 0 4.7 2.5l2.3-4.4c1.2-2.3 2.4-5.5 4.9-6.8 1.9-1 4.3-1 6.4-1a44.4 44.4 0 0 0 7.6-.4c5.8-1 9-5.4 10.4-10.9a16 16 0 0 0 0-7.9 13.7 13.7 0 0 0-5.4-7.2 21.6 21.6 0 0 0-22.2-1 2.6 2.6 0 0 0-1.3 3.2 2.5 2.5 0 0 0 3.2 1.3zm-12.9 43.3c0-.2 0-.1 0 0l.7-.4h-.3a1 1 0 0 0-.4.2c.3-.2.1-.1 0 0h.3-.1l.8.1.2.2.2.3a1.5 1.5 0 0 0-.5-.6l.2.3v-.1l.2.3v.3a.3.3 0 0 1 0-.1v-.2.4a.8.8 0 0 1 0-.1v.4a.6.6 0 0 1 0-.2l-.2.4-.3.3.1-.1-.4.2h.1a1.9 1.9 0 0 0 1-1 1.7 1.7 0 0 0-.2-1.5 1.7 1.7 0 0 0-1-.8 1.8 1.8 0 0 0-1.5.3 2.1 2.1 0 0 0-.9 1.5 2 2 0 0 0 .8 1.8 1.8 1.8 0 0 0 1.8.3 1.4 1.4 0 0 0 .8-.8 1.6 1.6 0 0 0 0-.7v.3l-.2.5a1.2 1.2 0 0 0 .1-1.5l.2.4a1.8 1.8 0 0 0-.1-.3.8.8 0 0 0-.8-.5.8.8 0 0 0-.7.5zm-39.8-69.3c1.6-2.4 8-3.8 10-1.4 2.4 2.7-1.3 5.9-3.5 7-4.3 2.2-10.2 4.4-9.4 10.4.2 2 3.2 1.3 3-.7-.5-4.4 5.7-6 8.5-7.8 2.5-1.6 4.7-4.2 4.4-7.3-.6-6.7-11.7-5.7-14-.9-.4.8.5 1.4 1 .7zm-2.2 24.3a3.5 3.5 0 0 0 .6-.4 2.7 2.7 0 0 0 .9-2.7 2.8 2.8 0 0 0-1.9-2l.7.3a2.8 2.8 0 0 0-3 4.8 2.8 2.8 0 0 0 2.8.1z"/><g id="Window"><path fill="#e1f7ff" d="M1994.2 619.9l-261.7 3.8-1.3-209.9 86.6-.1 72.8-4.7 107.3 3.8-3.7 207.1z"/><circle class="cls-11" cx="1790.2" cy="463.4" r="23.2" transform="rotate(-87.3 1790.3 463.3)"/><rect class="cls-12" x="1776.5" y="471.5" width="73.8" height="30.1" rx="15" ry="15"/><rect class="cls-12" x="1909.4" y="541.9" width="70.5" height="28.4" rx="14.2" ry="14.2"/><path class="cls-3" d="M1790.1 389.3c-3.7-3-11-2-15.6-2.1-8.5-.2-17.1-.1-25.7 0s-17.4.4-26 .8c-5.4.3-12.6-.4-17.7 1.8a1.5 1.5 0 0 0 .4 2.8c5.5.8 11.7-.6 17.2-.8a945 945 0 0 1 51.4-1c4.7 0 11.6 1.4 16-.9a.4.4 0 0 0 0-.6zm-87.1 6.1c-2 16.4-1.7 33.4-1.8 50 0 17 .5 34 .9 51 .8 33.3 1.8 66.6 2 100q.2 28.7.8 57.5c0 3.3 5.1 3.3 5.1 0-.4-34-1.5-68-1.8-101.9-.2-33.6.3-67.3-.9-101-.6-18.4-.6-37.4-3.4-55.7-.1-.6-1-.4-1 .1z"/><path class="cls-3" d="M1706.5 657.7a1331 1331 0 0 0 197.7-3.2l28-2.4c10-.7 20-1 29.8-2.3 1.8-.2 2-3 0-3-16.9.2-33.8 1.9-50.6 2.3l-49.8 1.4c-32.4 1-64.8 1.2-97.2 1.9-19.3.4-38.6 1.5-57.9 2.8a1.3 1.3 0 0 0 0 2.5zm24.3-243.9c-2.3 34.6-.8 69.3-.4 104 .5 34.9 0 69.8-.6 104.8 0 3.6 5.5 3.6 5.7 0 1.5-35 .3-70-.5-104.9-.8-34.7-1-69.4-3.5-104a.4.4 0 0 0-.7 0z"/><path class="cls-3" d="M1732.5 626q58.2-1.9 116.3-1.5l58 .3 29.3-.1c9.2-.1 18.8.4 27.9-.9 2.4-.4 1.8-4-.5-4.1-9.5-.8-19.5.2-29 .4H1905c-19 0-38-.3-57-.5-38.5-.5-77.1-1.3-115.5 1.9-2.7.2-3 4.5 0 4.4zm-.3-210.4c7 1.4 14.5 1.2 21.6 1.4a693.7 693.7 0 0 0 72.4-2.5c31.7-3.2 63.6-4 95.5-4h54.2a1.2 1.2 0 0 0 0-2.2c-31.9-.5-63.8-1.6-95.7-1s-63.4 4.8-95.3 5.6q-13 .3-26 .1c-8.7 0-17.8-1-26.4 0-1.3.2-2 2.3-.3 2.6zm142 3.4c1 31.2 2.5 62.4 3.1 93.6s.3 62.5 1 93.8a2 2 0 0 0 3.8 0c1-31.2-.2-62.6-1.3-93.8s-2.6-62.5-5.6-93.7c0-.6-1-.7-1 0z"/><path class="cls-3" d="M1764.7 526c36.8 1.5 74 .3 110.8-1.2s74-2.5 110.7-6.8c2.3-.2 2.4-3.6 0-3.6-37 .7-73.8 3.8-110.7 5.3s-74 2.4-110.8 5a.6.6 0 0 0 0 1.2z"/><rect class="cls-9" x="1701.8" y="657.7" width="298.7" height="28.6" rx="14.3" ry="14.3"/><rect class="cls-9" x="1701.8" y="657.7" width="298.7" height="28.6" rx="14.3" ry="14.3"/></g><path class="cls-19" d="M548.7 1232.5h148.4v17.4H548.7zm125.7 128l-25.9-109.4-17.2.8 26 111.7 17.1-3.1z"/><path class="cls-20" d="M635.4 1270.4l18.8-2.7-3.4-15.6-22.1-1 6.7 19.3z"/><path class="cls-19" d="M588.4 1360.5l21.3-97.7-16.9 6.6-21.5 94.2 17.1-3.1z"/><path class="cls-20" d="M609.7 1262.8c-1.4 0-16.9 6.6-16.9 6.6l-7.4 30.4 19.6-8.7 4.7-28.3z"/><path class="cls-3" d="M548.3 1251.4c30.6 4.1 62.1 2.5 93 3.2 15.5.3 31 .6 46.4 1.5 4.8.3 10 1 12.2-4.4 2.3-5.7 1-14 0-20-.3-1.6-2-2.1-3.5-2-8.1 1.2-16.9.4-25 .4l-22 .1-46.8.5c-15.3.2-30.5.3-45.8 1-4 .2-9 .3-11.7 3.9-2 2.8-2.1 6.4.4 8.9 1.8 1.6 4.4-1 2.7-2.7l-.5-3.5a5.4 5.4 0 0 1 4-2 18.6 18.6 0 0 1 4.1-.3l9 .2q9.5.2 19 .1l37.8-.3 36.8-.4c12.7 0 26.2-1.8 38.8-.3l-2.8-2.8c.1 3.2.3 6.4 0 9.6 0 1.4 0 4.8-.6 6-.8 1.8-1.6 1.5-3.3 1.5-6.5-.2-13-.2-19.6-.2-13.5-.2-27-.4-40.4-.8-27-.8-54.7-2.9-81.7-.3-1.6.2-2.3 2.8-.4 3zm43.6 17.4c-2.4 4-3.2 9-4.3 13.4l-3.8 15.2c-2.5 10.2-4.8 20.5-7.5 30.6l-4 15.2c-1.4 4.7-3.3 9.7-4 14.6-1 7 6.2 8.5 11.8 8.1 7.1-.4 10.6-4 12.4-10.6q4.2-15 7.9-30c2.5-10.4 4.2-21.2 7.5-31.3a81.2 81.2 0 0 0 4.7-28.6c-.2-3.4-4.5-3.7-5.7-.7-3.2 7.7-4.1 16.4-5.3 24.6-1.2 8.4-2.4 16.7-4.1 25s-3.5 16.5-5.5 24.7l-2.9 12.3c-1.2 4.7-2.2 10-8.3 9.5a19.3 19.3 0 0 1-4.2-.8c-2.6-1-2-1.7-2-4 .2-4.3 2-9.2 3-13.4 1.8-8.4 3.5-16.7 5.6-25l6-24.8c1.8-7.3 5.1-15.9 4.8-23.5a1.1 1.1 0 0 0-2.1-.5z"/><path class="cls-3" d="M647.4 1251c0 6.4 2 12.8 3.5 19l5 21.5c3.6 15 6.9 30 10 45.2l2.3 10.5c.7 3 2 6.5 2.1 9.6.1 2.4-.4 3-2.6 3.5-2.1.6-4.3 1.1-6.5.4-4.5-1.5-5-8-6-12q-5.7-22.9-10.7-46c-2-9-3.2-17.8-4.7-27-1.4-8.2-2.7-16.7-5.7-24.7-1.1-3-5.6-2.6-5.7.8-.2 8.3 1.7 16.5 3.5 24.5 2.2 9.4 5 18.6 7.3 27.9 4.2 17.5 8.2 35.2 13.5 52.4 2.3 7.3 7.6 9.3 15 9 2.5-.1 5.9-.5 7.6-2.5 2.4-2.6 1.3-6.2.5-9.2-4.3-16.2-8.7-32.5-12.4-48.9l-6.7-29c-2-8.4-3.2-18-7.2-25.6a1.1 1.1 0 0 0-2 .5zm1142-81.4c-1-15-2-30-2.3-45.1s.7-30.2.8-45.4c0-6.6-9.5-6.3-10.1 0-1.6 15.3-.6 31 .6 46.3a275.3 275.3 0 0 0 6.8 44.7c.5 2.4 4.3 2 4.2-.5zm9.9-2.2a86.4 86.4 0 0 0 16-16.2c3-4 6.1-8 9.2-11.8 2.8-3.7 6.4-7.2 8.3-11.4 2-4.4-3-9-6.9-5.3-6 5.7-10.1 14.6-14.7 21.5a166.7 166.7 0 0 1-14.9 19.5c-1.6 1.9.7 5.5 3 3.7z"/><path class="cls-16" d="M1726.9 1183l31.4 183.6h67.5l15.8-183.9-114.7.3z"/><path class="cls-17" d="M1758.3 1366.6h27s-9.2-30.2-14-59.6-15.6-124-15.6-124H1727z"/><path class="cls-3" d="M1741.1 1197.8c7 .8 14.3-.2 21.2-.3s14.2-.3 21.3-.3c14.2 0 28.4.5 42.5 1.3 2.8.2 2.9-4.3 0-4.4a595 595 0 0 0-43.3-.5q-10.6.3-21.2 1c-6.7.4-14 .3-20.6 2.1a.5.5 0 0 0 .1 1z"/><path class="cls-15" d="M1827.8 1129.1a25.8 25.8 0 0 1-5.7-36l21.3-28.3a25.8 25.8 0 0 1 36-5.6 25.8 25.8 0 0 1 5.7 36l-21.3 28.2a25.8 25.8 0 0 1-36 5.7z"/><rect class="cls-15" x="1745.4" y="910.4" width="78.8" height="181.3" rx="39.4" ry="39.4" transform="rotate(1.7 1787.4 1002.7)"/><rect class="cls-14" x="1746.1" y="910.4" width="78.8" height="134.9" rx="39.4" ry="39.4" transform="rotate(1.7 1788 979.3)"/><path class="cls-3" d="M1757.7 1349.6c-3-28-7-55.7-12.8-83.4-2.6-13-5.5-26-7.7-39-2.5-15.2-4.2-30.4-8.7-45.1-1.3-4.3-7.2-2.5-6.5 1.8 2.7 15.1 4.5 30.4 7.1 45.6 2.3 12.8 5.5 25.4 7.9 38.2 5 27.6 9 55.5 16.2 82.6.7 2.4 4.8 2 4.5-.6z"/><path class="cls-3" d="M1726.4 1184.7c8.6 1.5 18 .7 26.7.8 10.4 0 20.7.4 31.1.5 19.5 0 39.6 1.3 59-.5a3.3 3.3 0 0 0 0-6.7c-19.4-2-39.5-1-59-.7-10.1.1-20.2.6-30.3 1-9 .4-18.8 0-27.5 2.1-1.6.4-1.8 3.2 0 3.5z"/><path class="cls-3" d="M1828 1335.8c3.6-25 4.7-50.3 7.6-75.3a869.3 869.3 0 0 1 8.6-57.6c1-6 3.1-12.6 3-18.7-.1-5.8-7.8-6.5-9.7-1.3-2 5.7-2.1 12.7-2.9 18.7l-2.4 19.3c-1.5 12.6-2.7 25.1-4 37.7-2.5 25.3-5.1 51.3-3.3 76.8 0 1.7 2.8 2.3 3.1.4z"/></svg>