<svg xmlns="http://www.w3.org/2000/svg" viewBox="0 0 1001.74 958.82"><defs><style>.cls-1{fill:#ffda40;}.cls-2{fill:#fff;}.cls-3{fill:#76d1ff;}.cls-4{fill:#789fff;}.cls-5{fill:#424575;}.cls-6{fill:#f3f2f7;}.cls-7{fill:#fa476f;}.cls-8{fill:#3ecadd;}.cls-9{fill:#664277;}.cls-10{fill:#b4efce;}.cls-11{fill:#e4bdf9;}.cls-12{fill:#49d6a3;}.cls-13{fill:#18b776;}.cls-14,.cls-18{fill:#e0dfe5;}.cls-15{fill:#f2f2f2;}.cls-16{fill:#ff8080;}.cls-17{fill:#d4d9dd;}.cls-18{opacity:0.5;}</style></defs><title>thrivaling-holding-kit</title><g id="Layer_2" data-name="Layer 2"><g id="Layer_1-2" data-name="Layer 1"><rect class="cls-1" x="746.07" y="-0.15" width="22.54" height="30.64" rx="11.27" ry="11.27" transform="translate(24.34 206.24) rotate(-15.76)"/><rect class="cls-1" x="185.33" y="131.11" width="22.54" height="30.64" rx="11.27" ry="11.27" transform="translate(-22.34 36.16) rotate(-9.95)"/><rect class="cls-1" x="293.9" y="237.41" width="22.54" height="30.63" rx="11.27" ry="11.27" transform="translate(201.36 -129.67) rotate(35.18)"/><rect class="cls-1" x="165.54" y="351.27" width="22.52" height="30.65" rx="11.26" ry="11.26" transform="translate(-45.97 25.97) rotate(-7.44)"/><rect class="cls-1" x="50.85" y="196.39" width="22.52" height="30.65" rx="11.26" ry="11.26" transform="translate(-128.4 100.43) rotate(-43.36)"/><polygon class="cls-2" points="960.56 949.1 939.88 955.36 926.93 652.75 948.65 652.75 960.56 949.1"/><path class="cls-2" d="M747.4,270.08l57.33-23.67L938.4,193.08s34,116.33,33.67,117.33-33.33,18.33-33.33,18.33l-62.85,29.13L777.66,406l-34.61-22.37-21.32-99.91,2-24.44Z"/><rect class="cls-2" x="901.12" y="639.84" width="68.32" height="12.62"/><polygon class="cls-2" points="142.35 630.71 47.67 630.71 49.6 647.51 142.35 647.75 142.35 630.71"/><rect class="cls-2" x="81.77" y="650.78" width="24.82" height="299.36"/><path class="cls-2" d="M29.77,630.71l271.35,5.35,291.09,6.42,402.88-.79,1.28-21.32L992.62,619l-379.36,2.66-193.64-1.21-107.53-3.71s-82.41-11.35-152-8.12-105.33,2.44-105.33,2.44-25.21-.31-30.67,3.83S11.47,633.67,29.77,630.71Z"/><path class="cls-3" d="M486.12,620.7l117.15,1.35,84.25,1.81V340.27c0-81.24-66.17-146.86-147.4-146.86h0A146.49,146.49,0,0,0,393.52,340.27v278.9Z"/><path class="cls-4" d="M486.12,620.7l85.85,1C445.44,582.42,405.52,485.06,393.52,404.2v215Z"/><path class="cls-5" d="M702.21,492.49c16.28,15.61,43.64,8.12,61.49,0,15-6.86,28.29-16.58,40.66-27.39,27.32-23.88,52.55-51.46,71.62-82.4,10.35-16.78,21.44-37,21.26-57.27,0-4.74-6.53-5.36-8-1.08-5.57,16.11-11.41,31.63-20.21,46.32a346.46,346.46,0,0,1-32.55,44.81c-18.79,22.31-40.11,45.1-64.87,60.4a114.15,114.15,0,0,1-33.75,14.32c-11.83,2.81-23.17,1.88-35.12,1a.76.76,0,0,0-.53,1.28Z"/><polygon class="cls-2" points="836.13 355.67 850.54 364.5 911.01 337.99 915.63 297.55 865.88 290.26 836.13 355.67"/><path class="cls-4" d="M608.79,576.51c2,2.75,6,5.42,9.48,4.5,2.51-.66,3.66-4.23,1.59-6-2.76-2.42-7.45-2-10.56-.39a1.41,1.41,0,0,0-.5,1.92Z"/><path class="cls-4" d="M609.24,610.51c.69,2.23,2.8,3.88,4.88,4.76a7.92,7.92,0,0,0,8.71-1.59,5,5,0,0,0,.78-6,5.22,5.22,0,0,0-5.61-2.28,27.56,27.56,0,0,0-3.3,1,6.51,6.51,0,0,1-.78.23q.7-.06-.08,0a9.4,9.4,0,0,0-1.53-.05,3.21,3.21,0,0,0-3.06,4Z"/><path class="cls-4" d="M464.75,520.6c2.85-7.34,1.4-17.09,1-24.79-.21-4.29-.19-8.6-.62-12.88-.25-2.45-.73-4.67-.35-7.14.33-2.17,1-3.77.74-6s-2.67-4.42-4.87-2.79c-3.59,2.66-5,7.24-6.86,11.21a28.23,28.23,0,0,0-2.29,15c1.06,10.41,6.7,18.51,11.25,27.63.45.91,1.66.53,2-.26Z"/><path class="cls-4" d="M499.73,282c21.11,3.48,44.34-1.89,62.77-12.53,20-11.52,39.74-25.07,56.39-41,9.21-8.84-5.27-23.29-14-14A315.79,315.79,0,0,1,582,236.54c-8.19,7.14-16.41,14.88-25.51,20.84-17.61,11.53-38.44,12.73-57.21,21.15a1.94,1.94,0,0,0,.46,3.51Z"/><path class="cls-4" d="M534.42,414.48c1.22,5,6.51,8.7,10.41,11.65a59.34,59.34,0,0,0,16.52,8.8,60.62,60.62,0,0,0,18.76,2.84c6,.08,12.47,0,16.33-5.2,1.45-2,.23-4.79-1.56-6-4.4-2.87-9.82-1.33-14.76-1.32a79.85,79.85,0,0,1-15.59-1.85,93.63,93.63,0,0,1-14.35-4c-4.74-1.76-9.42-5.58-14.43-6.26a1.09,1.09,0,0,0-1.33,1.33Z"/><path class="cls-4" d="M519.31,529c7.95,7.69,19.83,11.34,29.82,15.56,10.28,4.35,20.82,10.5,32,12.05,10.32,1.44,20.79-1.68,23.82-12.49,1.56-5.57,2.59-11.25,3.58-16.93,1.07-6.13,3.63-11.9,4.69-18,.56-3.21-3.78-5.56-5.57-2.35-2.51,4.51-3.82,9.61-6.18,14.22-2.05,4-4.44,7.81-6.4,11.87-1.61,3.33-2.62,8.18-6.45,9.33s-8.59.09-12.33-.83c-9.28-2.29-18.18-6.14-27.09-9.56s-18.27-7.8-27.85-7.78a2.89,2.89,0,0,0-2,4.88Z"/><path class="cls-4" d="M612.24,508.52c.41,8.4,5.94,17.08,9.31,24.63,3.09,6.91,6.94,16.87,16.18,16,3.75-.36,6.38-2.89,8.45-5.83,2.66-3.78,5.34-7.66,7.82-11.57,2.61-4.11,4.88-8.48,7.39-12.67s5.94-7.94,7.39-12.53c.82-2.61-2.51-5.5-4.89-3.76-5.28,3.86-9,10.37-13.29,15.32-4.68,5.36-10.33,10.91-13.91,17.11-1.09,1.9-.77.12,0,.54a17.56,17.56,0,0,1-3.81-2.88A37.73,37.73,0,0,1,627,525c-3.61-5.89-6.41-13.24-11.93-17.63-1-.83-3-.41-2.88,1.19Z"/><path class="cls-6" d="M723.5,268.53c2.57,17.87,4.68,35.71,7.79,53.51,3,17.38,6.64,34.84,10.71,52,1.56,6.6,4.18,13.32,8.81,18.38,3.15,3.45,9.09,8.43,14,9.15,14.25,2.09,3.57-29.32,2.33-34.7-3.87-16.9-7-33.91-11.56-50.65s-10.06-33.08-15-49.63c-1-3.49-1.42-4.69,1.71-6.78s7-3.49,10.44-5.05l24.44-11c16.29-7.33,32.5-14.81,48.72-22.27,17.76-8.17,35.43-17.6,53.8-24.31,8.14-3,17.37-5.5,25.92-2.75,7.44,2.4,12.79,7.73,21.19,6.95l-4.19-15.46c-12.48,8.2-28.71,10.13-42.83,14.32-16.4,4.86-32.58,10.4-48.62,16.34-32.27,12-64,25.41-95.59,39l11.36,14.72c20.22-20,48.49-27.73,74-38.46,27.81-11.69,54.8-29.29,86-28.88l-6-14.46-5.1,4.82c-3.86,3.66-2.79,10.27,1.66,12.88l.81.48-3.76-4.89.25,1v-4.33l-.37,1,3.72-4.84,1.09,0c-3.95.49-7.34,2.66-7.85,6.93-.43,3.66,1.76,8,5.72,8.77l4.37.83-1.87-14.32c-8,4.06-17,5.62-25.59,8.16l-25.5,7.54C831.15,217.6,814,223.35,796.85,229c-11.9,3.95-6.84,22.83,5.21,18.89,34.73-11.34,69.88-22.64,103.54-36.83,6.59-2.78,8.23-12.94,0-15.11l-4.29-1.13-2.12,15.69c4.44-.24,8.32-1.62,10.43-5.81,2.49-5,.43-9.8-3.9-12.71l1.66,12.88,5.48-4.44c6.28-5.09.51-13.89-6-14.46-33.34-2.93-62.78,16.61-92.29,28.93-28.19,11.76-58.47,20.32-81,42.1a9.36,9.36,0,0,0-.73,12.31c3.13,3.94,7.67,4.33,12.09,2.41,31.3-13.54,62.52-27.25,94.46-39.23,16-6,32.19-11.65,48.53-16.69,14.41-4.44,30.3-7,43-15.61,6.09-4.15,4.72-16.44-4.19-15.46-4.23.46-6.91-1.84-10.59-3.62a41.74,41.74,0,0,0-17-4.16c-12-.39-23.43,4.08-34.17,8.85-22.77,10.12-45.22,21-67.81,31.57q-17.51,8.16-35,16.49l-17,8.09c-4.85,2.31-10,4.4-14,8.08-9.64,8.85-4.32,18.94-.33,29.1,4.43,11.3,7.87,23.1,11.38,34.7,4.09,13.5,8.36,26.94,12.5,40.42,2.06,6.73,3.61,13.64,5.28,20.48.76,3.11,1.49,6.23,2.25,9.34.67,2.73,2.66,6.9,2.08,9.73l1.74-2.27c-2.18,1.41,3,3.4,3.37,1.65a11.26,11.26,0,0,0-1.08-2.85c-.83-1.73-2.09-3.19-3.08-4.83a43.43,43.43,0,0,1-4.55-11.44c-3-11.36-5.14-23-7.58-34.43-5.34-25.07-12.47-49.38-19.38-74-1.91-6.81-11.26-3.78-10.31,2.84Z"/><path class="cls-5" d="M449.4,493.76c8.93,2.43,18.8,1.8,28,1.19,10.48-.7,20.91-1.87,31.32-3.3,22.85-3.14,45.43-7.74,67.92-12.82,20.69-4.67,41.28-10.1,61.09-17.75A229.2,229.2,0,0,0,690.22,432a324.64,324.64,0,0,0,34.27-29.34c10.42-10.1,22-21.13,29.37-33.72,2.83-4.81-3.76-10-7.73-6-9,9-16.86,19.22-25.87,28.3A372.14,372.14,0,0,1,690.86,418c-16.24,13.21-32.91,25.7-52.37,33.72-39.23,16.17-81.36,26.07-123.21,32.42-11.75,1.78-23.56,3.22-35.4,4.22-10.09.86-20.58.78-30.48,2.9a1.32,1.32,0,0,0,0,2.53Z"/><path class="cls-5" d="M723.2,256.11c22.24-8.6,43.64-18.84,65.1-29.23,21.24-10.29,42.11-21.57,64.25-29.83,11.07-4.13,22.26-8.07,33.54-11.55,5.31-1.64,10.7-3.48,16.1-4.78,7.22-1.73,11.55,2.1,17.52,5.28,4.62,2.46,11,4.09,13.91,8.92,1.42,2.39,1.72,5.94,2.3,8.58q1.06,4.87,2.09,9.74c2.57,12.09,5.25,23.9,8.84,35.72s7.79,23.29,11.92,34.88c2,5.62,4.16,11.23,6,16.92.8,2.52,1.47,5.1,2.15,7.66.38,1.45,1,2.36.28,3.4s-3,1.86-4.11,2.55a49.54,49.54,0,0,1-13.43,6.08c-5.88,1.47-12,1.55-17.88,3-11,2.72-21.21,8.78-31.18,14-10.43,5.46-20.34,11.86-30.72,17.41S849.09,366,838.67,371.52s-20.87,10.93-31.43,16.15q-7.7,3.81-15.48,7.46c-5.87,2.75-12,6.7-18.41,3.31-5.62-3-10.77-7.19-16.11-10.67s-9.53-6.3-11.34-12.83c-3.54-12.8-5.47-26-9.61-38.62s-4.51-27-6.84-40.14c-2.18-12.33-6.2-26.6-1.2-38.69L722.16,260l13.28,8.37c3.67,2.31,7.41,5.53,12,5.31s9.07-3.18,13.24-4.73L776.47,263c20.15-7.49,39.19-17.28,58.76-26.13,1.26-.57.37-2.66-.94-2.23-18.48,6.06-37.46,10.91-55.49,18.23-8.86,3.6-17.7,7.77-26.75,10.85-5.13,1.74-7.86-.5-12.17-3l-13.54-7.93c-2.5-1.46-5.14,0-6.09,2.48-4.46,11.55-2.27,23.7-.41,35.56,2,12.75,5,25.25,8,37.8,1.51,6.37,1.81,12.79,3.09,19.19q2.1,10.45,4.27,20.88c1.08,5.21,1.77,10.78,4.27,15.56s7,7.65,11.56,10.48c9.22,5.75,20.53,15.56,32.14,12.67,5.59-1.39,11-4.47,16.14-6.92q9.06-4.29,18-8.8c23.34-11.71,46-24.81,69.49-36.19,11.71-5.67,23.38-11.56,35.23-16.92a70,70,0,0,1,18-5.41c6.15-1,12.18-1.87,18-4.35,7.74-3.33,21.49-9.38,19.25-19.74-1.35-6.24-3.74-12.32-5.25-18.55q-2.46-10.15-4.9-20.31c-3.15-13.12-6.22-26.59-10.75-39.32-4.33-12.18-8.83-24.9-14.25-36.63-1.93-4.18-4.93-6.6-8.93-8.7-6.11-3.2-11.47-7.6-17.83-10.42-10.91-4.83-23.42-.06-34.18,3-27.33,7.84-53.1,19.83-78.69,32.06-27.33,13.06-55.63,25.34-80.76,42.38-1.68,1.14-.68,4.35,1.48,3.51Z"/><path class="cls-5" d="M859.33,227.46l1.51-1c.15-.1,0-.34-.14-.24l-1.51,1c-.15.1,0,.34.14.24Z"/><path class="cls-5" d="M745,266.72c-3.22,3.22-1.64,9.27-1,13.34,1,6.58,2.25,13.13,3.17,19.72,1.68,12,2.94,23.55,9.83,33.8.81,1.21,3.27.93,3.06-.83-1.36-11.46-3.7-22.66-5.55-34.05-1-6.23-1.74-12.51-2.65-18.75-.61-4.2-.79-11.23-5-13.46a1.54,1.54,0,0,0-1.82.23Z"/><path class="cls-5" d="M777.66,406c1.68-4.07.19-9.08-.75-13.21a106.23,106.23,0,0,0-5-15.59,2.25,2.25,0,0,0-4.34,1.2c1.07,5.38,2.18,10.68,3.61,16,1.11,4.11,1.87,9,5.09,12a.86.86,0,0,0,1.41-.37Z"/><path class="cls-5" d="M367.18,268c6.56,2.09,13.72,2.92,20.49,4.14s13.31,3.31,20.07,4.2c7.09.93,7.37-10.78,0-11.34-6.62-.5-13.42.26-20.08.08s-13.5-.79-20.08-.12a1.55,1.55,0,0,0-.41,3Z"/><path class="cls-5" d="M386.25,240.58a148,148,0,0,0,9.94,16.65c3.25,4.63,6.72,10.17,11.37,13.44,2.88,2,6.69-2,4.81-4.81-3-4.59-7.78-8.18-11.49-12.25a185.73,185.73,0,0,1-12-14.54,1.5,1.5,0,0,0-2.59,1.51Z"/><path class="cls-5" d="M612.77,184.31c-14.8-8.84-34.16-12.79-51.14-14.26A155,155,0,0,0,401.82,275c-2.39,7.14,8.71,10.07,11.21,3.09A152.19,152.19,0,0,1,464.54,208a148.35,148.35,0,0,1,90.24-29.06,161.8,161.8,0,0,1,27.84,2.67c9.64,1.8,18.6,5.21,28,7.86,3.08.87,4.9-3.51,2.17-5.14Z"/><path class="cls-5" d="M501.54,278.77c25.21-2,49.37-14.48,69.43-29.29A192.52,192.52,0,0,0,599.22,224c4.35-4.79,9.41-9.27,13.16-14.55,3.87-5.46,7.16-14.42,3.17-20.52-2.22-3.39-8.11-4.21-10.12,0-1.37,2.86-1.4,5.54-2,8.58a48.08,48.08,0,0,1-3.15,8.84c-2.47,5.68-6.31,10.38-10.41,15a171.06,171.06,0,0,1-26,23.72c-19.14,14.06-40.7,22.71-62.58,31.47-1.12.45-1.12,2.42.31,2.3Z"/><path class="cls-5" d="M608.35,502.95c-5.22,8-10.41,16.24-15,24.66-1.66,3-3.08,8.14-7,8.19-4.28.05-9.07-1.44-13.21-2.33a501.13,501.13,0,0,1-52.69-14.61c-4.75-1.57-6.61,5.71-2,7.41,20.49,7.65,41.42,12.42,62.68,17.32,3.78.87,7.84,2.06,11.53.19,3.49-1.76,4.89-5.22,6.22-8.66,4-10.38,7.5-21,10.67-31.67a.66.66,0,0,0-1.2-.51Z"/><path class="cls-5" d="M616.47,507.3s8.75,20.71,9.73,22.54c2.45,4.57,6.48,8.17,11.84,5.52,2.8-1.38,5-4.2,7.09-6.44q4.32-4.58,8.3-9.46c5-6.08,10.62-12.68,13.75-19.91,1.21-2.8-2.22-6.33-4.64-3.58-5.1,5.81-9,12.61-14,18.55q-3.47,4.12-7.19,8c-1.24,1.3-2.48,2.6-3.78,3.85-1.83,1.75-2,2.72-4,1.32s-12.83-31.28-18.09-21.8a1,1,0,0,0,1.06,1.38Z"/><path class="cls-5" d="M612.2,567a4,4,0,0,0-.15.38q.09-.27-.1.23a2,2,0,0,0-.19.54l1.83-1.83a3.77,3.77,0,0,0-2.32,1.47,8.11,8.11,0,0,0-1,2,4,4,0,0,0,1.06,4,4.13,4.13,0,0,0,5.83,0,4,4,0,0,0,1.06-4,8.09,8.09,0,0,0-1-2,3.8,3.8,0,0,0-2.32-1.47l1.83,1.83c0-.17-.45-1.15-.29-.77.1.23-.15-.4-.15-.38a2.18,2.18,0,0,0-4.16,0Z"/><path class="cls-5" d="M618.39,600.74l-1-.54a4.45,4.45,0,0,0-5.28.68,4.51,4.51,0,0,0-.68,5.28l.54,1a4.69,4.69,0,1,0,6.41-6.41Z"/><path class="cls-5" d="M612.73,643.88l.1.15a4.64,4.64,0,0,0,4,2.3H617a4.7,4.7,0,0,0,3.18-1.32,4.46,4.46,0,0,0,1.32-3.18v-.13a4.65,4.65,0,0,0-2.3-4l-.17-.08a5,5,0,0,0-2.92-.54,4.36,4.36,0,0,0-2.63,1.26,5.46,5.46,0,0,0-1.18,2,4.63,4.63,0,0,0,.46,3.53Z"/><path class="cls-5" d="M507,340.62c7.84-6,15.42-11.72,24.69-15.33a93,93,0,0,1,28.46-5.83c4.43-.26,4.5-6.82,0-6.94-19.89-.54-43.3,8.76-55.76,24.71-1.35,1.72.47,5,2.61,3.39Z"/><path class="cls-5" d="M617.31,316.61c3.29-.52,6-3.27,9.14-4.38a26.59,26.59,0,0,1,9.43-1.44,28,28,0,0,1,18.64,8c3.22,3.1,7.64-1.51,4.84-4.84-5.79-6.88-14.57-10.18-23.48-10-6.53.13-19.23,2.64-21.22,10.08a2.19,2.19,0,0,0,2.65,2.65Z"/><path class="cls-5" d="M554.69,359.75a48.34,48.34,0,0,0-.87,5.91l.75-2.76-.2.4h9.85a4.28,4.28,0,0,0-.38-.74q.42,1.09.24.45t.07.61a3.84,3.84,0,0,0,0-.84c-.29-3.26-2.68-6.44-6.28-6.28a6.39,6.39,0,0,0-6.28,6.28c0,3.17,1.93,6.91,4.85,8.33,2.22,1.08,5.12,1.06,6.91-.89a5.91,5.91,0,0,0,.89-6.91l-.21-.4.75,2.76a48.38,48.38,0,0,0-1-5.91c-1.17-4.43-8-4.56-9.1,0Z"/><path class="cls-5" d="M639.56,356.69a1.56,1.56,0,0,1,.27-.15l-1.32.56.16,0-1.49.2h.07l-1.5-.2.13,0-1.36-.57.12.07-1.16-.9.1.11-.91-1.18a.49.49,0,0,1,.08.14l-.59-1.41a1.26,1.26,0,0,1,0,.17l-.21-1.59c.1.84.2,1.68.34,2.52l-.23-1.68a4.27,4.27,0,0,1,0,1.08l.23-1.74a3.38,3.38,0,0,1-.22.77l.68-1.6a3,3,0,0,1-.19.33,6.84,6.84,0,0,0-.69,5.24,6.54,6.54,0,0,0,3.94,4.4,6.82,6.82,0,0,0,9.17-4.4,9.61,9.61,0,0,0-.13-5,8.67,8.67,0,0,0-3.57-4.94,7.15,7.15,0,0,0-5.33-.81,6.06,6.06,0,0,0-4.34,4.5,6.72,6.72,0,0,0,0,2.87,5.35,5.35,0,0,0,1.93,2.8,5.49,5.49,0,0,0,6,.42Z"/><path class="cls-5" d="M531.55,408.14c4.51,9.46,16.25,15.89,25.52,19.88,11.51,4.95,26,8.21,37.71,2.23,5.3-2.7,1.5-10.46-3.9-9.25a55.09,55.09,0,0,1-32.31-2c-8.91-3.25-16.62-8.4-24.64-13.25-1.58-1-3.08.89-2.37,2.37Z"/><path class="cls-5" d="M462.91,463.39c-9.69,6.08-15.5,17-17,28.19-1.42,10.56.67,26.92,10.73,33,3.1,1.86,8-1.29,6.54-5-1.72-4.43-4.83-8.08-6.63-12.48a38.35,38.35,0,0,1-2.69-14.15A41.31,41.31,0,0,1,464.16,465c.72-.84-.2-2.28-1.25-1.62Z"/><path class="cls-7" d="M848.9,299.12,855.46,286l-14.86-7.44a14.64,14.64,0,0,0-13.11,26.18l27.95,14A14.64,14.64,0,0,1,848.9,299.12Z"/><path class="cls-8" d="M882.55,264.64a14.64,14.64,0,0,0-19.65,6.54L855.46,286l13.09,6.55a14.64,14.64,0,0,1,6.54,19.65l14-27.95A14.64,14.64,0,0,0,882.55,264.64Z"/><path class="cls-9" d="M868.55,292.58,855.46,286l-6.56,13.09a14.64,14.64,0,1,0,19.65-6.54Z"/><circle class="cls-10" cx="852.58" cy="69.22" r="7.86"/><circle class="cls-10" cx="947.51" cy="71.96" r="7.86"/><circle class="cls-10" cx="409.11" cy="45.36" r="7.86"/><circle class="cls-10" cx="8.2" cy="137.36" r="7.86"/><circle class="cls-10" cx="97.79" cy="308.01" r="7.86"/><circle class="cls-11" cx="204.92" cy="224.65" r="7.86"/><circle class="cls-11" cx="741.06" cy="109.67" r="7.86"/><circle class="cls-11" cx="363.77" cy="121.27" r="6.18"/><circle class="cls-11" cx="251.39" cy="323.74" r="7.86"/><path class="cls-12" d="M856,408.59h0a32,32,0,0,1,32,32V614a0,0,0,0,1,0,0H824a0,0,0,0,1,0,0V440.62A32,32,0,0,1,856,408.59Z"/><path class="cls-13" d="M888,532.86H824V517.53s15.33-1.26,27.83-3.53S888,515.23,888,515.23Z"/><path class="cls-5" d="M844.09,582.17c1.5-19.26-1.08-38.48-1.49-57.76-.2-9.3-.05-18.58-.09-27.88,0-9.54.94-19-1.36-28.31-.36-1.46-2.8-1.58-3.07,0-1.65,9.45-.08,18.79.54,28.31s1.41,19.23,1.86,28.88c.89,19-.35,38,2.42,56.92.11.72,1.15.48,1.2-.16Z"/><path class="cls-5" d="M860,572.62c-.75-22-1-44-1.2-66s-.88-44-.3-66c0-1.16-1.68-1.13-1.78,0-1.88,21.89-3.64,44-3.33,66a605.65,605.65,0,0,0,4.82,66c.14,1.1,1.82,1.18,1.78,0Z"/><path class="cls-5" d="M874,588.7c2.31-19.18,2.21-38.45,1.5-57.73-.34-9.3-.28-18.57-.44-27.87-.16-9.81.46-20.1-.47-29.83-.2-2.06-3.35-2.15-3.28,0,.17,5,1.22,9.93,1.62,14.91s.62,9.95.88,14.92c.48,9.32.91,18.54.68,27.87-.48,19.24-1.55,38.47-1.25,57.73a.38.38,0,0,0,.75,0Z"/><polygon class="cls-6" points="826.44 619.94 810.15 535.24 911.28 532.86 891.3 619.94 826.44 619.94"/><path class="cls-14" d="M826.44,619.94h16.38c-1.08-7.59-3.06-23.41-3.21-33.71-.19-13.5-2.81-14.5-5.31-31-.9-6-1.93-13.4-2.88-20.49l-21.27.5Z"/><polygon class="cls-15" points="306.58 487.73 145.45 482.5 142.84 607.95 306.64 614.03 306.58 487.73"/><rect class="cls-16" x="263.59" y="502.12" width="23.71" height="26.64" rx="6.79" ry="6.79"/><path class="cls-17" d="M259.94,530.93c.37,4,0,8.72,2.57,9.5s13.22,0,18.73,0,8.8,2.08,9.36-6.47-2-6.71-2-6.71l-28.66-.17Z"/><path class="cls-17" d="M164.6,586.76c-.81-7.35-1.46-38.93,0-44.81s1.48-22,0-36a163.35,163.35,0,0,1-.29-22.84l-18.87-.61L142.84,608l18.68.69C163,602.2,165.15,591.67,164.6,586.76Z"/><rect class="cls-18" x="48.38" y="625.73" width="93.97" height="23.54"/><rect class="cls-18" x="901.12" y="639.84" width="68.32" height="12.62"/><rect class="cls-18" x="82.85" y="647.51" width="22.29" height="34.22"/><rect class="cls-18" x="926.93" y="655.69" width="21.72" height="20.72"/><path class="cls-5" d="M86.65,387.24c6.52,17.67,16.72,33.92,25.59,50.54,4.5,8.44,9.09,16.84,14.1,25,5.22,8.49,11.09,16.35,16.76,24.52,2.21,3.18,7.37.3,5.26-3.08-5.06-8.11-9.63-16.49-14.77-24.57s-10.48-16-15.73-24-10.46-16.05-15.28-24.3c-2.26-3.87-4-8-6.26-11.85a151.84,151.84,0,0,0-8.72-12.62c-.31-.43-1.16-.19-.94.4Z"/><path class="cls-5" d="M357.77,392.55c-5,7.91-11,15.14-16.31,22.81-5.17,7.44-9.94,15.19-14.77,22.86-9.63,15.3-18.92,31.3-25.21,48.3-1.52,4.11,5,6.74,7,3,8.83-16.2,19-31.46,28.54-47.24,4.68-7.75,9.55-15.47,13.17-23.79s5.87-17,8.06-25.69a.28.28,0,0,0-.51-.22Z"/><path class="cls-5" d="M145.45,484.9c13,.82,26.39-.52,39.49-.36,13.29.17,26.57.74,39.85,1.25,13.11.51,26.22,1.11,39.33,1.89q10.28.62,20.56,1.36c6.64.48,13.93,1.93,20.54,1.21,3.79-.42,5.08-5.84.95-7-6.14-1.72-13.18-1.48-19.53-1.91q-10.28-.7-20.56-1.27c-13.75-.76-27.52-1.33-41.29-1.79-13.28-.44-26.56-.94-39.85-1-13.06-.09-27.43-.56-40.12,3-2.68.74-2,4.53.64,4.7Z"/><path class="cls-5" d="M146,483.62c-5,7.52-5.51,17.9-6.28,26.61a231.25,231.25,0,0,0-.81,27.21,469.42,469.42,0,0,1-1.28,57.06c-.41,4.57,7.09,4.69,7.22,0,.5-18.8.79-37.5,2.22-56.26.67-8.73,1-17.55,1.21-26.3.26-9.05,1.45-19.66-1.94-28.28a.19.19,0,0,0-.34,0Z"/><path class="cls-5" d="M306.53,487.71c-1.92,3.62-1.89,7.94-2.4,12-.67,5.28-1,10.6-1.45,15.9-.88,10.61-1.51,21.16-1.56,31.8-.1,21.23,1.42,42.39,1.43,63.61,0,5.25,8.16,5.26,8.16,0,0-21.22,1.49-42.38,1.37-63.61-.06-10.65-.7-21.2-1.59-31.8-.45-5.3-.79-10.62-1.46-15.9-.51-4-.48-8.33-2.41-12a.05.05,0,0,0-.09,0Z"/><path class="cls-5" d="M164.35,530.68c1.84,4,8.82,3.34,12.45,3.57,6.49.4,13,.4,19.48.31q9.25-.13,18.5-.16c6.55,0,13,.23,19.3-1.72a3,3,0,0,0,0-5.79c-6.54-2.23-13.42-2-20.27-2.07-7.14-.06-14.29-.15-21.42,0-3,0-30.6.32-28,5.9Z"/><path class="cls-5" d="M163.84,559c11.35,1.76,23,.16,34.37-.64,11.87-.83,23.76,2.27,35.6,1.92,4.53-.14,6-7.48,1.12-8.29-11.81-1.94-23.89.27-35.73-.45-11.62-.71-24.06-1.54-35.36,1.95-2.47.76-3,5.05,0,5.51Z"/><path class="cls-5" d="M168.47,584.17c10.24,2.22,21.62,1.14,32.05,1,5.19-.06,10.38-.31,15.56-.45,5.49-.14,11.23.17,16.62-.92,3.89-.79,3.71-6.78,0-7.68-5-1.23-10.48-1.08-15.65-1.26-5.51-.19-11-.42-16.54-.34-10.37.15-22.07-.27-32.05,2.85-3.14,1-3.55,6,0,6.79Z"/><path class="cls-5" d="M263.15,503.75c3,.74,6.07.71,9.12,1,1.65.16,3.29.38,4.95.44,1.38,0,4-.46,5.34-.05,4.37,1.38,2.59,7.52,2.29,10.82-.17,1.83-.33,3.69-.58,5.51-.4,2.83.16,2.74-2.42,3.21-3.4.63-7.44-.07-10.9-.08-.93,0-3.33.4-4,0-.83-.56-.42-4.15-.42-4.9,0-5.72.74-12.62-1.11-18.09a1.94,1.94,0,0,0-3.71,0c-1.54,4.55-1.34,10.1-1.52,14.86-.14,3.64-1.68,9.94.29,13.21,2.56,4.25,8.15,3.12,12.23,2.7,4.31-.44,11.37.41,15.07-2.14s2.41-7.86,2.16-11.52c-.31-4.51.13-10.38-1.66-14.64-3.18-7.55-19.12-5.94-25.17-3.6-1.45.56-1.75,2.82,0,3.25Z"/><path class="cls-5" d="M47.38,631.71c-.39,4.59-1.9,11.79.29,16,1.65,3.22,5.38,3.11,8.54,3.37,13.48,1.12,27,1.24,40.52,1.6,13.18.35,26.34.74,39.53.9,3.78,0,8.25.28,9.64-4,.71-2.2.13-4.08-.44-6.25-.82-3.09-1.22-6.19-2-9.28-.4-1.67-2.58-1.09-2.76.37-.33,2.69-.35,5.38-.71,8.08-.12.94-.15,3.73-.81,4.25s-5.23-.12-5.93-.14l-7.91-.19c-9.56-.23-19.1-.17-28.66-.25s-19.1-.21-28.66-.26c-2.65,0-5.26.07-7.91.21-1.78.09-4.25.72-5.93.29-5.3-1.34-4.51-10-4.79-14.7a1,1,0,0,0-2.06,0Z"/><path class="cls-5" d="M81,647.51c-2.13,42.43-2.19,84.6-1.6,127.06.52,37.42.69,74.8-.63,112.2-.79,22.42-.89,44.86-.94,67.29A4,4,0,0,0,81.77,958c6.12.44,12.18-.25,18.3,0,5.1.24,5-7.49,0-7.87-6.13-.47-12.17.31-18.3,0l3.92,3.92c-.51-32.4,0-64.73.11-97.13.18-44.19-1.69-88.33-2.22-132.5-.31-25.64.41-51.29,1.1-76.92.06-2.36-3.54-2.34-3.66,0Z"/><path class="cls-5" d="M103.68,650.78c-2.49,41.72-2.48,83.75-3.43,125.55-.65,28.4-.72,56.78,0,85.18.7,28.1.82,56.52,3.2,84.52.43,5.09,8.09,5.27,8.06,0-.15-25.76-2.28-51.6-3.2-77.36-.57-16.07-1-32.14-1.15-48.22-.25-28.39.47-56.78.62-85.17.14-28.15.48-56.39-1.19-84.5a1.45,1.45,0,0,0-2.91,0Z"/><path class="cls-5" d="M899.33,639.08c-1.65,1.54-2,3.85-2.42,6-.46,2.29-1.24,5-.32,7.26,1.4,3.38,5.94,3.71,7.23,0,.75-2.15.06-4.52,0-6.77s.16-4.09-.83-6a2.33,2.33,0,0,0-3.62-.47Z"/><path class="cls-5" d="M969.13,638.24c-1.61,3.8-3,9.39-2.1,13.46.84,3.81,6.52,2.81,6.63-.9.06-2.15-.71-4.17-1.21-6.24s-.76-4.09-1.35-6.07c-.24-.8-1.59-1.16-2-.26Z"/><path class="cls-5" d="M900.51,656.61c5.33,1,10.92.14,16.3-.11,5.85-.28,11.69-.59,17.54-.78q8.28-.27,16.57-.32c6.18,0,12.35.78,18.52.68,4.7-.08,4.59-6.86,0-7.22-11.51-.9-23.54-.13-35.09,0-5.52.08-11,.18-16.56.47s-11.9.08-17.28,1.93c-2.35.81-2.89,4.8,0,5.33Z"/><path class="cls-5" d="M925.52,655.69c-1.09,31.4.22,62.86.48,94.27.18,22,.45,44,1.31,66.05.75,19.13,2.55,38.18,3.38,57.31,1,23.68,1,47.37,1.88,71.05.16,4.69,7.33,4.73,7.31,0-.09-31.89-1.23-64-3.82-95.77-2.37-29-3.14-58.12-4.07-87.23q-1.68-52.85-3.65-105.68a1.41,1.41,0,0,0-2.81,0Z"/><path class="cls-5" d="M945.43,653.51c-.49,42.44.86,85,1.74,127.46.62,29.6,1.82,59.17,3.44,88.74q2.31,42.13,5.1,84.24l4.85-4.85c-5.48-.52-11.08.06-16.53-.65-5.29-.69-6.42,8.16-1.26,9.3,5.78,1.28,11.91.52,17.79,1.05a4.87,4.87,0,0,0,4.85-4.85c-3-42.44-6.3-84.87-8.46-127.36-1.5-29.57-2.13-59.17-3.08-88.76-.9-28.09-1.39-56.27-3.28-84.31-.22-3.28-5.12-3.35-5.16,0Z"/><path class="cls-5" d="M998.55,624.88l.5-.51-4.27-3.28a65.1,65.1,0,0,0-1.09,8.08c-.32,2.83-1.09,5.68-1.07,8.52,0,5.89,8.76,5.81,9.09,0,.16-2.79-.45-5.72-.62-8.52a64.89,64.89,0,0,0-.7-8.08c-.75-4-7.47-1.68-5.31,2.24l.19.68a2,2,0,0,0,3.29.87Z"/><path class="cls-5" d="M828.3,621.78c-1.8-15.9-4.82-31.66-5.85-47.64a147.41,147.41,0,0,0-8.23-40l-3,5.21c4.39-.68,9-2.1,13.46-2,3.91.08,7.75.68,11.68.69,8.13,0,16.24,0,24.37-.11,7.81-.14,15.61-.75,23.42-.8,3.9,0,7.81,0,11.71.07q3.42,0,6.83.12c.57,0,6.07.35,4.79-.67L906,532.86c.07,5.41-2,11-2.5,16.46-.53,6.32-3.06,12.78-4.49,19-2.59,11.24-6.64,23.29-5.18,34.87a1.32,1.32,0,0,0,2.45.66c3.65-6,5.14-12.13,7-18.86,1.92-6.95,3.77-13.94,5.37-21,.79-3.48,1.38-7,2.36-10.47s2.38-6.36,3.26-9.69c1.39-5.26,5.1-13.36-1.63-16.38-3-1.35-7.6-.77-10.84-.85q-6.83-.18-13.66-.25c-8.45-.08-16.93-.52-25.37-.23s-16.9,1-25.35,2.08c-4.33.54-8.35,1.5-12.61,2.34-4.77.94-9.79.3-14.63.47a4.29,4.29,0,0,0-4.08,5.36c6.39,28.39,7.31,59.41,19.71,86.1a1.37,1.37,0,0,0,2.53-.69Z"/><path class="cls-5" d="M19.68,631.24c9.37,1.17,18.4,2.16,27.88,2.47,9.3.31,18.59.1,27.88-.44,18.25-1.06,36.49-.37,54.76,0,37.2.72,74.31,2.53,111.45,4.58,20.8,1.15,41.77,3.53,62.6,3.18,3.34-.06,4.38-5.49.82-6.08-17.94-3-36.34-3.44-54.48-4.41q-28.34-1.51-56.69-2.16c-18.58-.45-37.16-.88-55.74-1.12-18.85-.24-38,.9-56.75-.34a247.69,247.69,0,0,0-30.87-.46,275.65,275.65,0,0,0-31,3.7c-.68.12-.42,1,.15,1.1Z"/><path class="cls-5" d="M723.74,198.73"/><path class="cls-5" d="M97.44,312.28a.57.57,0,0,1,.15.09l-1.13-.87.16.16-.85-1.1,0,.05-.54-1.29v.06l-.19-1.42V308a5.89,5.89,0,0,0,1.55,3.75,5.28,5.28,0,0,0,3.75,1.55,5.67,5.67,0,0,0,2.83-.76,5.69,5.69,0,0,0,1.92-7.94,5.61,5.61,0,0,0-4.84-2.78,5.85,5.85,0,0,0-4,1.64,5.79,5.79,0,0,0-1.64,4,5.56,5.56,0,0,0,2.78,4.84Z"/><path class="cls-5" d="M359,295l.21-.29c1.79-2.53-.62-6-3.44-6s-5.23,3.46-3.44,6l.21.29a3.81,3.81,0,0,0,6.47,0Z"/><path class="cls-5" d="M282.91,413.41l0,.16a4.41,4.41,0,0,0,1.12,4.24,4.36,4.36,0,0,0,6.17,0,4.47,4.47,0,0,0,1.12-4.24l0-.16-.44-1a3.27,3.27,0,0,0-1.11-1.21,4.12,4.12,0,0,0-2.62-.93,5.13,5.13,0,0,0-2.18.59,4.34,4.34,0,0,0-2,2.58Z"/><path class="cls-5" d="M407.08,49A7.21,7.21,0,0,0,412,47a5.24,5.24,0,0,0,1.44-2.25,5.26,5.26,0,0,0,.6-2.69,7.06,7.06,0,0,0-2-4.94,7,7,0,0,0-9.88,0,5.24,5.24,0,0,0-1.44,2.25,5.26,5.26,0,0,0-.6,2.69,7.06,7.06,0,0,0,2,4.94,7.26,7.26,0,0,0,4.94,2Z"/><path class="cls-5" d="M97.9,7.13c.32.07-.33-.19-.13-.07s.06,0-.09-.07a.55.55,0,0,1-.23-.23c-.27-.28,0,0,0,0s-.2-.56-.11-.19,0-.54-.05-.32a1.06,1.06,0,0,0,0,.27s.11-.7,0-.37a1.26,1.26,0,0,1,.32-.62q.26-.31.06-.11l4.23.55a6.56,6.56,0,0,0-1.15-1.48,4.41,4.41,0,0,0-.87-.65,3.14,3.14,0,0,0-2.16-.26A2.46,2.46,0,0,0,96,5.39a3.28,3.28,0,0,0,.87,3.07,7.17,7.17,0,0,0,1.4,1.23,2.7,2.7,0,0,0,3.69-1,4.09,4.09,0,0,0,.37-2.64,3.38,3.38,0,0,0-1-1.76,3.37,3.37,0,0,0-3.82-.62,1.89,1.89,0,0,0,.45,3.43Z"/><path class="cls-5" d="M249.44,70a1.8,1.8,0,0,1-1.26,1.19c.38-.11-.79,0-.31,0a1.72,1.72,0,0,1-.94-.26q.36.22-.39-.31-.53-.78-.33-.41l-.31-.73a.6.6,0,0,1,0,.16l-.11-.83v.09l.43-1.6-.07.11.5-.65a1.48,1.48,0,0,1-.28.27l.68-.53-.35.19.84-.35a1.72,1.72,0,0,1-.4.1l1-.13a1.1,1.1,0,0,1-.27,0l1,.13-.13,0a3.7,3.7,0,1,0,0,7.14,4.53,4.53,0,0,0,3.48-4.25,3.55,3.55,0,0,0-3.53-3.74c-2.53,0-4.57,2.56-3.35,4.94a2.24,2.24,0,0,0,2.24,1.07A2.27,2.27,0,0,0,249.44,70Z"/><path class="cls-5" d="M.95,137.69a4.62,4.62,0,0,0,3.48,3.37,5.29,5.29,0,0,0,5-1.39l-.82.64a4.93,4.93,0,0,0,1.81-1.74,4.82,4.82,0,0,0,.4-3.72,5.41,5.41,0,0,0-3.18-3.48A6.09,6.09,0,0,0,3.7,131a5,5,0,0,0-3.69,5,4.47,4.47,0,0,0,2.71,4,4.21,4.21,0,0,0,2.28.3,4.14,4.14,0,0,0,2.53-1.21l.12-.12-.91.7a1.08,1.08,0,0,1,.21-.12l-1.09.46c.55-.18,1-.46,1.56-.69l-1.1.46a1.79,1.79,0,0,1,.35-.08L5.46,140a2,2,0,0,1,.37,0l-1.2-.16a1.81,1.81,0,0,1,.35.09l-1.07-.45.23.13-.9-.69a1.32,1.32,0,0,1,.18.18l-.69-.89a.83.83,0,0,1,.09.15l-.44-1c0,.09,0,.17.08.26a6.13,6.13,0,0,0,1.16,2l-.67-.87.07.12-.42-1,0,.07-.15-1.1v.08l.15-1.08,0,.08.41-1a1.37,1.37,0,0,1-.14.21l.63-.81-.19.18.8-.62a1.87,1.87,0,0,1-.31.18l.93-.39a2,2,0,0,1-.35.1l1-.14a1.71,1.71,0,0,1-.36,0l1,.13-.25-.06.89.38a1.24,1.24,0,0,1-.22-.12l.74.57-.12-.12.57.74a.87.87,0,0,1-.1-.15A3.62,3.62,0,0,0,3,133.43a3.45,3.45,0,0,0-1.73,1.48,4.06,4.06,0,0,0-.36,2.78Z"/><path class="cls-5" d="M172.48,356.77c-1.71,3.43-6.33,10.92-3.72,14.71a11.65,11.65,0,0,0,2.79,2.29c1.54,1.12,3,2.58,4.59,3.56,1.81,1.11,3.16.8,4.84-.35a7.35,7.35,0,0,0,3.17-4.11,25.28,25.28,0,0,0,.53-3.21c.18-1.14,1.11-2.78,1-3.94-.26-1.92-2.32-2.61-3.69-3.63-2.69-2-4.79-4.66-7.47-6.68-1.41-1.06-3.24,1-2.36,2.36,2,3.11,5.13,5.18,8.17,7.15,1.93,1.25,2.05.81,1.49,2.89-.39,1.45-.33,3.23-1.48,4.29a5.9,5.9,0,0,1-2.35,1c-1.49,0-5.82-2.49-6.13-3.8s1.16-4.2,1.37-5.69c.3-2.14.39-4.33.49-6.49a.64.64,0,0,0-1.19-.32Z"/><path class="cls-5" d="M310.78,243.43a48.58,48.58,0,0,0-8.39,2.66c-1.69.76-4,1.57-4.91,3.39-1,2.1,0,5.09.07,7.3s-.38,4.37,1.8,5.56,4.32-.16,6.36-.81,5.28-.79,6.81-2.28c1.34-1.3.58-3.3.46-4.91-.26-3.34.43-6.67.22-10a1.73,1.73,0,0,0-3.39-.46c-1,3.39-.56,7-.11,10.46.3,2.39-.28,2.94-2.68,3.39-1.24.23-4.42.8-5.18,0s-1.11-3.93-1.27-5c-.3-1.95.47-1.74,2.16-2.55a47.47,47.47,0,0,0,8.68-5.74c.53-.42-.06-1.2-.62-1.07Z"/><path class="cls-5" d="M191.46,136.69c-1.69,3.62-3.62,7.54-4,11.57-.32,3.17,1.65,4.18,4.08,5.84s5.38,5.38,8.38,2.92c1.22-1,1.73-2.81,2.42-4.17,1-2,2.29-3.88,3.28-5.92a1.6,1.6,0,0,0,0-1.6c-1-1.41-2.59-2.23-4-3.18-3-2-5.26-4.76-8.16-6.83-1.4-1-3.3,1-2.36,2.36a22,22,0,0,0,6.74,6c1.42.91,4.11,2,5,3.27v-1.6a19.07,19.07,0,0,1-3.17,4.71c-.87,1-2.07,2.74-3.3,3.27l1.91-.25a14.54,14.54,0,0,1-5.7-2.26q-1.56-.12-1.5-1.53a18.1,18.1,0,0,0,.64-2.6,50.28,50.28,0,0,0,.91-9.65c0-.6-.92-.91-1.19-.32Z"/><path class="cls-5" d="M54.26,204.23a48.36,48.36,0,0,0,.3,8.82c.3,2,.45,4.64,2.27,5.89,2.06,1.41,5.49,1.38,7.86,2,2,.48,4,.92,5.25-1.13s.38-4.8.34-6.89c0-1.83.71-5-.65-6.57s-4.2-1.17-5.9-1.61c-2.68-.7-5.23-2.05-7.94-2.54a1.73,1.73,0,0,0-1.33,3.15c2.54,1.78,5.88,2.29,8.88,2.75,1.27.2,3.24,0,3.79,1.41s-.3,4.84-.89,6.21c-.47,1.08-.09.71-1,1a10.33,10.33,0,0,1-3,0c-.57,0-2.62.17-3-.11-.56-.42-.36-1-.48-1.64a57.23,57.23,0,0,0-3.3-10.85.64.64,0,0,0-1.25.17Z"/><path class="cls-5" d="M200.18,217.2c2.33,5.44,4.79,10.81,7.29,16.17.91,1.94,4,.22,2.91-1.7-2.86-5.15-5.75-10.25-8.78-15.3-.56-.94-1.83-.12-1.42.83Z"/><path class="cls-5" d="M197.59,229.94c2.24.72,5.33-1.07,7.44-1.79a43.3,43.3,0,0,0,8-3.41c2.33-1.37.81-5.32-1.88-4.46A41.26,41.26,0,0,0,203.3,224c-1.93,1.11-5.37,2.27-6.32,4.4a1,1,0,0,0,.61,1.49Z"/><path class="cls-5" d="M246.63,317.31c1.65,4.14,3.44,8.19,5.27,12.25.88,1.94,4,.22,2.91-1.7-2.16-3.78-4.35-7.51-6.68-11.18-.47-.75-1.87-.27-1.51.64Z"/><path class="cls-5" d="M244.47,326.79c1.48,1.26,3.93-.08,5.53-.56a26.31,26.31,0,0,0,6.73-2.72c2.27-1.46.87-5.22-1.88-4.46-1.54.43-12.78,5.71-10.39,7.74Z"/><path class="cls-5" d="M360.88,116.94c1.28,3.19,2.67,6.32,4.09,9.45.66,1.46,3,.16,2.19-1.28-1.67-2.92-3.35-5.81-5.15-8.65-.35-.56-1.4-.2-1.13.48Z"/><path class="cls-5" d="M359.36,124.39c1.1.82,3.19-.31,4.34-.66a20.1,20.1,0,0,0,4.95-2,1.84,1.84,0,0,0-1.41-3.34,23.79,23.79,0,0,0-5.88,3c-.7.44-3.49,1.88-2,3Z"/><path class="cls-5" d="M753.2,4.84c-1.69,3.62-3.62,7.54-4,11.57-.32,3.17,1.65,4.18,4.08,5.84s5.38,5.38,8.38,2.92c1.22-1,1.73-2.81,2.42-4.17,1-2,2.29-3.88,3.28-5.92a1.6,1.6,0,0,0,0-1.6c-1-1.41-2.59-2.23-4-3.18-3-2-5.26-4.76-8.16-6.83-1.4-1-3.3,1-2.36,2.36a22,22,0,0,0,6.74,6c1.42.91,4.11,2,5,3.27v-1.6a19.07,19.07,0,0,1-3.17,4.71c-.87,1-2.07,2.74-3.3,3.27l1.91-.25a14.54,14.54,0,0,1-5.7-2.26q-1.56-.12-1.5-1.53a18.1,18.1,0,0,0,.64-2.6,50.28,50.28,0,0,0,.91-9.65c0-.6-.92-.91-1.19-.32Z"/><path class="cls-5" d="M949.53,73.85l.21-.29c1.79-2.53-.62-6-3.44-6s-5.23,3.46-3.44,6l.21.29a3.81,3.81,0,0,0,6.47,0Z"/><path class="cls-5" d="M737.47,103.32c1.71,4,3.53,8,5.38,11.94.68,1.46,3,.17,2.19-1.28-2.12-3.8-4.25-7.57-6.49-11.29-.42-.7-1.37-.09-1.07.62Z"/><path class="cls-5" d="M735.56,112.74c1.65.55,4-.78,5.5-1.31a31.51,31.51,0,0,0,5.94-2.52c1.74-1,.61-4-1.41-3.34a30,30,0,0,0-5.83,2.79c-1.41.82-4,1.69-4.66,3.27a.78.78,0,0,0,.45,1.12Z"/><path class="cls-5" d="M846.86,67.76a4.62,4.62,0,0,0,3.48,3.37,5.29,5.29,0,0,0,5-1.39l-.82.64a4.93,4.93,0,0,0,1.81-1.74,4.82,4.82,0,0,0,.4-3.72,5.41,5.41,0,0,0-3.18-3.48,6.09,6.09,0,0,0-3.95-.31,5,5,0,0,0-3.69,5,4.47,4.47,0,0,0,2.71,4,4.21,4.21,0,0,0,2.28.3,4.14,4.14,0,0,0,2.53-1.21l.12-.12-.91.7a1.08,1.08,0,0,1,.21-.12l-1.09.46c.55-.18,1-.46,1.56-.69l-1.1.46a1.79,1.79,0,0,1,.35-.08l-1.21.16a2,2,0,0,1,.37,0l-1.2-.16a1.81,1.81,0,0,1,.35.09l-1.07-.45.23.13-.9-.69a1.32,1.32,0,0,1,.18.18l-.69-.89a.83.83,0,0,1,.09.15l-.44-1c0,.09,0,.17.08.26a6.13,6.13,0,0,0,1.16,2l-.67-.87.07.12-.42-1,0,.07-.15-1.1v.08l.15-1.08,0,.08.41-1a1.37,1.37,0,0,1-.14.21l.63-.81-.19.18.8-.62a1.87,1.87,0,0,1-.31.18l.93-.39a2,2,0,0,1-.35.1l1-.14a1.71,1.71,0,0,1-.36,0l1,.13-.25-.06.89.38a1.24,1.24,0,0,1-.22-.12l.74.57-.12-.12.57.74a.87.87,0,0,1-.1-.15A3.62,3.62,0,0,0,849,63.5,3.45,3.45,0,0,0,847.23,65a4.06,4.06,0,0,0-.36,2.78Z"/><path class="cls-5" d="M20.54,631.68a10.45,10.45,0,0,1,0-10.66c2.18-3.54,6.09-4.47,9.94-4.9,8.2-.91,16.51-1.3,24.73-2,15.89-1.31,31.8-2.15,47.73-2.85,32.31-1.41,64.64-1.3,97-.38,64,1.83,127.74,7.74,191.69,10,64.44,2.26,129,2.16,193.4,4s129.17,3.58,193.71,1.88c36.18-1,72.36-2.81,108.55-3.12,36.36-.31,72.84.16,109.08-3.32,2.72-.26,2.8-4.48,0-4.31-33.48,2-66.69,3.39-100.23,2.32s-67.05-.2-100.6.71c-66.52,1.8-133.1.05-199.63-.43-66.78-.49-133.59.67-200.34-1.9-65.91-2.54-131.66-8.11-197.6-10.18-32.94-1-66-1.33-98.9-.27-16.57.53-33.14,1.68-49.65,3.18-7.16.65-14.63,1.24-21.65,2.84-4.58,1-8.27,3.68-9.8,8.26a12.6,12.6,0,0,0,1.66,11.62.52.52,0,0,0,.89-.52Z"/><path class="cls-5" d="M289,638.16c13.38,4.74,29.06,3.32,43.06,3.59,14.58.28,29.17.75,43.74,1.3,29.5,1.11,59,2.53,88.48,3.52,25.39.85,50.65.51,76-.22,19.88-.58,39.81.2,59.7.09,21.16-.12,42.29-.87,63.43-1.66a1.78,1.78,0,0,0,0-3.56c-39.08-2.47-78.11-2.92-117.26-2.4-53.17.7-106.35-2.05-159.44-4.45-16.56-.75-33.13-1.42-49.71-1.79-8-.18-15.91-.35-23.86-.14-8.25.22-16.4.43-24.17,3.47a1.18,1.18,0,0,0,0,2.26Z"/><path class="cls-5" d="M592.21,644c50.07,4,100.35,2.87,150.54,2.6,59.79-.32,119.56-1.55,179.35-1.91,13.81-.08,27.64,0,41.44-.3,11.31-.23,22.79,0,34-1.29a3.24,3.24,0,0,0,0-6.47c-10-.89-20-.44-30-.38-11.83.06-23.65.36-35.48.58-28.34.52-56.67.65-85,.93q-89.68.9-179.35,1.7c-25.2.19-50.35,1.3-75.48,3a.75.75,0,0,0,0,1.5Z"/></g></g></svg>