<svg xmlns="http://www.w3.org/2000/svg" xmlns:xlink="http://www.w3.org/1999/xlink" width="40" height="40"><defs><circle id="a" cx="20" cy="20" r="20"/><path id="c" d="M36.568-6.414c-5.126-5.143-13.437-5.143-18.563 0L7.472 4.152l9.282 9.312c5.126 5.143 5.126 13.481 0 18.624L36.568 12.21c5.126-5.143 5.126-13.481 0-18.624"/></defs><g fill="none" fill-rule="evenodd"><mask id="b" fill="#fff"><use xlink:href="#a"/></mask><use fill="#E5E7F1" xlink:href="#a"/><g mask="url(#b)"><use fill="#99A2BF" xlink:href="#c"/><use fill="#000" fill-opacity=".15" xlink:href="#c"/></g><circle cx="22" cy="-8.58" r="25" fill="#99A2BF" mask="url(#b)"/><path fill="#AEEC73" d="M16.808 13.489L7.527 4.177l-9.282 9.312c-5.126 5.143-5.126 13.48 0 18.623 5.126 5.143 13.437 5.143 18.563 0 5.127-5.142 5.127-13.48 0-18.623" mask="url(#b)"/><circle cx="-2.83" cy="12" r="13" fill="#FFF" mask="url(#b)" opacity=".26"/></g></svg>