<svg xmlns="http://www.w3.org/2000/svg" data-name="Layer 1" viewBox="0 0 40 40"><circle cx="20" cy="20" r="19.5" fill="#fff"/><path fill="#e5e7f1" d="M20 1A19 19 0 1 1 1 20 19 19 0 0 1 20 1m0-1a20 20 0 1 0 20 20A20 20 0 0 0 20 0z"/><path fill="#45d0eb" d="M30.6 13.72a4.77 4.77 0 0 0-6.746-.014l-.014.014L20 17.56l3.38 3.38a4.77 4.77 0 0 1 .014 6.746l-.014.014 7.22-7.22a4.77 4.77 0 0 0 .014-6.746l-.014-.014"/><path fill="#664277" d="M23.38 20.94L20 17.56l-3.38 3.38a4.78 4.78 0 1 0 6.76 0"/><path fill="#fa476f" d="M16.62 20.94L20 17.56l-3.84-3.84a4.78 4.78 0 0 0-6.76 6.76l7.22 7.22a4.77 4.77 0 0 1-.014-6.746l.014-.014"/></svg>