<svg xmlns="http://www.w3.org/2000/svg" xmlns:xlink="http://www.w3.org/1999/xlink" viewBox="0 0 260 124"><defs><linearGradient id="a" x1="50%" x2="50%" y1="90.4%" y2="0%"><stop offset="0%" stop-color="#F7F9FB"/><stop offset="100%" stop-color="#AEEC73"/></linearGradient><circle id="b" cx="68" cy="12" r="5"/><circle id="c" cx="130" cy="33" r="5"/><circle id="d" cx="255" cy="5" r="5"/><circle id="e" cx="5" cy="51" r="5"/><circle id="f" cx="193" cy="17" r="5"/></defs><g fill="none" fill-rule="evenodd"><path fill="url(#a)" d="M0 0l15.4 25.4c3.3 5.5 9.4 8.7 15.8 8.3l6.8-.4a20 20 0 0 1 7.1.9L62 39.3l1.2.3L73 42a13.9 13.9 0 0 0 15.5-7l9.5-17.8a11.1 11.1 0 0 1 16.7-3.4l1.7 1.3a19.7 19.7 0 0 0 19.1 3l3.9-1.4a20 20 0 0 1 13.2-.3l11.6 3.8a20 20 0 0 1 4.8 2.3l18.4 12.2.4.3L207 47c.9.6 1.8 1.1 2.8 1.5l10.6 4.6a20 20 0 0 0 17.2-.7L250 46v74H0V0z" opacity=".3" transform="translate(5 4)"/><path stroke="#AEEC73" stroke-dasharray="2 6" stroke-linecap="round" stroke-linejoin="round" stroke-width="2" d="M5 4l15.4 25.4c3.3 5.5 9.4 8.7 15.9 8.3l6.7-.4a20 20 0 0 1 7.1.9L67 43.3l1.2.3L78 46a13.9 13.9 0 0 0 15.5-7l9.5-17.8a11.1 11.1 0 0 1 16.7-3.4l1.7 1.3a19.7 19.7 0 0 0 19.1 3l3.9-1.4a20 20 0 0 1 13.2-.3l11.6 3.8a20 20 0 0 1 4.8 2.3l18.4 12.2.4.3L212 51c.9.6 1.8 1.1 2.8 1.5l10.6 4.6a20 20 0 0 0 17.2-.7L255 50"/><g transform="matrix(1 0 0 -1 0 56)"><path stroke="#3D4250" stroke-width="2" d="M5.3 52L68 11.5 130 33l63-16 61.7-12"/><use fill="#FFF" xlink:href="#b"/><circle cx="68" cy="12" r="4" stroke="#3D4250" stroke-width="2"/><use fill="#FFF" xlink:href="#c"/><circle cx="130" cy="33" r="4" stroke="#3D4250" stroke-width="2"/><use fill="#FFF" xlink:href="#d"/><circle cx="255" cy="5" r="4" stroke="#3D4250" stroke-width="2"/><use fill="#FFF" xlink:href="#e"/><circle cx="5" cy="51" r="4.1" stroke="#3D4250" stroke-width="1.8"/><g><use fill="#FFF" xlink:href="#f"/><circle cx="193" cy="17" r="4.1" stroke="#3D4250" stroke-width="1.8"/></g></g></g></svg>