<svg xmlns="http://www.w3.org/2000/svg" width="200" height="53" viewBox="0 0 200 53">
  <g fill="none" fill-rule="evenodd">
    <path fill="#FA476F" d="M26.811405,26.9082849 L37.3300097,16.3896802 L25.394157,4.45382752 C19.5848547,-1.35547481 10.1661531,-1.35547481 4.35694767,4.45382752 C-1.45235465,10.2631298 -1.45235465,19.6817345 4.35694767,25.4910368 L26.811405,47.9454942 C21.0021027,42.1361919 21.0021027,32.7175872 26.811405,26.9082849"/>
    <path fill="#45D0EB" d="M70.3030233,4.45382752 C64.4938178,-1.35547481 55.0751163,-1.35547481 49.265814,4.45382752 L37.3299612,16.3896802 L47.8486628,26.9082849 C53.6578682,32.7175872 53.6578682,42.1361919 47.8486628,47.9453973 L70.3030233,25.4910368 C76.1123256,19.6817345 76.1123256,10.2631298 70.3030233,4.45382752"/>
    <path fill="#664277" d="M47.8486143,26.9082849 L37.3300097,16.3896802 L26.811405,26.9082849 C21.0021027,32.7175872 21.0021027,42.1361919 26.811405,47.9454942 C32.6207074,53.7547965 42.039312,53.7547965 47.8486143,47.9454942 C53.6578198,42.1361919 53.6578198,32.7175872 47.8486143,26.9082849"/>
    <path fill="#FFF" d="M116.447452,21.7393605 L116.447452,26.1594186 L112.509467,26.1594186 L112.509467,40.5047674 L106.964215,40.5047674 L106.964215,26.1594186 L103.548614,26.1594186 L103.548614,21.7393605 L106.964215,21.7393605 L106.964215,14.5466279 L112.509467,14.5466279 L112.509467,21.7393605 L116.447452,21.7393605 Z M123.439147,40.5047384 L117.853682,40.5047384 L117.853682,11.5328391 L123.439147,11.5328391 L123.439147,24.6727616 C124.202616,22.3421415 126.935078,21.3374903 128.703101,21.3374903 C133.64564,21.3374903 136.217345,24.6324516 136.217345,30.2982461 L136.217345,40.5047384 L130.63188,40.5047384 L130.63188,30.4992151 C130.63188,28.0479554 128.863857,26.7621027 127.176163,26.7621027 C125.40814,26.7621027 123.439147,27.7265407 123.439147,30.5796415 L123.439147,40.5047384 Z M144.093343,40.5047384 L138.507878,40.5047384 L138.507878,21.7393314 L144.093343,21.7393314 L144.093343,26.2800291 C145.057684,22.7840988 147.468634,21.3374903 149.39751,21.3374903 C150.723479,21.3374903 151.72813,21.5786725 152.612141,22.0206298 L151.60749,27.0434981 C150.602936,26.5613275 149.638595,26.4809012 148.754583,26.4809012 C145.539952,26.4809012 144.093343,29.0123934 144.093343,33.9548353 L144.093343,40.5047384 Z M153.696899,40.5047481 L153.696899,21.7393411 L159.242151,21.7393411 L159.242151,40.5047481 L153.696899,40.5047481 Z M156.469574,11.5328488 C158.35814,11.5328488 159.885174,12.9393411 159.885174,14.7876938 C159.885174,16.6360465 158.35814,18.0827519 156.469574,18.0827519 C154.580911,18.0827519 152.973643,16.6360465 152.973643,14.7876938 C152.973643,12.9393411 154.580911,11.5328488 156.469574,11.5328488 Z M160.326899,21.7393605 L166.273992,21.7393605 L170.653934,33.3923643 L174.993663,21.7393605 L180.980872,21.7393605 L173.024767,40.5047674 L168.242984,40.5047674 L160.326899,21.7393605 Z M194.40189,38.3750969 C193.196463,40.1833333 190.383672,40.866376 188.937064,40.866376 C184.155281,40.866376 179.373595,37.1293605 179.373595,31.101938 C179.373595,25.0745155 184.155281,21.3375 188.937064,21.3375 C190.14249,21.3375 192.955378,21.7393411 194.40189,23.828876 L194.40189,21.7393411 L199.947141,21.7393411 L199.947141,40.5047481 L194.40189,40.5047481 L194.40189,38.3750969 Z M189.861289,35.5623062 C192.151696,35.5623062 194.40189,33.9148256 194.40189,31.101938 C194.40189,28.2890504 192.151696,26.6416667 189.861289,26.6416667 C187.530669,26.6416667 185.159835,28.4096899 185.159835,31.101938 C185.159835,33.794186 187.530669,35.5623062 189.861289,35.5623062 Z"/>
  </g>
</svg>
