<svg xmlns="http://www.w3.org/2000/svg" width="75" height="81" viewBox="0 0 75 81">
  <g fill="none" fill-rule="evenodd">
    <path fill="#45D0EB" d="M70.5766342,4.47115759 C64.7447276,-1.36074903 55.2894747,-1.36074903 49.4576654,4.47115759 L37.4752724,16.4534533 L48.0348054,27.0129864 C53.8667121,32.844893 53.8667121,42.3001459 48.0348054,48.1319553 L70.5766342,25.5902237 C76.4084436,19.7583171 76.4084436,10.3030642 70.5766342,4.47115759"/>
    <path fill="#664277" d="M48.0347568,27.0129767 L37.4752237,16.4534436 L26.9156907,27.0129767 C21.083784,32.8448833 21.083784,42.3001362 26.9156907,48.1320428 C32.7475973,53.9639494 42.2029475,53.9639494 48.0347568,48.1320428 C53.8666634,42.3001362 53.8666634,32.8448833 48.0347568,27.0129767"/>
    <path fill="#FA476F" d="M26.9157393,27.0129767 L37.4752724,16.4534436 L25.4928794,4.47114786 C19.66107,-1.36075875 10.2058171,-1.36075875 4.37391051,4.47114786 C-1.45799611,10.3030545 -1.45799611,19.7583074 4.37391051,25.590214 L26.9157393,48.1320428 C21.0838327,42.3001362 21.0838327,32.8448833 26.9157393,27.0129767"/>
    <path fill="#3D4250" d="M10.0021109,65.642393 L10.0021109,69.0698249 L6.9484144,69.0698249 L6.9484144,80.1936576 L2.64851167,80.1936576 L2.64851167,69.0698249 L6.80933852e-05,69.0698249 L6.80933852e-05,65.642393 L2.64851167,65.642393 L2.64851167,60.0649611 L6.9484144,60.0649611 L6.9484144,65.642393 L10.0021109,65.642393 Z M15.4236479,80.1936479 L11.0926167,80.1936479 L11.0926167,57.7279864 L15.4236479,57.7279864 L15.4236479,67.9170914 C16.0156712,66.1097957 18.1344455,65.3308074 19.5055545,65.3308074 C23.3380447,65.3308074 25.3322082,67.8858658 25.3322082,72.2793482 L25.3322082,80.1936479 L21.001177,80.1936479 L21.001177,72.4350875 C21.001177,70.5343093 19.6300681,69.5372276 18.3215078,69.5372276 C16.9503988,69.5372276 15.4236479,70.2850875 15.4236479,72.4974416 L15.4236479,80.1936479 Z M31.4395623,80.1936479 L27.1085311,80.1936479 L27.1085311,65.6423833 L31.4395623,65.6423833 L31.4395623,69.1632977 C32.1873249,66.4525 34.0568774,65.3308074 35.5525,65.3308074 C36.5808074,65.3308074 37.3597957,65.5177724 38.0452043,65.8604767 L37.266216,69.755321 C36.4873249,69.3815856 35.739465,69.3192315 35.0539591,69.3192315 C32.5612549,69.3192315 31.4395623,71.2821693 31.4395623,75.1146595 L31.4395623,80.1936479 Z M38.8865759,80.193677 L38.8865759,65.6424125 L43.1864786,65.6424125 L43.1864786,80.193677 L38.8865759,80.193677 Z M41.0364786,57.7279183 C42.5009728,57.7279183 43.6850195,58.8185798 43.6850195,60.2519455 C43.6850195,61.6851167 42.5009728,62.8069066 41.0364786,62.8069066 C39.5719844,62.8069066 38.3256809,61.6851167 38.3256809,60.2519455 C38.3256809,58.8185798 39.5719844,57.7279183 41.0364786,57.7279183 Z M44.0275292,65.642393 L48.6391051,65.642393 L52.0354086,74.6785798 L55.4005837,65.642393 L60.0433852,65.642393 L53.8738327,80.1936576 L50.1659533,80.1936576 L44.0275292,65.642393 Z M70.4503502,78.5422471 C69.5156226,79.9444844 67.3343969,80.4740564 66.2127043,80.4740564 C62.5048249,80.4740564 58.7968482,77.5762938 58.7968482,72.9024611 C58.7968482,68.2285311 62.5048249,65.3307685 66.2127043,65.3307685 C67.1475292,65.3307685 69.3285603,65.6424416 70.4503502,67.2627724 L70.4503502,65.6424416 L74.7502529,65.6424416 L74.7502529,80.1936089 L70.4503502,80.1936089 L70.4503502,78.5422471 Z M66.9294358,76.3611187 C68.7055058,76.3611187 70.4503502,75.0835895 70.4503502,72.9024611 C70.4503502,70.7212354 68.7055058,69.4439008 66.9294358,69.4439008 C65.1221401,69.4439008 63.283716,70.8147179 63.283716,72.9024611 C63.283716,74.990107 65.1221401,76.3611187 66.9294358,76.3611187 Z"/>
  </g>
</svg>
