<svg xmlns="http://www.w3.org/2000/svg" xmlns:xlink="http://www.w3.org/1999/xlink" width="20" height="20" viewBox="0 0 20 20">
  <defs>
    <path id="close-20-a" d="M12.2928932,13.7071068 C12.6834175,14.0976311 13.3165825,14.0976311 13.7071068,13.7071068 C14.0976311,13.3165825 14.0976311,12.6834175 13.7071068,12.2928932 L8.41421358,6.99999999 L13.7071068,1.70710678 C14.0976311,1.31658249 14.0976311,0.68341751 13.7071068,0.292893218 C13.3165825,-0.0976310728 12.6834175,-0.0976310728 12.2928932,0.292893218 L6.99999999,5.58578643 L1.70710678,0.292893218 C1.31658249,-0.0976310728 0.68341751,-0.0976310728 0.292893218,0.292893218 C-0.0976310728,0.68341751 -0.0976310728,1.31658249 0.292893218,1.70710678 L5.58578643,6.99999999 L0.292893218,12.2928932 C-0.0976310728,12.6834175 -0.0976310728,13.3165825 0.292893218,13.7071068 C0.68341751,14.0976311 1.31658249,14.0976311 1.70710678,13.7071068 L6.99999999,8.41421358 L12.2928932,13.7071068 Z"/>
  </defs>
  <g fill="none" fill-rule="evenodd" transform="translate(3 3)">
    <mask id="close-20-b" fill="#fff">
      <use xlink:href="#close-20-a"/>
    </mask>
    <use fill="#3D4250" fill-rule="nonzero" xlink:href="#close-20-a"/>
    <g fill="#3D4250" mask="url(#close-20-b)">
      <rect width="19.841" height="19.841" transform="translate(-3 -3)"/>
    </g>
  </g>
</svg>
