<svg xmlns="http://www.w3.org/2000/svg" xmlns:xlink="http://www.w3.org/1999/xlink" width="24" height="24" viewBox="0 0 24 24">
  <defs>
    <path id="close-24-a" d="M14.2928932,15.7071068 C14.6834175,16.0976311 15.3165825,16.0976311 15.7071068,15.7071068 C16.0976311,15.3165825 16.0976311,14.6834175 15.7071068,14.2928932 L9.41421359,7.99999999 L15.7071068,1.70710678 C16.0976311,1.31658249 16.0976311,0.68341751 15.7071068,0.292893218 C15.3165825,-0.0976310728 14.6834175,-0.0976310728 14.2928932,0.292893218 L7.99999999,6.58578643 L1.70710678,0.292893218 C1.31658249,-0.0976310728 0.68341751,-0.0976310728 0.292893218,0.292893218 C-0.0976310728,0.68341751 -0.0976310728,1.31658249 0.292893218,1.70710678 L6.58578643,7.99999999 L0.292893218,14.2928932 C-0.0976310728,14.6834175 -0.0976310728,15.3165825 0.292893218,15.7071068 C0.68341751,16.0976311 1.31658249,16.0976311 1.70710678,15.7071068 L7.99999999,9.41421359 L14.2928932,15.7071068 Z"/>
  </defs>
  <g fill="none" fill-rule="evenodd" transform="translate(4 4)">
    <mask id="close-24-b" fill="#fff">
      <use xlink:href="#close-24-a"/>
    </mask>
    <use fill="#3D4250" fill-rule="nonzero" xlink:href="#close-24-a"/>
    <g fill="#3D4250" mask="url(#close-24-b)">
      <rect width="24" height="24" transform="translate(-4 -4)"/>
    </g>
  </g>
</svg>
