<svg xmlns="http://www.w3.org/2000/svg" xmlns:xlink="http://www.w3.org/1999/xlink" width="16" height="16" viewBox="0 0 16 16">
  <defs>
    <path id="error-16-a" d="M7,6 C7,6.55 6.55,7 6,7 C5.45,7 5,6.55 5,6 L5,3 C5,2.45 5.45,2 6,2 C6.55,2 7,2.45 7,3 L7,6 Z M6,10 C5.45,10 5,9.55 5,9 C5,8.94 5.01,8.88 5.02,8.83 C5.1,8.36 5.51,8 6,8 C6.49,8 6.9,8.36 6.98,8.83 C6.99,8.88 7,8.94 7,9 C7,9.55 6.55,10 6,10 Z M6,0 C2.69,0 0,2.69 0,6 C0,9.31 2.69,12 6,12 C9.31,12 12,9.31 12,6 C12,2.69 9.31,0 6,0 Z"/>
  </defs>
  <g fill="none" fill-rule="evenodd" transform="translate(2 2)">
    <mask id="error-16-b" fill="#fff">
      <use xlink:href="#error-16-a"/>
    </mask>
    <use fill="#3D4250" xlink:href="#error-16-a"/>
    <g fill="#3D4250" mask="url(#error-16-b)">
      <rect width="16" height="16" transform="translate(-2 -2)"/>
    </g>
  </g>
</svg>
