<svg xmlns="http://www.w3.org/2000/svg" xmlns:xlink="http://www.w3.org/1999/xlink" width="24" height="24" viewBox="0 0 24 24">
  <defs>
    <path id="personalisation-24-a" d="M9.64636112,16.2268924 L6.8304591,15.1163168 C6.21393434,14.873163 5.9112574,14.1762558 6.15441122,13.5597311 C6.27638444,13.2504638 6.52119188,13.0056564 6.8304591,12.8836832 L9.64636112,11.7731076 C10.1618065,11.5698189 10.5698189,11.1618065 10.7731076,10.6463611 L11.8836832,7.8304591 C12.126837,7.21393434 12.8237442,6.9112574 13.4402689,7.15441122 C13.7495362,7.27638444 13.9943436,7.52119188 14.1163168,7.8304591 L15.2268924,10.6463611 C15.4301811,11.1618065 15.8381935,11.5698189 16.3536389,11.7731076 L19.1695409,12.8836832 C19.7860657,13.126837 20.0887426,13.8237442 19.8455888,14.4402689 C19.7236156,14.7495362 19.4788081,14.9943436 19.1695409,15.1163168 L16.3536389,16.2268924 C15.8381935,16.4301811 15.4301811,16.8381935 15.2268924,17.3536389 L14.1163168,20.1695409 C13.873163,20.7860657 13.1762558,21.0887426 12.5597311,20.8455888 C12.2504638,20.7236156 12.0056564,20.4788081 11.8836832,20.1695409 L10.7731076,17.3536389 C10.5698189,16.8381935 10.1618065,16.4301811 9.64636112,16.2268924 Z M18.8231806,7.61344621 L17.4152295,7.05815841 C17.1069672,6.9365815 16.9556287,6.5881279 17.0772056,6.27986553 C17.1381922,6.12523192 17.2605959,6.0028282 17.4152295,5.94184159 L18.8231806,5.38655379 C19.0809032,5.28490944 19.2849094,5.08090324 19.3865538,4.82318056 L19.9418416,3.41522955 C20.0634185,3.10696717 20.4118721,2.9556287 20.7201345,3.07720561 C20.8747681,3.13819222 20.9971718,3.26059594 21.0581584,3.41522955 L21.6134462,4.82318056 C21.7150906,5.08090324 21.9190968,5.28490944 22.1768194,5.38655379 L23.5847705,5.94184159 C23.8930328,6.0634185 24.0443713,6.4118721 23.9227944,6.72013447 C23.8618078,6.87476808 23.7394041,6.9971718 23.5847705,7.05815841 L22.1768194,7.61344621 C21.9190968,7.71509056 21.7150906,7.91909676 21.6134462,8.17681944 L21.0581584,9.58477045 C20.9365815,9.89303283 20.5881279,10.0443713 20.2798655,9.92279439 C20.1252319,9.86180778 20.0028282,9.73940406 19.9418416,9.58477045 L19.3865538,8.17681944 C19.2849094,7.91909676 19.0809032,7.71509056 18.8231806,7.61344621 Z"/>
  </defs>
  <g fill="none" fill-rule="evenodd" transform="translate(-3)">
    <mask id="personalisation-24-b" fill="#fff">
      <use xlink:href="#personalisation-24-a"/>
    </mask>
    <g fill="#3D4250" mask="url(#personalisation-24-b)">
      <rect width="24" height="24" transform="translate(3)"/>
    </g>
  </g>
</svg>
