<svg xmlns="http://www.w3.org/2000/svg" xmlns:xlink="http://www.w3.org/1999/xlink" width="24" height="24" viewBox="0 0 24 24"><defs><path id="a" d="M18.3 19.7c.4.4 1 .4 1.4 0 .4-.4.4-1 0-1.4L13.4 12l6.3-6.3c.4-.4.4-1 0-1.4-.4-.4-1-.4-1.4 0L12 10.6 5.7 4.3c-.4-.4-1-.4-1.4 0-.4.4-.4 1 0 1.4l6.3 6.3-6.3 6.3c-.4.4-.4 1 0 1.4.4.4 1 .4 1.4 0l6.3-6.3 6.3 6.3z"/></defs><g fill="none" fill-rule="evenodd"><mask id="b" fill="#fff"><use xlink:href="#a"/></mask><use fill="#3D4250" fill-rule="nonzero" xlink:href="#a"/><g fill="#3D4250" mask="url(#b)"><path d="M-4-4h32v32H-4z"/></g></g></svg>
