<?xml version="1.0" encoding="UTF-8"?>
<svg width="220px" height="143px" viewBox="0 0 220 143" version="1.1" xmlns="http://www.w3.org/2000/svg" xmlns:xlink="http://www.w3.org/1999/xlink">
    <!-- Generator: Sketch 49.3 (51167) - http://www.bohemiancoding.com/sketch -->
    <title>Dots</title>
    <desc>Created with Sketch.</desc>
    <defs></defs>
    <g id="Flows" stroke="none" stroke-width="1" fill="none" fill-rule="evenodd">
        <g id="Dashboard/Personalise/Desktop/05" transform="translate(-699.000000, -72.000000)" stroke="#664277" stroke-width="2">
            <g id="Header-Section" transform="translate(0.000000, 62.000000)">
                <g id="Dots" transform="translate(699.000000, 10.000000)">
                    <path d="M5.5,10 C7.98481525,10 10,7.98481525 10,5.5 C10,3.01518475 7.98481525,1 5.5,1 C3.01449556,1 1,3.01477389 1,5.5 C1,7.98522611 3.01449556,10 5.5,10 Z" id="Stroke-1"></path>
                    <path d="M27.5,10 C29.9848153,10 32,7.98481525 32,5.5 C32,3.01518475 29.9848153,1 27.5,1 C25.0144956,1 23,3.01477389 23,5.5 C23,7.98522611 25.0144956,10 27.5,10 Z" id="Stroke-1"></path>
                    <path d="M49.5,10 C51.9848153,10 54,7.98481525 54,5.5 C54,3.01518475 51.9848153,1 49.5,1 C47.0144956,1 45,3.01477389 45,5.5 C45,7.98522611 47.0144956,10 49.5,10 Z" id="Stroke-1"></path>
                    <path d="M71.5,10 C73.9848153,10 76,7.98481525 76,5.5 C76,3.01518475 73.9848153,1 71.5,1 C69.0144956,1 67,3.01477389 67,5.5 C67,7.98522611 69.0144956,10 71.5,10 Z" id="Stroke-1"></path>
                    <path d="M93.5,10 C95.9848153,10 98,7.98481525 98,5.5 C98,3.01518475 95.9848153,1 93.5,1 C91.0144956,1 89,3.01477389 89,5.5 C89,7.98522611 91.0144956,10 93.5,10 Z" id="Stroke-1"></path>
                    <path d="M115.5,10 C117.984815,10 120,7.98481525 120,5.5 C120,3.01518475 117.984815,1 115.5,1 C113.014496,1 111,3.01477389 111,5.5 C111,7.98522611 113.014496,10 115.5,10 Z" id="Stroke-1"></path>
                    <path d="M137.5,10 C139.984815,10 142,7.98481525 142,5.5 C142,3.01518475 139.984815,1 137.5,1 C135.014496,1 133,3.01477389 133,5.5 C133,7.98522611 135.014496,10 137.5,10 Z" id="Stroke-1"></path>
                    <path d="M159.5,10 C161.984815,10 164,7.98481525 164,5.5 C164,3.01518475 161.984815,1 159.5,1 C157.014496,1 155,3.01477389 155,5.5 C155,7.98522611 157.014496,10 159.5,10 Z" id="Stroke-1"></path>
                    <path d="M181.5,10 C183.984815,10 186,7.98481525 186,5.5 C186,3.01518475 183.984815,1 181.5,1 C179.014496,1 177,3.01477389 177,5.5 C177,7.98522611 179.014496,10 181.5,10 Z" id="Stroke-1"></path>
                    <path d="M203.5,10 C205.984815,10 208,7.98481525 208,5.5 C208,3.01518475 205.984815,1 203.5,1 C201.014496,1 199,3.01477389 199,5.5 C199,7.98522611 201.014496,10 203.5,10 Z" id="Stroke-1"></path>
                    <path d="M16.5,32 C18.9848153,32 21,29.9848153 21,27.5 C21,25.0151847 18.9848153,23 16.5,23 C14.0144956,23 12,25.0147739 12,27.5 C12,29.9852261 14.0144956,32 16.5,32 Z" id="Stroke-1"></path>
                    <path d="M38.5,32 C40.9848153,32 43,29.9848153 43,27.5 C43,25.0151847 40.9848153,23 38.5,23 C36.0144956,23 34,25.0147739 34,27.5 C34,29.9852261 36.0144956,32 38.5,32 Z" id="Stroke-1"></path>
                    <path d="M60.5,32 C62.9848153,32 65,29.9848153 65,27.5 C65,25.0151847 62.9848153,23 60.5,23 C58.0144956,23 56,25.0147739 56,27.5 C56,29.9852261 58.0144956,32 60.5,32 Z" id="Stroke-1"></path>
                    <path d="M82.5,32 C84.9848153,32 87,29.9848153 87,27.5 C87,25.0151847 84.9848153,23 82.5,23 C80.0144956,23 78,25.0147739 78,27.5 C78,29.9852261 80.0144956,32 82.5,32 Z" id="Stroke-1"></path>
                    <path d="M104.5,32 C106.984815,32 109,29.9848153 109,27.5 C109,25.0151847 106.984815,23 104.5,23 C102.014496,23 100,25.0147739 100,27.5 C100,29.9852261 102.014496,32 104.5,32 Z" id="Stroke-1"></path>
                    <path d="M126.5,32 C128.984815,32 131,29.9848153 131,27.5 C131,25.0151847 128.984815,23 126.5,23 C124.014496,23 122,25.0147739 122,27.5 C122,29.9852261 124.014496,32 126.5,32 Z" id="Stroke-1"></path>
                    <path d="M148.5,32 C150.984815,32 153,29.9848153 153,27.5 C153,25.0151847 150.984815,23 148.5,23 C146.014496,23 144,25.0147739 144,27.5 C144,29.9852261 146.014496,32 148.5,32 Z" id="Stroke-1"></path>
                    <path d="M170.5,32 C172.984815,32 175,29.9848153 175,27.5 C175,25.0151847 172.984815,23 170.5,23 C168.014496,23 166,25.0147739 166,27.5 C166,29.9852261 168.014496,32 170.5,32 Z" id="Stroke-1"></path>
                    <path d="M192.5,32 C194.984815,32 197,29.9848153 197,27.5 C197,25.0151847 194.984815,23 192.5,23 C190.014496,23 188,25.0147739 188,27.5 C188,29.9852261 190.014496,32 192.5,32 Z" id="Stroke-1"></path>
                    <path d="M214.5,32 C216.984815,32 219,29.9848153 219,27.5 C219,25.0151847 216.984815,23 214.5,23 C212.014496,23 210,25.0147739 210,27.5 C210,29.9852261 212.014496,32 214.5,32 Z" id="Stroke-1"></path>
                    <path d="M5.5,54 C7.98481525,54 10,51.9848153 10,49.5 C10,47.0151847 7.98481525,45 5.5,45 C3.01449556,45 1,47.0147739 1,49.5 C1,51.9852261 3.01449556,54 5.5,54 Z" id="Stroke-1"></path>
                    <path d="M27.5,54 C29.9848153,54 32,51.9848153 32,49.5 C32,47.0151847 29.9848153,45 27.5,45 C25.0144956,45 23,47.0147739 23,49.5 C23,51.9852261 25.0144956,54 27.5,54 Z" id="Stroke-1"></path>
                    <path d="M49.5,54 C51.9848153,54 54,51.9848153 54,49.5 C54,47.0151847 51.9848153,45 49.5,45 C47.0144956,45 45,47.0147739 45,49.5 C45,51.9852261 47.0144956,54 49.5,54 Z" id="Stroke-1"></path>
                    <path d="M71.5,54 C73.9848153,54 76,51.9848153 76,49.5 C76,47.0151847 73.9848153,45 71.5,45 C69.0144956,45 67,47.0147739 67,49.5 C67,51.9852261 69.0144956,54 71.5,54 Z" id="Stroke-1"></path>
                    <path d="M93.5,54 C95.9848153,54 98,51.9848153 98,49.5 C98,47.0151847 95.9848153,45 93.5,45 C91.0144956,45 89,47.0147739 89,49.5 C89,51.9852261 91.0144956,54 93.5,54 Z" id="Stroke-1"></path>
                    <path d="M115.5,54 C117.984815,54 120,51.9848153 120,49.5 C120,47.0151847 117.984815,45 115.5,45 C113.014496,45 111,47.0147739 111,49.5 C111,51.9852261 113.014496,54 115.5,54 Z" id="Stroke-1"></path>
                    <path d="M137.5,54 C139.984815,54 142,51.9848153 142,49.5 C142,47.0151847 139.984815,45 137.5,45 C135.014496,45 133,47.0147739 133,49.5 C133,51.9852261 135.014496,54 137.5,54 Z" id="Stroke-1"></path>
                    <path d="M159.5,54 C161.984815,54 164,51.9848153 164,49.5 C164,47.0151847 161.984815,45 159.5,45 C157.014496,45 155,47.0147739 155,49.5 C155,51.9852261 157.014496,54 159.5,54 Z" id="Stroke-1"></path>
                    <path d="M181.5,54 C183.984815,54 186,51.9848153 186,49.5 C186,47.0151847 183.984815,45 181.5,45 C179.014496,45 177,47.0147739 177,49.5 C177,51.9852261 179.014496,54 181.5,54 Z" id="Stroke-1"></path>
                    <path d="M203.5,54 C205.984815,54 208,51.9848153 208,49.5 C208,47.0151847 205.984815,45 203.5,45 C201.014496,45 199,47.0147739 199,49.5 C199,51.9852261 201.014496,54 203.5,54 Z" id="Stroke-1"></path>
                    <path d="M16.5,76 C18.9848153,76 21,73.9848153 21,71.5 C21,69.0151847 18.9848153,67 16.5,67 C14.0144956,67 12,69.0147739 12,71.5 C12,73.9852261 14.0144956,76 16.5,76 Z" id="Stroke-1"></path>
                    <path d="M38.5,76 C40.9848153,76 43,73.9848153 43,71.5 C43,69.0151847 40.9848153,67 38.5,67 C36.0144956,67 34,69.0147739 34,71.5 C34,73.9852261 36.0144956,76 38.5,76 Z" id="Stroke-1"></path>
                    <path d="M60.5,76 C62.9848153,76 65,73.9848153 65,71.5 C65,69.0151847 62.9848153,67 60.5,67 C58.0144956,67 56,69.0147739 56,71.5 C56,73.9852261 58.0144956,76 60.5,76 Z" id="Stroke-1"></path>
                    <path d="M82.5,76 C84.9848153,76 87,73.9848153 87,71.5 C87,69.0151847 84.9848153,67 82.5,67 C80.0144956,67 78,69.0147739 78,71.5 C78,73.9852261 80.0144956,76 82.5,76 Z" id="Stroke-1"></path>
                    <path d="M104.5,76 C106.984815,76 109,73.9848153 109,71.5 C109,69.0151847 106.984815,67 104.5,67 C102.014496,67 100,69.0147739 100,71.5 C100,73.9852261 102.014496,76 104.5,76 Z" id="Stroke-1"></path>
                    <path d="M148.5,76 C150.984815,76 153,73.9848153 153,71.5 C153,69.0151847 150.984815,67 148.5,67 C146.014496,67 144,69.0147739 144,71.5 C144,73.9852261 146.014496,76 148.5,76 Z" id="Stroke-1"></path>
                    <path d="M170.5,76 C172.984815,76 175,73.9848153 175,71.5 C175,69.0151847 172.984815,67 170.5,67 C168.014496,67 166,69.0147739 166,71.5 C166,73.9852261 168.014496,76 170.5,76 Z" id="Stroke-1"></path>
                    <path d="M192.5,76 C194.984815,76 197,73.9848153 197,71.5 C197,69.0151847 194.984815,67 192.5,67 C190.014496,67 188,69.0147739 188,71.5 C188,73.9852261 190.014496,76 192.5,76 Z" id="Stroke-1"></path>
                    <path d="M214.5,76 C216.984815,76 219,73.9848153 219,71.5 C219,69.0151847 216.984815,67 214.5,67 C212.014496,67 210,69.0147739 210,71.5 C210,73.9852261 212.014496,76 214.5,76 Z" id="Stroke-1"></path>
                    <path d="M5.5,98 C7.98481525,98 10,95.9848153 10,93.5 C10,91.0151847 7.98481525,89 5.5,89 C3.01449556,89 1,91.0147739 1,93.5 C1,95.9852261 3.01449556,98 5.5,98 Z" id="Stroke-1"></path>
                    <path d="M27.5,98 C29.9848153,98 32,95.9848153 32,93.5 C32,91.0151847 29.9848153,89 27.5,89 C25.0144956,89 23,91.0147739 23,93.5 C23,95.9852261 25.0144956,98 27.5,98 Z" id="Stroke-1"></path>
                    <path d="M71.5,98 C73.9848153,98 76,95.9848153 76,93.5 C76,91.0151847 73.9848153,89 71.5,89 C69.0144956,89 67,91.0147739 67,93.5 C67,95.9852261 69.0144956,98 71.5,98 Z" id="Stroke-1"></path>
                    <path d="M93.5,98 C95.9848153,98 98,95.9848153 98,93.5 C98,91.0151847 95.9848153,89 93.5,89 C91.0144956,89 89,91.0147739 89,93.5 C89,95.9852261 91.0144956,98 93.5,98 Z" id="Stroke-1"></path>
                    <path d="M115.5,98 C117.984815,98 120,95.9848153 120,93.5 C120,91.0151847 117.984815,89 115.5,89 C113.014496,89 111,91.0147739 111,93.5 C111,95.9852261 113.014496,98 115.5,98 Z" id="Stroke-1"></path>
                    <path d="M137.5,98 C139.984815,98 142,95.9848153 142,93.5 C142,91.0151847 139.984815,89 137.5,89 C135.014496,89 133,91.0147739 133,93.5 C133,95.9852261 135.014496,98 137.5,98 Z" id="Stroke-1"></path>
                    <path d="M159.5,98 C161.984815,98 164,95.9848153 164,93.5 C164,91.0151847 161.984815,89 159.5,89 C157.014496,89 155,91.0147739 155,93.5 C155,95.9852261 157.014496,98 159.5,98 Z" id="Stroke-1"></path>
                    <path d="M181.5,98 C183.984815,98 186,95.9848153 186,93.5 C186,91.0151847 183.984815,89 181.5,89 C179.014496,89 177,91.0147739 177,93.5 C177,95.9852261 179.014496,98 181.5,98 Z" id="Stroke-1"></path>
                    <path d="M203.5,98 C205.984815,98 208,95.9848153 208,93.5 C208,91.0151847 205.984815,89 203.5,89 C201.014496,89 199,91.0147739 199,93.5 C199,95.9852261 201.014496,98 203.5,98 Z" id="Stroke-1"></path>
                    <path d="M16.5,120 C18.9848153,120 21,117.984815 21,115.5 C21,113.015185 18.9848153,111 16.5,111 C14.0144956,111 12,113.014774 12,115.5 C12,117.985226 14.0144956,120 16.5,120 Z" id="Stroke-1"></path>
                    <path d="M38.5,120 C40.9848153,120 43,117.984815 43,115.5 C43,113.015185 40.9848153,111 38.5,111 C36.0144956,111 34,113.014774 34,115.5 C34,117.985226 36.0144956,120 38.5,120 Z" id="Stroke-1"></path>
                    <path d="M60.5,120 C62.9848153,120 65,117.984815 65,115.5 C65,113.015185 62.9848153,111 60.5,111 C58.0144956,111 56,113.014774 56,115.5 C56,117.985226 58.0144956,120 60.5,120 Z" id="Stroke-1"></path>
                    <path d="M82.5,120 C84.9848153,120 87,117.984815 87,115.5 C87,113.015185 84.9848153,111 82.5,111 C80.0144956,111 78,113.014774 78,115.5 C78,117.985226 80.0144956,120 82.5,120 Z" id="Stroke-1"></path>
                    <path d="M104.5,120 C106.984815,120 109,117.984815 109,115.5 C109,113.015185 106.984815,111 104.5,111 C102.014496,111 100,113.014774 100,115.5 C100,117.985226 102.014496,120 104.5,120 Z" id="Stroke-1"></path>
                    <path d="M126.5,120 C128.984815,120 131,117.984815 131,115.5 C131,113.015185 128.984815,111 126.5,111 C124.014496,111 122,113.014774 122,115.5 C122,117.985226 124.014496,120 126.5,120 Z" id="Stroke-1"></path>
                    <path d="M148.5,120 C150.984815,120 153,117.984815 153,115.5 C153,113.015185 150.984815,111 148.5,111 C146.014496,111 144,113.014774 144,115.5 C144,117.985226 146.014496,120 148.5,120 Z" id="Stroke-1"></path>
                    <path d="M192.5,120 C194.984815,120 197,117.984815 197,115.5 C197,113.015185 194.984815,111 192.5,111 C190.014496,111 188,113.014774 188,115.5 C188,117.985226 190.014496,120 192.5,120 Z" id="Stroke-1"></path>
                    <path d="M214.5,120 C216.984815,120 219,117.984815 219,115.5 C219,113.015185 216.984815,111 214.5,111 C212.014496,111 210,113.014774 210,115.5 C210,117.985226 212.014496,120 214.5,120 Z" id="Stroke-1"></path>
                    <path d="M5.5,142 C7.98481525,142 10,139.984815 10,137.5 C10,135.015185 7.98481525,133 5.5,133 C3.01449556,133 1,135.014774 1,137.5 C1,139.985226 3.01449556,142 5.5,142 Z" id="Stroke-1"></path>
                    <path d="M27.5,142 C29.9848153,142 32,139.984815 32,137.5 C32,135.015185 29.9848153,133 27.5,133 C25.0144956,133 23,135.014774 23,137.5 C23,139.985226 25.0144956,142 27.5,142 Z" id="Stroke-1"></path>
                    <path d="M49.5,142 C51.9848153,142 54,139.984815 54,137.5 C54,135.015185 51.9848153,133 49.5,133 C47.0144956,133 45,135.014774 45,137.5 C45,139.985226 47.0144956,142 49.5,142 Z" id="Stroke-1"></path>
                    <path d="M71.5,142 C73.9848153,142 76,139.984815 76,137.5 C76,135.015185 73.9848153,133 71.5,133 C69.0144956,133 67,135.014774 67,137.5 C67,139.985226 69.0144956,142 71.5,142 Z" id="Stroke-1"></path>
                    <path d="M126.5,76 C128.984815,76 131,73.9848153 131,71.5 C131,69.0151847 128.984815,67 126.5,67 C124.014496,67 122,69.0147739 122,71.5 C122,73.9852261 124.014496,76 126.5,76 Z" id="Stroke-1"></path>
                    <path d="M49.5,98 C51.9848153,98 54,95.9848153 54,93.5 C54,91.0151847 51.9848153,89 49.5,89 C47.0144956,89 45,91.0147739 45,93.5 C45,95.9852261 47.0144956,98 49.5,98 Z" id="Stroke-1"></path>
                    <path d="M170.5,120 C172.984815,120 175,117.984815 175,115.5 C175,113.015185 172.984815,111 170.5,111 C168.014496,111 166,113.014774 166,115.5 C166,117.985226 168.014496,120 170.5,120 Z" id="Stroke-1"></path>
                    <path d="M93.5,142 C95.9848153,142 98,139.984815 98,137.5 C98,135.015185 95.9848153,133 93.5,133 C91.0144956,133 89,135.014774 89,137.5 C89,139.985226 91.0144956,142 93.5,142 Z" id="Stroke-1"></path>
                    <path d="M115.5,142 C117.984815,142 120,139.984815 120,137.5 C120,135.015185 117.984815,133 115.5,133 C113.014496,133 111,135.014774 111,137.5 C111,139.985226 113.014496,142 115.5,142 Z" id="Stroke-1"></path>
                    <path d="M137.5,142 C139.984815,142 142,139.984815 142,137.5 C142,135.015185 139.984815,133 137.5,133 C135.014496,133 133,135.014774 133,137.5 C133,139.985226 135.014496,142 137.5,142 Z" id="Stroke-1"></path>
                    <path d="M159.5,142 C161.984815,142 164,139.984815 164,137.5 C164,135.015185 161.984815,133 159.5,133 C157.014496,133 155,135.014774 155,137.5 C155,139.985226 157.014496,142 159.5,142 Z" id="Stroke-1"></path>
                    <path d="M181.5,142 C183.984815,142 186,139.984815 186,137.5 C186,135.015185 183.984815,133 181.5,133 C179.014496,133 177,135.014774 177,137.5 C177,139.985226 179.014496,142 181.5,142 Z" id="Stroke-1"></path>
                    <path d="M203.5,142 C205.984815,142 208,139.984815 208,137.5 C208,135.015185 205.984815,133 203.5,133 C201.014496,133 199,135.014774 199,137.5 C199,139.985226 201.014496,142 203.5,142 Z" id="Stroke-1"></path>
                </g>
            </g>
        </g>
    </g>
</svg>