<svg xmlns="http://www.w3.org/2000/svg" xmlns:xlink="http://www.w3.org/1999/xlink" width="16" height="16" viewBox="0 0 16 16"><defs><path id="a" d="M17 16c0 .6-.4 1-1 1s-1-.4-1-1v-3c0-.6.4-1 1-1s1 .4 1 1v3zm-1 4c-.6 0-1-.4-1-1v-.2c0-.4.5-.8 1-.8s1 .4 1 .8v.2c0 .6-.4 1-1 1zm0-10c-3.3 0-6 2.7-6 6s2.7 6 6 6 6-2.7 6-6-2.7-6-6-6z"/></defs><g fill="none" fill-rule="evenodd" transform="translate(-8 -8)"><mask id="b" fill="#fff"><use xlink:href="#a"/></mask><use fill="#CED0D9" xlink:href="#a"/><g fill="#CED0D9" mask="url(#b)"><path d="M0 0h32v32H0z"/></g></g></svg>
