<svg xmlns="http://www.w3.org/2000/svg" xmlns:xlink="http://www.w3.org/1999/xlink" width="16" height="16"><defs><path id="a" d="M9 8c0 .55-.45 1-1 1s-1-.45-1-1V5c0-.55.45-1 1-1s1 .45 1 1v3zm-1 4c-.55 0-1-.45-1-1 0-.06.01-.12.02-.17.08-.47.49-.83.98-.83s.9.36.98.83c.01.05.02.11.02.17 0 .55-.45 1-1 1zM8 2C4.69 2 2 4.69 2 8s2.69 6 6 6 6-2.69 6-6-2.69-6-6-6z"/></defs><g fill="none" fill-rule="evenodd" transform="rotate(-180 8 8)"><mask id="b" fill="#fff"><use xlink:href="#a"/></mask><use fill="#3D4250" xlink:href="#a"/><g fill="#CED0D9" mask="url(#b)"><path d="M-8-8h32v32H-8z"/></g></g></svg>