<svg xmlns="http://www.w3.org/2000/svg" xmlns:xlink="http://www.w3.org/1999/xlink" width="16" height="16" viewBox="0 0 16 16"><defs><path id="a" d="M14 15h4v-1.3c0-1-1-1.7-2-1.7s-2 .8-2 1.7V15zm6 0c1 0 2 1 2 2v3c0 1-1 2-2 2h-8c-1 0-2-1-2-2v-3c0-1 1-2 2-2v-1.3c0-2 1.8-3.7 4-3.7s4 1.6 4 3.7V15z"/></defs><g fill="none" fill-rule="evenodd" transform="translate(-8 -8)"><mask id="b" fill="#fff"><use xlink:href="#a"/></mask><use fill="#99A2BF" xlink:href="#a"/><g fill="#99A2BF" mask="url(#b)"><path d="M0 0h32v32H0z"/></g></g></svg>