<svg id="Layer_1" data-name="Layer 1" xmlns="http://www.w3.org/2000/svg" width="500" height="500" viewBox="0 0 500 500"><defs><style>.cls-1{fill:#2fd1b9;}.cls-2{fill:#2ba3af;}.cls-3{fill:#fff;}.cls-4{fill:#dcefff;}.cls-5{fill:#424575;}</style></defs><title>thrivaling-dr</title><rect class="cls-1" x="131.773" y="76.169" width="237.49" height="351.74" rx="118.745" ry="118.745"/><path class="cls-2" d="M353.27,300c-1.422,4.076-5.847,7.636-9.349,9.937a99.023,99.023,0,0,1-12.181,6.365,238.924,238.924,0,0,0-29.067,16.484c-8.777,5.782-18.374,11.76-25.308,19.768A53.951,53.951,0,0,0,265.328,376.9a54.833,54.833,0,0,0-.924,6.427,97.059,97.059,0,0,0-9.863-10.933C245.05,363.356,233.9,356.768,222,351.42a245.161,245.161,0,0,0-40.213-14.1c-11.03-2.8-23.01-5.855-31.885-13.646-9.941-8.727-13.5-20.679-17.21-32.773a.712.712,0,0,0-1.392.188c-.956,11.629.013,24.13,6.651,34.1,6.988,10.5,18.955,15.1,30.669,18.224,13.419,3.578,26.672,7.042,39.588,12.249,12.243,4.937,24.742,10.734,35.02,19.146A93.767,93.767,0,0,1,264.2,399.279a22.188,22.188,0,0,0-2.248,3.312,38.568,38.568,0,0,0-3.618,8.018,39.1,39.1,0,0,0-1.558,8.494c-.262,3.018-.4,6.466,1.8,8.786,1.688,1.783,4.289,1.071,5.563-.716,1.49-2.09,1.053-5.191,1.124-7.652a71.107,71.107,0,0,1,.63-7.473c.307-2.284.7-4.588,1.233-6.831.013-.054.026-.108.04-.162.4,1.134.843,2.26,1.331,3.372,2.26,5.147,11.1,1.469,9.148-3.856-5.692-15.52-3.479-33.928,7.8-46.492,6.85-7.633,15.955-13.591,24.345-19.386,8.907-6.152,17.979-12.058,27.061-17.946a70.583,70.583,0,0,0,11.438-8.632c3.537-3.493,5.028-7.044,6.05-11.82A.549.549,0,0,0,353.27,300Z"/><path class="cls-2" d="M140.719,169.606c8.946.884,18.554-.706,27.37-2.191a170.683,170.683,0,0,0,25.989-6.521,167.764,167.764,0,0,0,48.239-25.281,102.2,102.2,0,0,0,11.544-10.273,51.017,51.017,0,0,0,5.047-5.752c.341-.484.66-.984.966-1.49,1.657,2.965,5.091,5.457,7.549,7.033,4.823,3.092,10.364,5.091,15.716,7.052a91.534,91.534,0,0,0,17.466,4.5,72.153,72.153,0,0,0,9.622.856c3.356.062,6.777.066,9.315-2.441,2.018-1.994,1.246-4.876-.824-6.389-2.455-1.795-5.623-1.376-8.491-1.488a68.387,68.387,0,0,1-7.3-.688,133.452,133.452,0,0,1-16.233-3.754c-4.894-1.355-9.843-2.805-14.616-4.544a31.011,31.011,0,0,1-6.031-2.759,33.831,33.831,0,0,0-3.362-2.156c.057-.087.111-.175.169-.261.977-1.445-1.014-3.548-2.47-2.47a50.412,50.412,0,0,1-5.208,3.177,56.821,56.821,0,0,0-5.371,3.777c-3.476,2.539-6.913,5.109-10.478,7.523a256.593,256.593,0,0,1-22.018,13.819,169.953,169.953,0,0,1-48.275,17.19c-4.423.854-8.873,1.532-13.355,1.986-4.979.5-10,.523-14.962,1.125C134.1,159.988,133.952,168.936,140.719,169.606Z"/><path class="cls-2" d="M217.81,230.584c-6.183,1.694-14.071,3.587-20.345,2.086a31.515,31.515,0,0,1-9.251-4.035c-3.188-2-5.154-4.852-7.892-7.291a.386.386,0,0,0-.639.372c1.565,7.141,9.677,12.826,16.271,14.69,7.34,2.075,16.647,1.672,23.958-.382,17.327-4.869,22.862-25.639,20.053-41.691a26,26,0,0,1,24.386,4.175c2.64,2.032,5.278-2.491,2.625-4.49a30.841,30.841,0,0,0-31.032-3.306,2.466,2.466,0,0,0-1.124,2.762C238.2,207.822,233.81,226.2,217.81,230.584Z"/><path class="cls-2" d="M316.544,203.562c.809,11.108-6,20.979-15.522,25.725-10.4,5.182-26.179,4.988-33.479-5.59-.28-.405-1.041-.177-.845.367,5.2,14.475,22.853,17,35.308,11.825,12.616-5.237,22.277-17.933,21.474-32.327C323.224,198.981,316.211,198.991,316.544,203.562Z"/><path class="cls-2" d="M233.58,274.268a53.558,53.558,0,0,0,19.393,2.879c11.854-.485,29.345-5.039,32.99-18.12,1.215-4.363-5.349-7.379-7.477-3.152-4.792,9.515-17.136,13-27.042,13.641a53.23,53.23,0,0,1-16.562-1.414c-5.382-1.367-10.248-4.042-15.523-5.616-1.007-.3-2.11.953-1.445,1.88C221.538,269.425,227.839,272.3,233.58,274.268Z"/><circle class="cls-3" cx="206.964" cy="206.074" r="26.822"/><path class="cls-4" d="M217.842,180.98l-27.177,46.072a26.821,26.821,0,1,0,27.177-46.072Z"/><path class="cls-3" d="M316.991,207.98a26.822,26.822,0,1,1-53.644,0c0-14.813,13.471-25.847,28.285-25.847S316.991,193.167,316.991,207.98Z"/><path class="cls-4" d="M302.027,183.433,274.85,229.505a26.821,26.821,0,1,0,27.177-46.072Z"/><path class="cls-5" d="M290.858,211.241a1.39,1.39,0,0,1,.238-.133l-1.175.5a.541.541,0,0,1,.143-.033l-1.325.178h.064l-1.332-.179a.358.358,0,0,1,.116.028l-1.209-.51a.4.4,0,0,1,.1.065l-1.035-.8a.552.552,0,0,1,.089.1l-.809-1.046a.438.438,0,0,1,.068.128l-.529-1.252a1.1,1.1,0,0,1,.032.149l-.19-1.418c.089.75.179,1.5.3,2.244l-.2-1.5a3.777,3.777,0,0,1,0,.962l.208-1.551a3,3,0,0,1-.194.688l.6-1.429a2.626,2.626,0,0,1-.169.3,6.091,6.091,0,0,0-.61,4.664,5.825,5.825,0,0,0,3.5,3.923,6.076,6.076,0,0,0,8.169-3.923,8.557,8.557,0,0,0-.118-4.455,7.727,7.727,0,0,0-3.181-4.4,6.374,6.374,0,0,0-4.749-.724,5.4,5.4,0,0,0-3.869,4.012,5.984,5.984,0,0,0,0,2.552,4.767,4.767,0,0,0,1.721,2.494,4.889,4.889,0,0,0,5.332.375Z"/><path class="cls-5" d="M207.943,209.748a1.367,1.367,0,0,1,.239-.134l-1.175.5a.532.532,0,0,1,.142-.032l-1.324.178h.064l-1.332-.179a.354.354,0,0,1,.115.029l-1.209-.511a.432.432,0,0,1,.1.065l-1.036-.8a.516.516,0,0,1,.089.1l-.808-1.047a.448.448,0,0,1,.067.128l-.528-1.252a1.081,1.081,0,0,1,.032.15l-.191-1.418c.09.749.179,1.5.3,2.243l-.2-1.5a3.777,3.777,0,0,1,0,.962l.209-1.552a3.009,3.009,0,0,1-.195.689l.6-1.43a2.8,2.8,0,0,1-.169.3,6.091,6.091,0,0,0-.61,4.664,5.823,5.823,0,0,0,3.505,3.923,6.076,6.076,0,0,0,8.169-3.923,8.567,8.567,0,0,0-.118-4.455,7.718,7.718,0,0,0-3.182-4.4,6.362,6.362,0,0,0-4.748-.724,5.4,5.4,0,0,0-3.869,4.011,5.989,5.989,0,0,0,0,2.553,4.763,4.763,0,0,0,1.72,2.494,4.889,4.889,0,0,0,5.332.375Z"/><path class="cls-5" d="M205.294,178.333c-11.5,2.366-21.967,10.082-25.67,21.509-3.815,11.768.148,24.8,10.668,31.6a29.023,29.023,0,0,0,32.971-1.232,32.257,32.257,0,0,0,12.206-32.072c-2.906-14.086-16.485-24.244-30.855-21.592-3.777.7-2.213,6.706,1.6,5.818,10.478-2.438,20.707,4.467,23.719,14.488a26.861,26.861,0,0,1-8.042,27.592,24.259,24.259,0,0,1-26.039,4.366c-9.644-4.272-14.511-14.493-13.178-24.784,1.576-12.175,11.488-21.438,22.811-24.984a.366.366,0,0,0-.194-.705Z"/><path class="cls-5" d="M185.272,192.644c1.959.067,3.513-2.364,4.76-3.623a29.188,29.188,0,0,1,6.368-4.932,26.732,26.732,0,0,1,15.722-3.451c2.461.211,2.447-3.63,0-3.84a29.407,29.407,0,0,0-17.306,3.779,28.514,28.514,0,0,0-6.563,5.509c-1.328,1.475-4.05,4.16-3.289,6.324a.331.331,0,0,0,.308.234Z"/><path class="cls-5" d="M276.407,187.208c1.606.84,3.575-.433,5.119-1.028a29.39,29.39,0,0,1,7.916-1.981,25.625,25.625,0,0,1,14.946,3.039c2.165,1.194,4.1-2.121,1.937-3.316a26.663,26.663,0,0,0-24.9-1.243c-1.758.773-5.041,2.018-5.175,4.253a.314.314,0,0,0,.159.276Z"/><path class="cls-5" d="M231.685,194.142a.968.968,0,0,0-.5.858,1.159,1.159,0,0,0,.848,1.113c2.465.526,4.191-2.635,5.975-3.949a16.078,16.078,0,0,1,9.842-3.007c3.111.008,7.259-.082,10.144,1.2,2.854,1.267,4.749,4.192,6.444,6.673l2.519-4.39-1.644.208a2.912,2.912,0,1,0,.777,5.746l1.643-.223c1.806-.245,2.723-2.879,1.743-4.286-2.188-3.141-4.541-6.448-7.958-8.355-3.616-2.019-8.263-2.132-12.3-1.97a22.244,22.244,0,0,0-11.856,3.467,18.214,18.214,0,0,0-4.185,3.881,11.524,11.524,0,0,0-1.516,2.234,2.979,2.979,0,0,0-.306.966q-.425.909.582-.1a.185.185,0,0,0-.25-.065Z"/><path class="cls-5" d="M299.573,182.571c-11.448-2.553-24.248.339-31.843,9.726-7.327,9.056-8.444,21.809-1.508,31.438a28.155,28.155,0,0,0,29.341,11.032c11.662-2.783,21.1-12.486,23.034-24.394,2.1-12.932-5.5-26.487-18.595-29.683-3.8-.927-5.386,5.086-1.6,5.818a19.457,19.457,0,0,1,15.564,20.171c-.46,9.78-7.23,18.47-16.315,21.865-9.053,3.383-19.067,1.452-25.734-5.679-6.608-7.068-7.247-17.347-2.661-25.7,5.876-10.7,18.548-15.219,30.224-13.877.41.047.5-.629.1-.718Z"/><path class="cls-5" d="M247.671,90.827c-.48,3.1,1.908,6.694,3.377,9.3a56.858,56.858,0,0,0,6.276,8.992,63.943,63.943,0,0,0,16.3,13.635,66.6,66.6,0,0,0,46.8,7.6c4.806-1,2.741-8.193-2.017-7.317a62.319,62.319,0,0,1-41.57-6.531,64.323,64.323,0,0,1-15.16-11.742,75.6,75.6,0,0,1-6.42-7.54c-1.636-2.237-3.067-5.824-5.5-7.245a1.428,1.428,0,0,0-2.081.847Z"/><path class="cls-5" d="M259.279,105.146a115.9,115.9,0,0,1-42.467,31.162c-18.425,7.815-38.388,11.385-58.234,13.112-12.055,1.049-24.16,1.507-36.242,2.14-5.312.278-5.384,8.462,0,8.319,40.82-1.088,85.128-4,119.006-29.456,8.408-6.317,15.836-13.7,21.2-22.757,1.175-1.983-1.685-4.342-3.266-2.52Z"/><path class="cls-5" d="M253.271,55.751c-6.1-1.836-13.165-1.447-19.472-1.21a141.136,141.136,0,0,0-19.379,2.048A129.629,129.629,0,0,0,176.551,69.4a117.857,117.857,0,0,0-47.766,46.987,116.14,116.14,0,0,0-8.178,18.5c-2.359,6.905-5.12,15.836-2.313,22.966a3.01,3.01,0,0,0,5.881-.8c.239-3.326.149-6.678.7-9.982a70.1,70.1,0,0,1,2.419-9.531,104.893,104.893,0,0,1,6.34-15.672A111.446,111.446,0,0,1,152.255,95.3c16.059-16.976,36.96-28.08,59.69-33.184a165.331,165.331,0,0,1,20.57-3.215c6.837-.649,14.043-.2,20.756-1.607a.807.807,0,0,0,0-1.543Z"/><path class="cls-5" d="M217.914,259.491c3.625,5.059,9.924,7.937,15.668,9.894a53.718,53.718,0,0,0,19.391,2.864c11.843-.484,29.326-5.033,32.967-18.1,1.209-4.339-5.318-7.339-7.435-3.135-4.8,9.522-17.147,13.01-27.061,13.652a53.029,53.029,0,0,1-16.563-1.429c-5.38-1.373-10.247-4.05-15.522-5.623-1.007-.3-2.11.953-1.445,1.88Z"/><path class="cls-4" d="M272.769,408.554c-4.674.707-7.23,5.942-7.769,10.639a21.388,21.388,0,0,0,3.312,14.727c4.1,5.809,11.674,8.538,18.768,8.011,5.71-.425,11.658-3.148,14.123-8.317,1.994-4.181,1.377-9.123.2-13.6-.839-3.185-2.022-6.432-4.421-8.689a15.43,15.43,0,0,0-6.09-3.263,29.979,29.979,0,0,0-23.375,2.509"/><path class="cls-5" d="M273.177,407.078c-3.92-.563-7.378,2.3-9.2,5.609a22.737,22.737,0,0,0-2.157,13.455,22.016,22.016,0,0,0,18.559,19.147c8.549,1.421,19.144-1.08,23.528-9.3,2.517-4.722,2.246-10.192,1.129-15.271-1.063-4.829-2.889-9.723-6.923-12.833-8.962-6.908-22.971-5.581-32.086.141-3.255,2.044-.422,6.7,2.976,5.091a29.63,29.63,0,0,1,21.34-1.612,10.128,10.128,0,0,1,6.908,6.48c1.266,3.36,2.281,7.369,1.769,10.975-.938,6.606-7.722,9.387-13.72,9.314-6.39-.077-12.626-3.053-15.535-8.94a19.429,19.429,0,0,1-1.575-11.288,10.725,10.725,0,0,1,5.353-8.165c1.023-.61,1-2.6-.365-2.8Z"/><path class="cls-3" d="M282.036,416.85a6.563,6.563,0,1,0,.476-.022"/><path class="cls-5" d="M282.036,415.8a7.688,7.688,0,0,0-7.747,8.013,8.559,8.559,0,0,0,8.615,7.813,8.4,8.4,0,0,0,7.814-8.106c.033-4.483-3.888-7.95-8.206-8.063-1.778-.046-1.746,2.623,0,2.743a5.358,5.358,0,0,1,5.04,4.983,5.18,5.18,0,0,1-4.986,5.029,5.02,5.02,0,0,1-4.75-4.737,6.207,6.207,0,0,1,4.5-5.61,1.056,1.056,0,0,0-.279-2.065Z"/><path class="cls-5" d="M124.257,220.449c-4.275,2.336-5.224,7.781-3.03,11.908,1.3,2.45,4.663.294,3.631-2.122-1.127-2.64-.373-5.738,1.119-8.066.7-1.1-.662-2.3-1.72-1.72Z"/><path class="cls-5" d="M375.524,207.8c.5,2.095,1.626,3.963,2.069,6.1a28.244,28.244,0,0,1,.378,6.693c-.111,3.163,4.433,2.978,4.8,0,.555-4.519-.789-11.357-4.534-14.376a1.637,1.637,0,0,0-2.712,1.579Z"/><path class="cls-5" d="M128.525,239.675c-2.158,9.878-1.03,20.593.365,30.5a285.612,285.612,0,0,0,5.435,29.525c2.162,8.619,5.856,16.714,12.41,22.881,6.4,6.018,14.322,9.992,22.518,12.948,9.517,3.433,19.439,5.6,28.946,9.068,5.321,1.939,10.61,3.99,15.911,5.983,10.324,3.882,20.5,8.429,29.232,15.293,13.475,10.6,21.942,25.65,27.72,41.547,1.089,3,5.8,1.807,4.848-1.336-4.454-14.79-11.694-28.865-22.777-39.789-8.4-8.276-18.566-14.138-29.362-18.7a297.629,297.629,0,0,0-37.017-13.3c-17.323-4.726-36.8-9.857-45.218-27.48-4.557-9.541-6.354-20.712-8.389-31.008-1.19-6.023-2.159-12.076-2.752-18.189a167.039,167.039,0,0,1-.343-17.746.781.781,0,0,0-1.527-.206Z"/><path class="cls-5" d="M368.017,222.247a114.921,114.921,0,0,0-.733,13.563c-.135,4.792-.354,9.582-.755,14.359a126.454,126.454,0,0,1-4.94,27.4c-4.929,15.7-14.135,29.884-28.459,38.45-7.491,4.479-15.5,8.193-23.184,12.323-6.615,3.554-13.489,6.646-19.949,10.486-11.39,6.771-20.225,16.088-24.5,28.8-4.461,13.267.722,28.062,6.014,40.284,1.02,2.355,5.064.671,4.177-1.761-4.108-11.261-9.284-23.654-5.576-35.741a45.95,45.95,0,0,1,7.136-14.277c4.4-5.766,10.361-9.964,16.518-13.652,6.355-3.806,13.008-7.1,19.467-10.719,7.678-4.307,15.838-7.783,23.331-12.413,13.663-8.442,22.708-21.938,27.657-37.038a114.649,114.649,0,0,0,5.12-28.447c.341-5.389.414-10.794.369-16.193a98.141,98.141,0,0,0-.857-15.419.438.438,0,0,0-.838,0Z"/></svg>