<svg xmlns="http://www.w3.org/2000/svg" xmlns:xlink="http://www.w3.org/1999/xlink" width="24" height="16"><defs><path id="a" d="M21.997 16H2.003a1.968 1.968 0 0 1-1.41-.58A2.035 2.035 0 0 1 0 13.996V2.004A2.039 2.039 0 0 1 .593.58 1.973 1.973 0 0 1 2.003 0h19.994a1.972 1.972 0 0 1 1.41.58c.375.376.59.888.593 1.424v12c-.014 1.113-.91 2.005-2.003 1.996z"/></defs><g fill="none" fill-rule="evenodd"><mask id="b" fill="#fff"><use xmlns:xlink="http://www.w3.org/1999/xlink" xlink:href="#a"/></mask><use fill="#1D91CE" fill-rule="nonzero" xmlns:xlink="http://www.w3.org/1999/xlink" xlink:href="#a"/><g fill-rule="nonzero" mask="url(#b)"><path fill="#FFF" d="M3.264 10.018l-.398.93H-.697l2.812-5.895H8.83l.68 1.302.632-1.302h9.054l.774.81.83-.81h4.206l-2.985 2.94 2.857 2.954h-4.07l-.91-.868-.902.867H4.47l-.437-.93"/><path fill="#1D91CE" d="M4.036 10.08H3.26h.776zm8.606-4.185h-1.768l-1.33 2.82-1.432-2.82h-1.77V9.98L4.517 5.894h-1.66l-1.953 4.21H2.1l.395-.96h2.273l.455.96H7.42V6.678l1.56 3.427h1.026l1.55-3.368v3.368h1.086v-4.21zm7.3 1.364L18.68 5.894h-5.07v4.21h4.902l1.39-1.38 1.397 1.38h1.304l-1.996-2.13 2.055-2.08H21.3L19.942 7.26zm-2.668 2.003h-2.577v-.926h2.577v-.842h-2.577v-.758h2.577V6.02l1.91 1.913-1.91 1.92v-.59zM3.657 6.585l.74 1.71h-1.54l.8-1.71z"/></g></g></svg>