<svg xmlns="http://www.w3.org/2000/svg" xmlns:xlink="http://www.w3.org/1999/xlink" width="24" height="16"><defs><path id="a" d="M21.997 16H2.003a1.972 1.972 0 0 1-1.41-.58A2.035 2.035 0 0 1 0 13.996V2.004A2.039 2.039 0 0 1 .593.58 1.973 1.973 0 0 1 2.003 0h19.994a1.972 1.972 0 0 1 1.41.58c.375.376.59.888.593 1.424v12c-.014 1.113-.91 2.005-2.003 1.996z"/></defs><g fill="none" fill-rule="evenodd"><mask id="b" fill="#fff"><use xmlns:xlink="http://www.w3.org/1999/xlink" xlink:href="#a"/></mask><use fill="#F6F9FC" fill-rule="nonzero" xmlns:xlink="http://www.w3.org/1999/xlink" xlink:href="#a"/><path fill="#F99F1B" fill-rule="nonzero" d="M0 13v1a2 2 0 0 0 2 2h20a2 2 0 0 0 2-2v-1H0z" mask="url(#b)"/><path fill="#2D4990" fill-rule="nonzero" d="M24 3V2a2 2 0 0 0-2-2H2a2 2 0 0 0-2 2v1h24zM11.503 5.065l-1.224 5.603H8.813l1.208-5.603h1.481zm6.183 3.625l.777-2.11.447 2.11h-1.224zm1.646 1.986h1.358l-1.192-5.61h-1.25a.663.663 0 0 0-.63.413l-2.208 5.188h1.547l.306-.828h1.887l.182.828v.008zm-3.84-1.837c0-1.474-2.077-1.557-2.07-2.22.01-.198.208-.413.63-.47.497-.048.996.038 1.45.247l.255-1.183a4.001 4.001 0 0 0-1.374-.248c-1.456 0-2.482.76-2.482 1.853-.008.802.73 1.257 1.283 1.522.58.273.77.455.77.695-.008.38-.463.546-.885.546-.745.017-1.167-.19-1.507-.347l-.272 1.225c.348.158.985.29 1.64.3 1.546 0 2.556-.746 2.564-1.92zm-6.1-3.775l-2.382 5.61H5.462L4.287 6.208c-.075-.273-.14-.373-.356-.497a6.124 6.124 0 0 0-1.447-.47l.033-.167h2.507c.315 0 .605.215.68.58l.62 3.235 1.53-3.807h1.54v-.015z" mask="url(#b)"/></g></svg>